<svg width="15" height="4" viewBox="0 0 15 4" fill="none" xmlns="http://www.w3.org/2000/svg">
<path d="M7.5 2.76562C7.92284 2.76562 8.26562 2.42284 8.26562 2C8.26562 1.57716 7.92284 1.23438 7.5 1.23438C7.07716 1.23438 6.73438 1.57716 6.73438 2C6.73438 2.42284 7.07716 2.76562 7.5 2.76562Z" fill="#4849E8" stroke="#4849E8" stroke-width="1.5" stroke-linecap="round" stroke-linejoin="round"/>
<path d="M12.8594 2.76562C13.2822 2.76562 13.625 2.42284 13.625 2C13.625 1.57716 13.2822 1.23438 12.8594 1.23438C12.4365 1.23438 12.0938 1.57716 12.0938 2C12.0938 2.42284 12.4365 2.76562 12.8594 2.76562Z" fill="#4849E8" stroke="#4849E8" stroke-width="1.5" stroke-linecap="round" stroke-linejoin="round"/>
<path d="M2.14062 2.76562C2.56347 2.76562 2.90625 2.42284 2.90625 2C2.90625 1.57716 2.56347 1.23438 2.14062 1.23438C1.71778 1.23438 1.375 1.57716 1.375 2C1.375 2.42284 1.71778 2.76562 2.14062 2.76562Z" fill="#4849E8" stroke="#4849E8" stroke-width="1.5" stroke-linecap="round" stroke-linejoin="round"/>
</svg>
