<svg width="16" height="16" viewBox="0 0 16 16" fill="none" xmlns="http://www.w3.org/2000/svg">
<path d="M6.33333 1.33398C5.78105 1.33398 5.33333 1.7817 5.33333 2.33398V3.00065C5.33333 3.55294 5.78105 4.00065 6.33333 4.00065H9.66667C10.219 4.00065 10.6667 3.55294 10.6667 3.00065V2.33398C10.6667 1.7817 10.219 1.33398 9.66667 1.33398H6.33333Z" fill="#5578A0"/>
<path fill-rule="evenodd" clip-rule="evenodd" d="M4.33333 2.69173C3.49473 2.73878 2.96532 2.87241 2.58579 3.25195C2 3.83773 2 4.78054 2 6.66616V10.6662C2 12.5518 2 13.4946 2.58579 14.0804C3.17157 14.6662 4.11438 14.6662 6 14.6662H10C11.8856 14.6662 12.8284 14.6662 13.4142 14.0804C14 13.4946 14 12.5518 14 10.6662V6.66616C14 4.78054 14 3.83773 13.4142 3.25195C13.0347 2.87241 12.5053 2.73878 11.6667 2.69173V3.00065C11.6667 4.10522 10.7712 5.00065 9.66667 5.00065H6.33333C5.22876 5.00065 4.33333 4.10522 4.33333 3.00065V2.69173ZM10.3412 8.36618C10.543 8.17776 10.5539 7.86137 10.3655 7.65949C10.1771 7.45762 9.86072 7.44671 9.65884 7.63513L7.14286 9.98338L6.34116 9.23513C6.13929 9.04671 5.82289 9.05762 5.63447 9.25949C5.44606 9.46137 5.45697 9.77776 5.65884 9.96618L6.8017 11.0328C6.9938 11.2121 7.29192 11.2121 7.48402 11.0328L10.3412 8.36618Z" fill="#5578A0"/>
</svg>
