<svg width="16" height="17" viewBox="0 0 16 17" fill="none" xmlns="http://www.w3.org/2000/svg">
<g id="Bold / Files / File Check">
<g id="Union">
<path d="M12.8998 5.57744L10.2607 3.20218C9.50875 2.52546 9.1328 2.1871 8.67151 2.01009L8.66536 3.83308C8.66536 5.40443 8.66536 6.1901 9.15352 6.67826C9.64167 7.16641 10.4273 7.16641 11.9987 7.16641L14.3854 7.16641C14.1437 6.69693 13.7109 6.30744 12.8998 5.57744Z" fill="#5578A0"/>
<path fill-rule="evenodd" clip-rule="evenodd" d="M9.33203 15.1663L6.66536 15.1663C4.15121 15.1663 2.89413 15.1663 2.11308 14.3853C1.33203 13.6042 1.33203 12.3472 1.33203 9.83301L1.33203 7.16634C1.33203 4.65218 1.33203 3.39511 2.11308 2.61406C2.89413 1.83301 4.15783 1.83301 6.68523 1.83301C7.08923 1.83301 7.41296 1.83301 7.68537 1.84412C7.6764 1.8974 7.6717 1.95176 7.67152 2.00672L7.66536 3.89632C7.6653 4.62772 7.66525 5.2741 7.7353 5.79511C7.81123 6.35986 7.98557 6.92452 8.44641 7.38536C8.90726 7.84621 9.47192 8.02055 10.0367 8.09648C10.5577 8.16652 11.2041 8.16647 11.9355 8.16642L11.9987 8.16641L14.637 8.16641C14.6654 8.52259 14.6654 8.95974 14.6654 9.54161V9.83301C14.6654 12.3472 14.6654 13.6042 13.8843 14.3853C13.1033 15.1663 11.8462 15.1663 9.33203 15.1663ZM6.99755 10.126C7.20394 10.3094 7.22253 10.6255 7.03907 10.8319L5.26129 12.8319C5.16641 12.9386 5.03041 12.9997 4.88759 12.9997C4.74477 12.9997 4.60877 12.9386 4.51388 12.8319L3.62499 11.8319C3.44153 11.6255 3.46012 11.3094 3.66652 11.126C3.87291 10.9425 4.18894 10.9611 4.3724 11.1675L4.88759 11.7471L6.29166 10.1675C6.47512 9.9611 6.79116 9.94251 6.99755 10.126Z" fill="#5578A0"/>
</g>
</g>
</svg>
