<svg width="16" height="16" viewBox="0 0 16 16" fill="none" xmlns="http://www.w3.org/2000/svg">
<path d="M10.3346 5.00033C10.3346 6.28899 9.28997 7.33366 8.0013 7.33366C6.71264 7.33366 5.66797 6.28899 5.66797 5.00033C5.66797 3.71166 6.71264 2.66699 8.0013 2.66699C9.28997 2.66699 10.3346 3.71166 10.3346 5.00033Z" fill="#5578A0"/>
<path d="M12 11.0003C12 12.289 10.2091 13.3337 8 13.3337C5.79086 13.3337 4 12.289 4 11.0003C4 9.71166 5.79086 8.66699 8 8.66699C10.2091 8.66699 12 9.71166 12 11.0003Z" fill="#5578A0"/>
<path d="M4.74673 3.33301C4.86504 3.33301 4.98054 3.34462 5.09207 3.36672C4.82036 3.84931 4.66536 4.40639 4.66536 4.99967C4.66536 5.57851 4.8129 6.12289 5.07243 6.59725C4.967 6.61689 4.85811 6.62718 4.74673 6.62718C3.80379 6.62718 3.03938 5.88976 3.03938 4.9801C3.03938 4.07043 3.80379 3.33301 4.74673 3.33301Z" fill="#5578A0"/>
<path d="M3.63026 12.657C3.25165 12.2044 2.9987 11.649 2.9987 10.9997C2.9987 10.3702 3.23641 9.829 3.59588 9.38416C2.3261 9.48265 1.33203 10.1771 1.33203 11.0193C1.33203 11.8693 2.34357 12.5689 3.63026 12.657Z" fill="#5578A0"/>
<path d="M11.333 4.99967C11.333 5.57851 11.1854 6.12289 10.9259 6.59725C11.0313 6.6169 11.1402 6.62718 11.2516 6.62718C12.1945 6.62718 12.9589 5.88976 12.9589 4.9801C12.9589 4.07043 12.1945 3.33301 11.2516 3.33301C11.1333 3.33301 11.0178 3.34462 10.9062 3.36672C11.178 3.84931 11.333 4.40639 11.333 4.99967Z" fill="#5578A0"/>
<path d="M12.3681 12.657C13.6547 12.5689 14.6663 11.8693 14.6663 11.0193C14.6663 10.1771 13.6722 9.48265 12.4024 9.38416C12.7619 9.829 12.9996 10.3702 12.9996 10.9997C12.9996 11.649 12.7467 12.2044 12.3681 12.657Z" fill="#5578A0"/>
</svg>
