<svg width="16" height="17" viewBox="0 0 16 17" fill="none" xmlns="http://www.w3.org/2000/svg">
<path d="M6.80947 13.3497C7.0216 13.1843 7.21401 12.9919 7.59877 12.6071L12.5293 7.67655C11.8583 7.39726 11.0635 6.93848 10.3118 6.1868C9.56 5.43499 9.1012 4.64006 8.82191 3.96894L3.89125 8.89961L3.89122 8.89963C3.50647 9.28438 3.31408 9.47678 3.14863 9.6889C2.95345 9.93913 2.78612 10.2099 2.64959 10.4964C2.53385 10.7392 2.44782 10.9973 2.27574 11.5136L1.36833 14.2358C1.28365 14.4898 1.34977 14.7699 1.53912 14.9593C1.72847 15.1486 2.00855 15.2147 2.26259 15.13L4.98482 14.2226C5.50104 14.0506 5.75916 13.9645 6.00202 13.8488C6.28849 13.7122 6.55924 13.5449 6.80947 13.3497Z" fill="#4849E8"/>
<path d="M13.8975 6.30838C14.9213 5.28458 14.9213 3.62466 13.8975 2.60086C12.8737 1.57706 11.2138 1.57706 10.19 2.60086L9.59863 3.19222C9.60673 3.21667 9.61513 3.24146 9.62384 3.26658C9.8406 3.89134 10.2496 4.71035 11.0189 5.47969C11.7883 6.24903 12.6073 6.658 13.232 6.87475C13.257 6.88343 13.2817 6.89179 13.306 6.89985L13.8975 6.30838Z" fill="#4849E8"/>
</svg>
