<svg width="16" height="16" viewBox="0 0 16 16" fill="none" xmlns="http://www.w3.org/2000/svg">
<path d="M6.10085 3.60501C6.94552 2.09034 7.36752 1.33301 7.99885 1.33301C8.63019 1.33301 9.05219 2.09034 9.89685 3.60501L10.1155 3.99701C10.3555 4.42767 10.4755 4.64301 10.6622 4.78501C10.8489 4.92701 11.0822 4.97967 11.5489 5.08501L11.9729 5.18101C13.6129 5.55234 14.4322 5.73767 14.6275 6.36501C14.8222 6.99167 14.2635 7.64567 13.1455 8.95301L12.8562 9.29101C12.5389 9.66234 12.3795 9.84834 12.3082 10.0777C12.2369 10.3077 12.2609 10.5557 12.3089 11.051L12.3529 11.5023C12.5215 13.247 12.6062 14.119 12.0955 14.5063C11.5849 14.8943 10.8169 14.5403 9.28219 13.8337L8.88419 13.651C8.44819 13.4497 8.23019 13.3497 7.99885 13.3497C7.76752 13.3497 7.54952 13.4497 7.11352 13.651L6.71619 13.8337C5.18085 14.5403 4.41285 14.8937 3.90285 14.507C3.39152 14.119 3.47619 13.247 3.64485 11.5023L3.68885 11.0517C3.73685 10.5557 3.76085 10.3077 3.68885 10.0783C3.61819 9.84834 3.45885 9.66234 3.14152 9.29167L2.85219 8.95301C1.73419 7.64634 1.17552 6.99234 1.37019 6.36501C1.56552 5.73767 2.38552 5.55167 4.02552 5.18101L4.44952 5.08501C4.91552 4.97967 5.14819 4.92701 5.33552 4.78501C5.52219 4.64301 5.64219 4.42767 5.88219 3.99701L6.10085 3.60501Z" fill="#FAF3DF"/>
<path d="M6.10085 3.60501C6.94552 2.09034 7.36752 1.33301 7.99885 1.33301C8.63019 1.33301 9.05219 2.09034 9.89685 3.60501L10.1155 3.99701C10.3555 4.42767 10.4755 4.64301 10.6622 4.78501C10.8489 4.92701 11.0822 4.97967 11.5489 5.08501L11.9729 5.18101C13.6129 5.55234 14.4322 5.73767 14.6275 6.36501C14.8222 6.99167 14.2635 7.64567 13.1455 8.95301L12.8562 9.29101C12.5389 9.66234 12.3795 9.84834 12.3082 10.0777C12.2369 10.3077 12.2609 10.5557 12.3089 11.051L12.3529 11.5023C12.5215 13.247 12.6062 14.119 12.0955 14.5063C11.5849 14.8943 10.8169 14.5403 9.28219 13.8337L8.88419 13.651C8.44819 13.4497 8.23019 13.3497 7.99885 13.3497C7.76752 13.3497 7.54952 13.4497 7.11352 13.651L6.71619 13.8337C5.18085 14.5403 4.41285 14.8937 3.90285 14.507C3.39152 14.119 3.47619 13.247 3.64485 11.5023L3.68885 11.0517C3.73685 10.5557 3.76085 10.3077 3.68885 10.0783C3.61819 9.84834 3.45885 9.66234 3.14152 9.29167L2.85219 8.95301C1.73419 7.64634 1.17552 6.99234 1.37019 6.36501C1.56552 5.73767 2.38552 5.55167 4.02552 5.18101L4.44952 5.08501C4.91552 4.97967 5.14819 4.92701 5.33552 4.78501C5.52219 4.64301 5.64219 4.42767 5.88219 3.99701L6.10085 3.60501Z" fill="#F3CC43"/>
</svg>
