<svg width="16" height="17" viewBox="0 0 16 17" fill="none" xmlns="http://www.w3.org/2000/svg">
<path d="M2 4.75699C2 4.43402 2.23025 4.1722 2.51429 4.1722L4.29045 4.17189C4.64335 4.16172 4.95468 3.90656 5.07476 3.52909C5.07792 3.51916 5.08155 3.50692 5.09457 3.4625L5.1711 3.20138C5.21793 3.04128 5.25874 2.9018 5.31583 2.77712C5.54139 2.28458 5.95872 1.94255 6.44098 1.85499C6.56305 1.83282 6.69232 1.83291 6.84071 1.83302L9.15941 1.83302C9.30779 1.83291 9.43706 1.83282 9.55914 1.85499C10.0414 1.94255 10.4587 2.28458 10.6843 2.77712C10.7414 2.9018 10.7822 3.04128 10.829 3.20138L10.9055 3.4625C10.9186 3.50692 10.9222 3.51916 10.9254 3.52909C11.0454 3.90656 11.4185 4.16203 11.7714 4.1722H13.4857C13.7697 4.1722 14 4.43402 14 4.75699C14 5.07996 13.7697 5.34178 13.4857 5.34178L2.51429 5.34178C2.23025 5.34178 2 5.07996 2 4.75699Z" fill="#E84865"/>
<path fill-rule="evenodd" clip-rule="evenodd" d="M7.7304 15.1664H8.2696C10.1247 15.1664 11.0523 15.1664 11.6554 14.5758C12.2585 13.9852 12.3202 13.0164 12.4436 11.0788L12.6214 8.28683C12.6884 7.2355 12.7219 6.70983 12.4193 6.37673C12.1167 6.04362 11.6058 6.04362 10.584 6.04362L5.41603 6.04362C4.39418 6.04362 3.88325 6.04362 3.5807 6.37673C3.27815 6.70983 3.31163 7.2355 3.37858 8.28683L3.55639 11.0788C3.6798 13.0164 3.7415 13.9852 4.34459 14.5758C4.94769 15.1664 5.87526 15.1664 7.7304 15.1664ZM6.83085 8.62541C6.80337 8.33618 6.55835 8.12515 6.28358 8.15408C6.00881 8.183 5.80834 8.44092 5.83581 8.73015L6.16915 12.2389C6.19662 12.5282 6.44165 12.7392 6.71642 12.7103C6.99119 12.6813 7.19166 12.4234 7.16418 12.1342L6.83085 8.62541ZM9.71642 8.15408C9.99119 8.183 10.1917 8.44092 10.1642 8.73015L9.83085 12.2389C9.80337 12.5282 9.55835 12.7392 9.28358 12.7103C9.00881 12.6813 8.80834 12.4234 8.83581 12.1342L9.16915 8.62541C9.19662 8.33618 9.44165 8.12515 9.71642 8.15408Z" fill="#E84865"/>
</svg>
