<svg width="18" height="18" viewBox="0 0 18 18" fill="none" xmlns="http://www.w3.org/2000/svg">
<path fill-rule="evenodd" clip-rule="evenodd" d="M1.5 4.3125C1.5 4.00184 1.75184 3.75 2.0625 3.75H15.5625C15.8732 3.75 16.125 4.00184 16.125 4.3125C16.125 4.62316 15.8732 4.875 15.5625 4.875H2.0625C1.75184 4.875 1.5 4.62316 1.5 4.3125ZM1.5 7.3125C1.5 7.00184 1.75184 6.75 2.0625 6.75H15.5625C15.8732 6.75 16.125 7.00184 16.125 7.3125C16.125 7.62316 15.8732 7.875 15.5625 7.875H2.0625C1.75184 7.875 1.5 7.62316 1.5 7.3125ZM15.1585 9.49397C15.4034 9.68503 15.4471 10.0385 15.256 10.2835L12.331 14.0335C12.2266 14.1673 12.0674 14.2468 11.8977 14.2499C11.728 14.253 11.566 14.1793 11.4568 14.0493L9.88179 12.1743C9.68198 11.9364 9.71283 11.5816 9.9507 11.3818C10.1886 11.182 10.5434 11.2128 10.7432 11.4507L11.8713 12.7937L14.369 9.59154C14.56 9.34659 14.9135 9.3029 15.1585 9.49397ZM1.5 10.3125C1.5 10.0018 1.75184 9.75 2.0625 9.75H7.3125C7.62316 9.75 7.875 10.0018 7.875 10.3125C7.875 10.6232 7.62316 10.875 7.3125 10.875H2.0625C1.75184 10.875 1.5 10.6232 1.5 10.3125ZM1.5 13.3125C1.5 13.0018 1.75184 12.75 2.0625 12.75H7.3125C7.62316 12.75 7.875 13.0018 7.875 13.3125C7.875 13.6232 7.62316 13.875 7.3125 13.875H2.0625C1.75184 13.875 1.5 13.6232 1.5 13.3125Z" fill="#293642"/>
</svg>
