<svg width="20" height="20" viewBox="0 0 20 20" fill="none" xmlns="http://www.w3.org/2000/svg">
<path fill-rule="evenodd" clip-rule="evenodd" d="M13.726 7.05806C13.4819 7.30214 13.4819 7.69786 13.726 7.94194L15.1591 9.375H8.33464C7.98946 9.375 7.70964 9.65482 7.70964 10C7.70964 10.3452 7.98946 10.625 8.33464 10.625H15.1591L13.726 12.0581C13.4819 12.3021 13.4819 12.6979 13.726 12.9419C13.9701 13.186 14.3658 13.186 14.6099 12.9419L17.1099 10.4419C17.354 10.1979 17.354 9.80214 17.1099 9.55806L14.6099 7.05806C14.3658 6.81398 13.9701 6.81398 13.726 7.05806Z" fill="#E84865"/>
<path d="M3.33203 9.99967C3.33203 13.6816 6.3168 16.6663 9.9987 16.6663V13.5413C9.9987 12.7557 9.9987 12.3628 9.75462 12.1188C9.51054 11.8747 9.11771 11.8747 8.33203 11.8747Lnan nanL8.33203 11.8747C7.2965 11.8747 6.45703 11.0352 6.45703 9.99967C6.45703 8.96414 7.2965 8.12467 8.33203 8.12467Lnan nanL8.33203 8.12467C9.11771 8.12467 9.51054 8.12467 9.75462 7.8806C9.9987 7.63652 9.9987 7.24368 9.9987 6.45801V3.33301C6.3168 3.33301 3.33203 6.31778 3.33203 9.99967Z" fill="#E84865"/>
</svg>
