<svg width="36" height="36" viewBox="0 0 36 36" fill="none" xmlns="http://www.w3.org/2000/svg">
<rect x="0.5" y="0.5" width="35" height="35" rx="7.5" stroke="#E8ECEE"/>
<path fill-rule="evenodd" clip-rule="evenodd" d="M18.0002 8.59375C14.255 8.59375 11.2189 11.6298 11.2189 15.375V15.9911C11.2189 16.6009 11.0384 17.1971 10.7001 17.7044L9.69512 19.212C8.52866 20.9617 9.41915 23.3399 11.4479 23.8932C12.1091 24.0736 12.7758 24.2261 13.4464 24.3508L13.4481 24.3553C14.121 26.1507 15.9194 27.4062 18.0001 27.4062C20.0808 27.4062 21.8792 26.1507 22.5521 24.3553L22.5538 24.3508C23.2244 24.2261 23.8912 24.0736 24.5524 23.8932C26.5812 23.3399 27.4717 20.9617 26.3052 19.212L25.3002 17.7044C24.9619 17.1971 24.7814 16.6009 24.7814 15.9911V15.375C24.7814 11.6298 21.7453 8.59375 18.0002 8.59375ZM20.9545 24.5948C18.9919 24.8293 17.0083 24.8293 15.0457 24.5948C15.6678 25.4887 16.7498 26.0938 18.0001 26.0938C19.2504 26.0938 20.3324 25.4887 20.9545 24.5948ZM12.5314 15.375C12.5314 12.3547 14.9798 9.90625 18.0002 9.90625C21.0205 9.90625 23.4689 12.3547 23.4689 15.375V15.9911C23.4689 16.86 23.7261 17.7095 24.2081 18.4325L25.2131 19.94C25.8827 20.9443 25.3715 22.3094 24.2071 22.627C20.1433 23.7353 15.857 23.7353 11.7933 22.627C10.6288 22.3094 10.1177 20.9443 10.7872 19.94L11.7922 18.4325C12.2742 17.7095 12.5314 16.86 12.5314 15.9911V15.375Z" fill="#5578A0"/>
<circle cx="23.5" cy="11.5" r="3" fill="#E8BC0F" stroke="#F8F9FB"/>
</svg>
