<svg width="15" height="16" viewBox="0 0 15 16" fill="none" xmlns="http://www.w3.org/2000/svg">
<path fill-rule="evenodd" clip-rule="evenodd" d="M8.70911 0.614181C8.43135 0.5 8.07923 0.5 7.375 0.5C6.67077 0.5 6.31865 0.5 6.04089 0.614181C5.67055 0.766422 5.37632 1.05843 5.22292 1.42597C5.15289 1.59376 5.12549 1.78888 5.11476 2.07349C5.099 2.49176 4.88287 2.87892 4.51762 3.0882C4.15238 3.29747 3.70648 3.28965 3.33361 3.09407C3.07989 2.96098 2.89592 2.88697 2.71449 2.86326C2.31707 2.81134 1.91514 2.91822 1.59712 3.1604C1.3586 3.34203 1.18254 3.64467 0.830427 4.24995C0.47831 4.85522 0.302252 5.15786 0.26301 5.45368C0.210688 5.8481 0.318386 6.24699 0.56241 6.56261C0.673791 6.70667 0.83033 6.82777 1.07328 6.97927C1.43044 7.20199 1.66024 7.58139 1.66022 8.00002C1.6602 8.41859 1.4304 8.79795 1.07328 9.02064C0.830287 9.17216 0.673729 9.29327 0.562336 9.43734C0.318312 9.75296 0.210614 10.1518 0.262936 10.5463C0.302178 10.8421 0.478236 11.1447 0.830353 11.75C1.18247 12.3553 1.35853 12.6579 1.59704 12.8395C1.91506 13.0817 2.31699 13.1886 2.71442 13.1367C2.89583 13.113 3.07979 13.039 3.3335 12.9059C3.70639 12.7103 4.15233 12.7025 4.51759 12.9118C4.88286 13.1211 5.099 13.5083 5.11476 13.9265C5.12549 14.2111 5.15289 14.4063 5.22292 14.574C5.37632 14.9416 5.67055 15.2336 6.04089 15.3858C6.31865 15.5 6.67077 15.5 7.375 15.5C8.07923 15.5 8.43135 15.5 8.70911 15.3858C9.07945 15.2336 9.37368 14.9416 9.52708 14.574C9.59711 14.4062 9.62451 14.2111 9.63524 13.9265C9.651 13.5082 9.86711 13.1211 10.2323 12.9118C10.5976 12.7025 11.0435 12.7103 11.4165 12.9059C11.6701 13.0389 11.8541 13.1129 12.0355 13.1366C12.4329 13.1886 12.8349 13.0817 13.1529 12.8395C13.3914 12.6579 13.5675 12.3552 13.9196 11.7499C14.2717 11.1447 14.4477 10.842 14.487 10.5462C14.5393 10.1518 14.4316 9.7529 14.1876 9.43729C14.0762 9.29322 13.9197 9.17211 13.6767 9.0206C13.3195 8.7979 13.0898 8.41852 13.0898 7.99993C13.0898 7.58139 13.3196 7.20206 13.6767 6.97939C13.9197 6.82786 14.0763 6.70674 14.1877 6.56266C14.4317 6.24705 14.5394 5.84815 14.4871 5.45373C14.4478 5.15791 14.2718 4.85528 13.9196 4.25C13.5675 3.64472 13.3915 3.34209 13.153 3.16045C12.8349 2.91827 12.433 2.81139 12.0356 2.86331C11.8542 2.88702 11.6702 2.96102 11.4165 3.0941C11.0436 3.28969 10.5977 3.29751 10.2324 3.08822C9.86714 2.87893 9.651 2.49175 9.63523 2.07345C9.62451 1.78886 9.5971 1.59375 9.52708 1.42597C9.37368 1.05843 9.07945 0.766422 8.70911 0.614181ZM7.375 10.25C8.6271 10.25 9.64213 9.24264 9.64213 8C9.64213 6.75736 8.6271 5.75 7.375 5.75C6.1229 5.75 5.10787 6.75736 5.10787 8C5.10787 9.24264 6.1229 10.25 7.375 10.25Z" fill="#293642"/>
</svg>
