<svg width="20" height="20" viewBox="0 0 20 20" fill="none" xmlns="http://www.w3.org/2000/svg">
<path fill-rule="evenodd" clip-rule="evenodd" d="M18.3346 10.0003C18.3346 14.6027 14.6037 18.3337 10.0013 18.3337C5.39893 18.3337 1.66797 14.6027 1.66797 10.0003C1.66797 5.39795 5.39893 1.66699 10.0013 1.66699C14.6037 1.66699 18.3346 5.39795 18.3346 10.0003ZM12.5013 7.50033C12.5013 8.88104 11.382 10.0003 10.0013 10.0003C8.62059 10.0003 7.5013 8.88104 7.5013 7.50033C7.5013 6.11961 8.62059 5.00033 10.0013 5.00033C11.382 5.00033 12.5013 6.11961 12.5013 7.50033ZM10.0013 17.0837C11.488 17.0837 12.8677 16.6256 14.0071 15.843C14.5103 15.4973 14.7253 14.8389 14.4328 14.303C13.8263 13.1922 12.5765 12.5003 10.0012 12.5003C7.42604 12.5003 6.17627 13.1922 5.56975 14.303C5.27717 14.8388 5.49222 15.4973 5.99543 15.8429C7.13479 16.6256 8.51455 17.0837 10.0013 17.0837Z" fill="#4849E8"/>
</svg>
