<svg width="24" height="24" viewBox="0 0 24 24" fill="none" xmlns="http://www.w3.org/2000/svg">
<path d="M18.6 6.62112C17.16 6.62112 15.8 7.18112 14.83 8.15112L12 10.6611L10.48 12.0011H10.49L7.8 14.3911C7.16 15.0311 6.31 15.3811 5.4 15.3811C3.53 15.3811 2.01 13.8711 2.01 12.0011C2.01 10.1311 3.53 8.62112 5.4 8.62112C6.31 8.62112 7.16 8.97112 7.84 9.65112L8.97 10.6511L10.48 9.31112L9.22 8.20112C8.71923 7.69845 8.1238 7.3 7.46813 7.02881C6.81246 6.75761 6.10954 6.61905 5.4 6.62112C2.42 6.62112 0 9.04112 0 12.0011C0 14.9611 2.42 17.3811 5.4 17.3811C6.84 17.3811 8.2 16.8211 9.17 15.8511L12 13.3511L12.01 13.3611L13.52 12.0011H13.51L16.2 9.61112C16.84 8.97112 17.69 8.62112 18.6 8.62112C20.47 8.62112 21.99 10.1311 21.99 12.0011C21.99 13.8711 20.47 15.3811 18.6 15.3811C17.7 15.3811 16.84 15.0311 16.16 14.3511L15.02 13.3411L13.51 14.6811L14.78 15.8011C15.2821 16.3013 15.878 16.6974 16.5335 16.9668C17.189 17.2362 17.8913 17.3736 18.6 17.3711C21.58 17.3711 24 14.9611 24 11.9911C24 9.02112 21.58 6.62112 18.6 6.62112Z" fill="#F04152"/>
</svg>
