<svg width="87" height="32" viewBox="0 0 87 32" fill="none" xmlns="http://www.w3.org/2000/svg">
<path d="M8.21855 1.22437H7.16255C5.86655 1.22437 4.81055 2.16837 4.81055 3.54437V4.84037C4.81055 6.21637 5.86655 7.16036 7.16255 7.16036H8.21855C9.55455 7.16036 10.5705 6.21637 10.5705 4.84037V3.54437C10.5705 2.16037 9.54655 1.22437 8.21855 1.22437Z" fill="#696969"/>
<path d="M25.923 9.50464C22.627 9.50464 20.547 11.2326 19.523 13.1526L19.363 10.0086H14.459V30.2646H19.563V19.0406C19.563 15.6646 21.371 13.7046 24.075 13.7046C26.779 13.7046 27.883 15.4326 27.883 18.5366V30.2726H32.947V17.2406C32.947 12.6806 30.947 9.50464 25.923 9.50464Z" fill="#696969"/>
<path d="M1.85938 14.1764H5.23537V30.2724H10.3394V10.0164H1.85938V14.1764Z" fill="#696969"/>
<path d="M59.2518 9.50464C52.8918 9.50464 48.9238 13.7046 48.9238 19.8646V20.3766C48.9238 26.6166 52.8118 30.7766 59.2518 30.7766C64.4758 30.7766 67.9638 28.1046 68.9478 23.8646H63.8838C63.2918 25.5926 61.8438 26.8086 59.2518 26.8086C56.1878 26.8086 54.4198 24.9606 54.1478 21.3526H69.0678C69.4198 14.3366 66.0438 9.50464 59.2518 9.50464ZM54.2678 17.8646C54.7398 14.9206 56.3878 13.4646 59.2118 13.4646C62.0758 13.4646 63.5718 15.1126 63.8438 17.8646H54.2678Z" fill="#696969"/>
<path d="M41.6196 24.0644V14.1764H46.9556V10.0164H41.6196V3.14441H36.5156V24.5764C36.5156 28.6564 38.7556 30.7764 43.4676 30.7764C44.6436 30.7764 46.0996 30.5764 47.0436 30.2644V26.2964C46.4916 26.4964 45.5556 26.7284 44.6116 26.7284C42.3716 26.7364 41.6196 25.9124 41.6196 24.0644Z" fill="#696969"/>
<path d="M83.3562 9.66479C80.4122 9.66479 78.3322 11.3928 77.3482 13.9448L77.2282 10.0168H72.3242V30.2728H77.4282V20.2248C77.4282 16.3368 79.1962 14.1768 83.0842 14.1768C83.5962 14.1768 84.1802 14.2168 84.5402 14.2568V9.78479C84.2202 9.70479 83.7082 9.66479 83.3562 9.66479Z" fill="#696969"/>
</svg>
