<svg width="156" height="29" viewBox="0 0 156 29" fill="none" xmlns="http://www.w3.org/2000/svg">
<g clip-path="url(#clip0_10169_250631)">
<path d="M10.9821 23.968C7.99589 26.9542 2.93845 26.9423 1.52604 22.9624C1.24951 22.1832 1.02842 21.382 0.8658 20.5645C0.201847 17.2265 0.542612 13.7667 1.84501 10.6224C3.1474 7.4782 5.35292 4.79076 8.18267 2.89998C11.0125 1.0092 14.3394 -1.45785e-07 17.7427 0C21.146 1.45785e-07 24.4729 1.0092 27.3026 2.89998C30.1324 4.79076 32.3379 7.4782 33.6403 10.6225C34.9427 13.7667 35.2834 17.2265 34.6195 20.5645C34.4569 21.382 34.2358 22.1832 33.9592 22.9624C32.5468 26.9423 27.4894 26.9542 24.5032 23.968L19.8936 19.3584C19.4532 18.918 19.4987 18.1917 19.6202 17.5809C19.694 17.2096 19.6561 16.8247 19.5112 16.4749C19.3663 16.1251 19.121 15.8261 18.8062 15.6158C18.4914 15.4055 18.1213 15.2932 17.7427 15.2932C17.3641 15.2932 16.994 15.4055 16.6792 15.6158C16.3643 15.8261 16.119 16.1251 15.9741 16.4749C15.8292 16.8247 15.7913 17.2096 15.8652 17.5809C15.9867 18.1917 16.0321 18.918 15.5917 19.3584L10.9821 23.968Z" fill="#8F8F8F"/>
<path d="M48.949 19.8363H53.5743V22.562H45.418V8.06641H48.949V19.8363Z" fill="#8F8F8F"/>
<path d="M59.8844 22.7276C58.7556 22.7276 57.7369 22.4867 56.8283 22.0049C55.9336 21.5231 55.2246 20.8348 54.7015 19.94C54.1922 19.0452 53.9375 17.999 53.9375 16.8013C53.9375 15.6175 54.199 14.5781 54.7221 13.6833C55.2453 12.7748 55.9611 12.0796 56.8696 11.5978C57.7782 11.116 58.7969 10.8751 59.9257 10.8751C61.0545 10.8751 62.0732 11.116 62.9817 11.5978C63.8903 12.0796 64.6061 12.7748 65.1292 13.6833C65.6523 14.5781 65.9139 15.6175 65.9139 16.8013C65.9139 17.9852 65.6454 19.0314 65.1086 19.94C64.5855 20.8348 63.8628 21.5231 62.9404 22.0049C62.0319 22.4867 61.0132 22.7276 59.8844 22.7276ZM59.8844 19.6715C60.5589 19.6715 61.1302 19.4238 61.5983 18.9282C62.0801 18.4326 62.321 17.7237 62.321 16.8013C62.321 15.879 62.0869 15.1701 61.6189 14.6745C61.1646 14.1789 60.6002 13.9311 59.9257 13.9311C59.2374 13.9311 58.6661 14.1789 58.2118 14.6745C57.7575 15.1563 57.5304 15.8652 57.5304 16.8013C57.5304 17.7237 57.7507 18.4326 58.1912 18.9282C58.6455 19.4238 59.2099 19.6715 59.8844 19.6715Z" fill="#8F8F8F"/>
<path d="M71.5444 10.875C72.3566 10.875 73.0656 11.0402 73.6713 11.3706C74.2907 11.7009 74.7657 12.1346 75.0961 12.6714V11.0402H78.627V22.5416C78.627 23.6016 78.4137 24.5584 77.9869 25.4118C77.5739 26.2791 76.9338 26.9674 76.0666 27.4767C75.2131 27.9861 74.1462 28.2408 72.866 28.2408C71.159 28.2408 69.7755 27.8347 68.7155 27.0225C67.6556 26.224 67.0498 25.1365 66.8984 23.7599H70.3881C70.4982 24.2004 70.7598 24.5446 71.1728 24.7924C71.5857 25.0539 72.0951 25.1847 72.7008 25.1847C73.4304 25.1847 74.0085 24.9713 74.4353 24.5446C74.8758 24.1316 75.0961 23.464 75.0961 22.5416V20.9104C74.7519 21.4472 74.277 21.8878 73.6713 22.2319C73.0656 22.5623 72.3566 22.7275 71.5444 22.7275C70.5946 22.7275 69.7342 22.4866 68.9633 22.0048C68.1924 21.5092 67.5798 20.814 67.1256 19.9192C66.6851 19.0107 66.4648 17.9645 66.4648 16.7806C66.4648 15.5967 66.6851 14.5574 67.1256 13.6626C67.5798 12.7678 68.1924 12.0795 68.9633 11.5977C69.7342 11.1159 70.5946 10.875 71.5444 10.875ZM75.0961 16.8012C75.0961 15.9202 74.8483 15.225 74.3527 14.7157C73.8709 14.2064 73.2789 13.9517 72.5769 13.9517C71.8748 13.9517 71.276 14.2064 70.7804 14.7157C70.2986 15.2113 70.0577 15.8996 70.0577 16.7806C70.0577 17.6616 70.2986 18.3637 70.7804 18.8868C71.276 19.3961 71.8748 19.6508 72.5769 19.6508C73.2789 19.6508 73.8709 19.3961 74.3527 18.8868C74.8483 18.3774 75.0961 17.6823 75.0961 16.8012Z" fill="#8F8F8F"/>
<path d="M85.8082 22.7275C84.6794 22.7275 83.6607 22.4866 82.7522 22.0048C81.8574 21.523 81.1484 20.8347 80.6253 19.9399C80.116 19.0451 79.8613 17.9989 79.8613 16.8012C79.8613 15.6174 80.1228 14.578 80.646 13.6832C81.1691 12.7747 81.8849 12.0795 82.7934 11.5977C83.702 11.1159 84.7207 10.875 85.8495 10.875C86.9783 10.875 87.997 11.1159 88.9055 11.5977C89.8141 12.0795 90.5299 12.7747 91.053 13.6832C91.5761 14.578 91.8377 15.6174 91.8377 16.8012C91.8377 17.9851 91.5693 19.0313 91.0324 19.9399C90.5093 20.8347 89.7866 21.523 88.8642 22.0048C87.9557 22.4866 86.937 22.7275 85.8082 22.7275ZM85.8082 19.6714C86.4827 19.6714 87.054 19.4237 87.5221 18.9281C88.0039 18.4325 88.2448 17.7236 88.2448 16.8012C88.2448 15.8789 88.0107 15.17 87.5427 14.6744C87.0884 14.1788 86.524 13.931 85.8495 13.931C85.1612 13.931 84.5899 14.1788 84.1356 14.6744C83.6814 15.1562 83.4542 15.8651 83.4542 16.8012C83.4542 17.7236 83.6745 18.4325 84.115 18.9281C84.5693 19.4237 85.1337 19.6714 85.8082 19.6714Z" fill="#8F8F8F"/>
<path d="M94.8679 9.84252C94.2484 9.84252 93.7391 9.66356 93.3399 9.30565C92.9544 8.93397 92.7617 8.47969 92.7617 7.94282C92.7617 7.39218 92.9544 6.9379 93.3399 6.57998C93.7391 6.2083 94.2484 6.02246 94.8679 6.02246C95.4736 6.02246 95.9692 6.2083 96.3546 6.57998C96.7538 6.9379 96.9534 7.39218 96.9534 7.94282C96.9534 8.47969 96.7538 8.93397 96.3546 9.30565C95.9692 9.66356 95.4736 9.84252 94.8679 9.84252ZM96.623 11.0402V22.5623H93.0921V11.0402H96.623Z" fill="#8F8F8F"/>
<path d="M102.091 12.6714C102.435 12.1346 102.91 11.7009 103.516 11.3706C104.122 11.0402 104.831 10.875 105.643 10.875C106.593 10.875 107.453 11.1159 108.224 11.5977C108.995 12.0795 109.601 12.7678 110.041 13.6626C110.495 14.5574 110.723 15.5967 110.723 16.7806C110.723 17.9645 110.495 19.0107 110.041 19.9192C109.601 20.814 108.995 21.5092 108.224 22.0048C107.453 22.4866 106.593 22.7275 105.643 22.7275C104.844 22.7275 104.136 22.5623 103.516 22.2319C102.91 21.9015 102.435 21.4748 102.091 20.9517V28.0549H98.5605V11.0402H102.091V12.6714ZM107.13 16.7806C107.13 15.8996 106.882 15.2113 106.386 14.7157C105.904 14.2064 105.306 13.9517 104.59 13.9517C103.888 13.9517 103.289 14.2064 102.793 14.7157C102.312 15.225 102.071 15.9202 102.071 16.8012C102.071 17.6823 102.312 18.3774 102.793 18.8868C103.289 19.3961 103.888 19.6508 104.59 19.6508C105.292 19.6508 105.891 19.3961 106.386 18.8868C106.882 18.3637 107.13 17.6616 107.13 16.7806Z" fill="#8F8F8F"/>
<path d="M116.645 22.7275C115.64 22.7275 114.745 22.5554 113.96 22.2113C113.176 21.8671 112.556 21.3991 112.102 20.8071C111.648 20.2014 111.393 19.5269 111.338 18.7835H114.828C114.869 19.1827 115.055 19.5062 115.385 19.754C115.716 20.0018 116.122 20.1257 116.604 20.1257C117.044 20.1257 117.381 20.0431 117.615 19.8779C117.863 19.699 117.987 19.4718 117.987 19.1965C117.987 18.8661 117.815 18.6252 117.471 18.4738C117.127 18.3086 116.569 18.1297 115.798 17.9369C114.972 17.7442 114.284 17.5446 113.733 17.3381C113.183 17.1179 112.708 16.7806 112.309 16.3263C111.909 15.8583 111.71 15.2319 111.71 14.4473C111.71 13.7865 111.889 13.1877 112.247 12.6508C112.618 12.1002 113.155 11.6665 113.857 11.3499C114.573 11.0333 115.42 10.875 116.397 10.875C117.842 10.875 118.978 11.2329 119.804 11.9487C120.644 12.6646 121.126 13.6144 121.25 14.7983H117.987C117.932 14.3991 117.753 14.0825 117.45 13.8484C117.161 13.6144 116.776 13.4974 116.294 13.4974C115.881 13.4974 115.564 13.58 115.344 13.7452C115.124 13.8966 115.014 14.11 115.014 14.3853C115.014 14.7157 115.186 14.9635 115.53 15.1287C115.888 15.2939 116.438 15.4591 117.182 15.6242C118.035 15.8445 118.73 16.0648 119.267 16.285C119.804 16.4915 120.272 16.8356 120.671 17.3175C121.084 17.7855 121.298 18.4187 121.312 19.2172C121.312 19.8917 121.119 20.4974 120.733 21.0343C120.362 21.5574 119.818 21.9704 119.102 22.2732C118.4 22.5761 117.581 22.7275 116.645 22.7275Z" fill="#8F8F8F"/>
<path d="M134.229 11.04V22.5621H130.698V20.9928C130.34 21.5021 129.851 21.9151 129.232 22.2317C128.626 22.5346 127.952 22.686 127.208 22.686C126.327 22.686 125.549 22.4933 124.875 22.1078C124.2 21.7086 123.677 21.1373 123.306 20.394C122.934 19.6506 122.748 18.7765 122.748 17.7715V11.04H126.258V17.2966C126.258 18.0675 126.458 18.6663 126.857 19.0931C127.256 19.5198 127.793 19.7332 128.468 19.7332C129.156 19.7332 129.7 19.5198 130.099 19.0931C130.498 18.6663 130.698 18.0675 130.698 17.2966V11.04H134.229Z" fill="#8F8F8F"/>
<path d="M150.848 10.916C152.279 10.916 153.415 11.3496 154.255 12.2169C155.108 13.0841 155.535 14.2886 155.535 15.8304V22.562H152.025V16.3054C152.025 15.562 151.825 14.9907 151.426 14.5915C151.04 14.1785 150.504 13.972 149.815 13.972C149.127 13.972 148.583 14.1785 148.184 14.5915C147.799 14.9907 147.606 15.562 147.606 16.3054V22.562H144.095V16.3054C144.095 15.562 143.896 14.9907 143.497 14.5915C143.111 14.1785 142.574 13.972 141.886 13.972C141.198 13.972 140.654 14.1785 140.255 14.5915C139.869 14.9907 139.677 15.562 139.677 16.3054V22.562H136.146V11.0399H139.677V12.4853C140.035 12.0035 140.503 11.6249 141.081 11.3496C141.659 11.0605 142.313 10.916 143.042 10.916C143.91 10.916 144.681 11.1018 145.355 11.4735C146.043 11.8452 146.58 12.3752 146.966 13.0635C147.365 12.4302 147.909 11.914 148.597 11.5148C149.285 11.1156 150.036 10.916 150.848 10.916Z" fill="#8F8F8F"/>
</g>
<defs>
<clipPath id="clip0_10169_250631">
<rect width="155" height="29" fill="white" transform="translate(0.535156)"/>
</clipPath>
</defs>
</svg>
