<svg width="130" height="32" viewBox="0 0 130 32" fill="none" xmlns="http://www.w3.org/2000/svg">
<g clip-path="url(#clip0_10169_250680)">
<path d="M12.1624 8.57323C12.088 8.4703 12.0033 8.41602 11.9089 8.41602C11.8312 8.41602 11.7605 8.45221 11.7147 8.48331C10.9994 9.07257 10.0209 11.567 9.21875 14.8549L9.92864 14.8634C11.3311 14.8798 12.779 14.8973 14.2106 14.9205C13.8335 13.4145 13.4764 12.124 13.1495 11.0818C12.6716 9.5589 12.349 8.8769 12.1624 8.57323Z" fill="#696969"/>
<path d="M13.7559 2.23438C6.33774 2.23438 0.324219 8.53865 0.324219 16.3155C0.324219 24.0923 6.33774 30.3966 13.7559 30.3966C21.1741 30.3966 27.1876 24.0923 27.1876 16.3155C27.1876 8.53865 21.1741 2.23438 13.7559 2.23438ZM23.4144 16.5711C23.4133 16.5722 23.4122 16.5728 23.4111 16.5739C23.3966 16.5864 23.382 16.5977 23.3663 16.609C23.3615 16.6124 23.3566 16.6163 23.3512 16.6197C23.341 16.6265 23.3302 16.6333 23.32 16.6395C23.3102 16.6458 23.3005 16.6514 23.2908 16.6571C23.2903 16.6576 23.2898 16.6576 23.2892 16.6582C23.1905 16.7125 23.0778 16.7436 22.9585 16.7436C22.9488 16.7436 16.596 16.7436 16.596 16.7436C16.6467 16.9647 16.7023 17.2158 16.7627 17.4889C17.1112 19.0673 18.0379 23.2605 19.0218 23.2605L19.0412 23.2611L19.052 23.2594H19.0709C19.8396 23.2594 20.2317 22.0944 21.0916 19.5417L21.1018 19.5106C21.2399 19.1006 21.3958 18.638 21.5647 18.1489L21.6078 18.0239H21.6084C21.6521 17.9017 21.7643 17.8147 21.8964 17.8147C22.0663 17.8147 22.2044 17.9594 22.2044 18.1376C22.2044 18.1698 22.1996 18.2009 22.1915 18.2303L22.1559 18.3558C22.0663 18.6595 21.9709 19.0735 21.8608 19.5525C21.3484 21.7789 20.5743 25.1425 18.5881 25.1425H18.5735C17.2903 25.1317 16.5221 22.9811 16.1941 22.0627C15.5808 20.3453 15.1169 18.5153 14.6692 16.743H8.81209L7.59622 20.8226L7.57842 20.8079C7.4673 20.9911 7.27203 21.1087 7.0568 21.1087C6.7175 21.1087 6.43969 20.8192 6.43808 20.4635L6.43915 20.4414L6.51252 19.98C6.68028 18.9315 6.88148 17.8435 7.11128 16.7436H4.63855L4.62938 16.734C4.18058 16.6661 3.83588 16.251 3.83588 15.767C3.83588 15.2925 4.1563 14.8882 4.59755 14.8062C4.63801 14.8005 4.72 14.7932 4.88669 14.7932C4.92229 14.7932 4.96221 14.7932 5.00698 14.7943C5.79076 14.8084 6.62256 14.8214 7.53473 14.8339C8.82558 9.33488 10.3209 6.54354 11.9796 6.53562C13.7592 6.53562 15.0797 10.7837 16.1364 14.9396L16.1407 14.956C18.3119 15.0018 20.6261 15.068 22.876 15.2371L22.9704 15.2461C23.0066 15.2467 23.0422 15.2506 23.0767 15.2563L23.0896 15.2574C23.0934 15.258 23.0972 15.2591 23.101 15.2603C23.1031 15.2608 23.1047 15.2614 23.1069 15.2614C23.4343 15.3304 23.6771 15.6312 23.6771 15.9932C23.6771 16.225 23.5746 16.4337 23.4144 16.5711Z" fill="#696969"/>
<path d="M34.6409 19.8389L33.576 22.5975H30.4824L36.3686 8.19342H39.1008L44.9666 22.598H41.8929L40.8281 19.8395H34.6409V19.8389ZM37.7145 11.8364L35.7057 17.0804H39.7632L37.7145 11.8364Z" fill="#696969"/>
<path d="M62.4019 17.0594V22.598H59.6098V17.3122C59.6098 15.7118 58.8665 14.8483 57.5611 14.8483C56.9785 14.8483 56.3355 15.122 55.7529 15.9646C55.7934 16.3225 55.8333 16.6805 55.8333 17.0594V22.598H53.0412V17.3122C53.0412 15.7118 52.2979 14.8483 50.972 14.8483C50.4299 14.8483 49.8268 15.1853 49.2647 15.9855V22.598H46.4727V12.5105H49.2647V13.1212C49.8673 12.5314 50.5103 12.1943 51.635 12.1943C52.8605 12.1943 53.9448 12.6999 54.7086 13.6262C55.733 12.6366 56.6975 12.1943 58.2041 12.1943C60.5538 12.1943 62.4019 14.1108 62.4019 17.0594Z" fill="#696969"/>
<path d="M74.6758 17.5647C74.6758 20.4917 72.5467 22.8081 69.8948 22.8081C68.81 22.8081 67.906 22.5134 67.1632 22.0079V27.4622H64.3711V12.5102H67.1632V13.1C67.9065 12.5944 68.8106 12.2998 69.8948 12.2998C72.5461 12.3004 74.6758 14.5958 74.6758 17.5647ZM71.9236 17.5647C71.9236 16.0695 70.8793 14.7637 69.4325 14.7637C68.6088 14.7637 67.7851 15.0583 67.1626 15.9428V19.1651C67.7851 20.0286 68.6088 20.3232 69.4325 20.3232C70.8787 20.3238 71.9236 19.0389 71.9236 17.5647Z" fill="#696969"/>
<path d="M79.0343 22.5969H76.2422V7.64551H79.0343V22.5969Z" fill="#696969"/>
<path d="M81.5449 8.95173C81.5449 7.96209 82.2883 7.22467 83.2322 7.22467C84.1563 7.22467 84.8996 7.96152 84.8996 8.95173C84.8996 9.92044 84.1563 10.6364 83.2322 10.6364C82.2883 10.6364 81.5449 9.92044 81.5449 8.95173ZM84.6385 12.5105V22.598H81.8465V12.5105H84.6385Z" fill="#696969"/>
<path d="M94.7817 22.4502C93.6165 22.8291 93.0944 22.9134 92.1903 22.9134C89.86 22.9134 88.3335 21.1863 88.3335 18.5754V14.9742H86.3047V12.5103H88.3335V8.90918H91.1055V12.5103H94.5805V14.9742H91.1055V18.5544C91.1055 19.6917 91.7685 20.2182 92.7928 20.2182C93.315 20.2182 93.8776 20.0921 94.4197 19.9445L94.7817 22.4502Z" fill="#696969"/>
<path d="M105.991 22.5974H103.199V21.8815C102.416 22.5341 101.532 22.9136 100.447 22.9136C97.9158 22.9136 96.2285 20.9971 96.2285 18.07V12.5105H99.0206V17.7963C99.0206 19.3967 99.7839 20.2602 101.09 20.2602C101.793 20.2602 102.556 19.818 103.199 18.9969V12.5105H105.991V22.5974Z" fill="#696969"/>
<path d="M117.845 22.5969H115.053V22.0071C114.309 22.5127 113.405 22.8073 112.32 22.8073C109.669 22.8073 107.52 20.5119 107.52 17.5424C107.52 14.6154 109.669 12.2985 112.32 12.2985C113.405 12.2985 114.309 12.5931 115.053 13.0987V7.64551H117.845V22.5969ZM115.052 19.1649V15.9426C114.43 15.0791 113.606 14.7845 112.782 14.7845C111.316 14.7845 110.291 16.0693 110.291 17.543C110.291 19.0382 111.315 20.344 112.782 20.344C113.606 20.344 114.43 20.0493 115.052 19.1649Z" fill="#696969"/>
<path d="M129.173 18.3018H122.082C122.303 19.4809 123.047 20.4078 124.573 20.4078C125.357 20.4078 125.899 20.155 126.2 19.6494H129.113C128.591 21.5868 126.783 22.9135 124.513 22.9135C121.419 22.9135 119.33 20.5763 119.33 17.5644C119.33 14.4479 121.399 12.1943 124.433 12.1943C127.185 12.1943 129.233 14.2369 129.233 17.354C129.233 17.7753 129.213 18.0066 129.173 18.3018ZM122.102 16.5747H126.461C126.301 15.3114 125.577 14.6164 124.452 14.6164C123.107 14.6164 122.363 15.4375 122.102 16.5747Z" fill="#696969"/>
</g>
<defs>
<clipPath id="clip0_10169_250680">
<rect width="129.333" height="32" fill="white"/>
</clipPath>
</defs>
</svg>
