<svg width="74" height="32" viewBox="0 0 74 32" fill="none" xmlns="http://www.w3.org/2000/svg">
<g clip-path="url(#clip0_10169_250657)">
<path fill-rule="evenodd" clip-rule="evenodd" d="M45.2906 25.2049C41.0482 28.3319 34.8992 30.0002 29.6049 30.0002C22.1816 30.0002 15.4986 27.2546 10.4427 22.6881C10.0455 22.329 10.4014 21.8396 10.8781 22.1192C16.3344 25.2939 23.0809 27.2037 30.0498 27.2037C34.7498 27.2037 39.9201 26.2313 44.6741 24.2134C45.3923 23.9083 45.9929 24.6837 45.2906 25.2049Z" fill="#696969"/>
<path fill-rule="evenodd" clip-rule="evenodd" d="M47.0543 23.187C46.5141 22.4942 43.4698 22.8597 42.1033 23.0218C41.687 23.0726 41.6235 22.7103 41.9985 22.4498C44.4231 20.7433 48.4017 21.2358 48.8657 21.8078C49.3296 22.383 48.7449 26.3712 46.4664 28.2747C46.1169 28.567 45.7832 28.4113 45.9389 28.0236C46.4506 26.7462 47.5977 23.883 47.0543 23.187Z" fill="#696969"/>
<path fill-rule="evenodd" clip-rule="evenodd" d="M42.1982 10.4024V8.74361C42.1982 8.49256 42.3889 8.32414 42.6177 8.32414H50.0442C50.2826 8.32414 50.4732 8.49574 50.4732 8.74361V10.1641C50.47 10.4024 50.2698 10.7139 49.9139 11.2064L46.0656 16.7008C47.4956 16.6659 49.0051 16.8788 50.3016 17.6097C50.594 17.7749 50.6734 18.0165 50.6957 18.2548V20.0248C50.6957 20.2664 50.4287 20.5492 50.1491 20.403C47.8642 19.205 44.8294 19.0747 42.3031 20.4157C42.0457 20.5555 41.7756 20.2759 41.7756 20.0344V18.3533C41.7756 18.0832 41.7787 17.6224 42.0488 17.2125L46.5073 10.8187H42.6272C42.3889 10.8187 42.1982 10.6503 42.1982 10.4024Z" fill="#696969"/>
<path fill-rule="evenodd" clip-rule="evenodd" d="M15.1073 20.7526H12.8479C12.6318 20.7367 12.4602 20.5746 12.4443 20.3681V8.77223C12.4443 8.54025 12.6382 8.35594 12.8797 8.35594H14.9866C15.2059 8.36547 15.3806 8.5339 15.3965 8.74363V10.2594H15.4378C15.9876 8.79448 17.0204 8.11125 18.4123 8.11125C19.8264 8.11125 20.7098 8.79448 21.3454 10.2594C21.892 8.79448 23.1345 8.11125 24.466 8.11125C25.413 8.11125 26.4489 8.50212 27.0813 9.37919C27.7963 10.3548 27.6502 11.7721 27.6502 13.0146L27.647 20.3331C27.647 20.5651 27.4531 20.7526 27.2116 20.7526H24.9554C24.7298 20.7367 24.5486 20.5556 24.5486 20.3331V14.1872C24.5486 13.6978 24.5931 12.4776 24.4851 12.0136C24.3166 11.235 23.8114 11.0158 23.1567 11.0158C22.6102 11.0158 22.0381 11.3812 21.8062 11.9659C21.5742 12.5506 21.5964 13.5294 21.5964 14.1872V20.3331C21.5964 20.5651 21.4026 20.7526 21.1611 20.7526H18.9048C18.676 20.7367 18.4981 20.5556 18.4981 20.3331L18.4949 14.1872C18.4949 12.8939 18.7078 10.9903 17.103 10.9903C15.4791 10.9903 15.5427 12.8462 15.5427 14.1872V20.3331C15.5427 20.5651 15.3489 20.7526 15.1073 20.7526Z" fill="#696969"/>
<path fill-rule="evenodd" clip-rule="evenodd" d="M56.8669 8.11125C60.2195 8.11125 62.034 10.9903 62.034 14.6512C62.034 18.1881 60.0288 20.9941 56.8669 20.9941C53.5747 20.9941 51.7824 18.115 51.7824 14.5272C51.7824 10.9173 53.5969 8.11125 56.8669 8.11125ZM56.886 10.4787C55.2208 10.4787 55.1159 12.7477 55.1159 14.1618C55.1159 15.5791 55.0937 18.6044 56.8669 18.6044C58.6179 18.6044 58.7005 16.1638 58.7005 14.6766C58.7005 13.6978 58.6592 12.5284 58.3636 11.6005C58.1094 10.7933 57.6041 10.4787 56.886 10.4787Z" fill="#696969"/>
<path fill-rule="evenodd" clip-rule="evenodd" d="M66.3813 20.7526H64.1315C63.9058 20.7367 63.7247 20.5556 63.7247 20.3331L63.7215 8.7341C63.7406 8.52118 63.9281 8.35594 64.1569 8.35594H66.2511C66.4481 8.36547 66.6101 8.49894 66.6546 8.68008V10.4533H66.6959C67.3283 8.86757 68.2149 8.11125 69.7752 8.11125C70.789 8.11125 71.7773 8.4767 72.4128 9.4777C73.0039 10.4056 73.0039 11.9659 73.0039 13.0877V20.3871C72.9785 20.5905 72.791 20.7526 72.5685 20.7526H70.3028C70.0962 20.7367 69.9246 20.5842 69.9024 20.3871V14.0887C69.9024 12.8208 70.0485 10.9649 68.4882 10.9649C67.9385 10.9649 67.4332 11.3335 67.1822 11.8928C66.8644 12.6015 66.8231 13.307 66.8231 14.0887V20.3331C66.8199 20.5651 66.6228 20.7526 66.3813 20.7526Z" fill="#696969"/>
<path fill-rule="evenodd" clip-rule="evenodd" d="M36.278 15.2136C36.278 16.0939 36.3002 16.828 35.8553 17.6097C35.4962 18.2453 34.9242 18.6361 34.2918 18.6361C33.4243 18.6361 32.9158 17.9752 32.9158 16.9996C32.9158 15.0738 34.6414 14.7243 36.278 14.7243V15.2136ZM38.5564 20.7208C38.4071 20.8542 38.191 20.8638 38.0226 20.7748C37.2726 20.152 37.136 19.8628 36.726 19.2685C35.4867 20.5333 34.6064 20.9114 33.0016 20.9114C31.0981 20.9114 29.6204 19.7388 29.6204 17.3904C29.6204 15.5568 30.6119 14.308 32.0292 13.6978C33.2559 13.1576 34.9687 13.0623 36.278 12.9129V12.6205C36.278 12.0835 36.3193 11.4479 36.0015 10.984C35.7282 10.5677 35.2007 10.3961 34.7335 10.3961C33.8724 10.3961 33.1065 10.8378 32.919 11.753C32.8809 11.9564 32.7315 12.1566 32.525 12.1661L30.3354 11.931C30.1511 11.8896 29.9446 11.7403 29.9986 11.4575C30.5007 8.80081 32.9031 8 35.0513 8C36.1508 8 37.5872 8.29236 38.4548 9.12495C39.5543 10.1514 39.4494 11.521 39.4494 13.0114V16.5324C39.4494 17.5906 39.8879 18.0546 40.3011 18.6266C40.4441 18.83 40.4758 19.0747 40.2915 19.2272C39.8307 19.6117 39.0109 20.3267 38.5596 20.7271L38.5564 20.7208Z" fill="#696969"/>
<path fill-rule="evenodd" clip-rule="evenodd" d="M6.65751 15.2136C6.65751 16.0939 6.67975 16.828 6.23486 17.6097C5.87577 18.2453 5.30694 18.6361 4.67138 18.6361C3.80384 18.6361 3.29857 17.9751 3.29857 16.9996C3.29857 15.0738 5.02412 14.7242 6.65751 14.7242V15.2136ZM8.936 20.7208C8.78664 20.8542 8.57055 20.8638 8.40213 20.7748C7.65216 20.1519 7.51869 19.8628 7.10558 19.2685C5.86623 20.5333 4.98916 20.9114 3.38119 20.9114C1.48086 20.9114 0 19.7388 0 17.3904C0 15.5568 0.994654 14.308 2.40878 13.6978C3.63541 13.1576 5.34825 13.0623 6.65751 12.9129V12.6205C6.65751 12.0835 6.69882 11.4479 6.38422 10.984C6.10775 10.5677 5.58023 10.3961 5.11627 10.3961C4.25509 10.3961 3.48606 10.8378 3.29857 11.753C3.26043 11.9564 3.11107 12.1566 2.9077 12.1661L0.715007 11.9309C0.530694 11.8896 0.327314 11.7403 0.378159 11.4575C0.883431 8.80081 3.28268 8 5.43088 8C6.5304 8 7.96677 8.29236 8.83431 9.12494C9.93383 10.1514 9.82896 11.521 9.82896 13.0114V16.5324C9.82896 17.5906 10.2675 18.0546 10.6806 18.6266C10.8268 18.83 10.8586 19.0747 10.6743 19.2272C10.2135 19.6117 9.3936 20.3267 8.94235 20.7271L8.936 20.7208Z" fill="#696969"/>
</g>
<defs>
<clipPath id="clip0_10169_250657">
<rect width="73.3333" height="32" fill="white"/>
</clipPath>
</defs>
</svg>
