<svg width="189" height="32" viewBox="0 0 189 32" fill="none" xmlns="http://www.w3.org/2000/svg">
<g clip-path="url(#clip0_10169_250707)">
<path d="M32.635 10.5358C32.6652 9.84145 32.8765 9.26787 33.1784 8.81504C33.4803 8.36221 33.8727 7.96976 34.3557 7.69806C34.8388 7.42636 35.3821 7.24523 35.9859 7.12448C36.6199 7.00372 37.1935 6.94334 37.7972 6.94334C38.3406 6.94334 38.884 6.97353 39.4878 7.06409C40.0614 7.15466 40.5746 7.3056 41.0576 7.51692C41.5406 7.75843 41.9331 8.06032 42.2048 8.42258C42.5067 8.81504 42.6274 9.32825 42.6274 9.9924V15.5773C42.6274 16.0603 42.6576 16.5433 42.718 16.966C42.7482 17.4188 42.8689 17.7207 43.0199 17.9622H39.9708C39.9406 17.8113 39.8501 17.6301 39.8199 17.4792C39.7897 17.2981 39.7293 17.1471 39.7293 16.9358C39.2463 17.4188 38.6727 17.7811 38.0388 17.9622C37.3746 18.1433 36.7105 18.2641 36.0463 18.2641C35.5331 18.2641 35.0199 18.1735 34.5972 18.083C34.1142 17.9622 33.7218 17.7811 33.4199 17.5094C33.0576 17.2377 32.8463 16.9056 32.635 16.5132C32.4539 16.1207 32.3633 15.6377 32.3633 15.0943C32.3633 14.4905 32.484 13.9773 32.6652 13.615C32.9067 13.2226 33.1784 12.8905 33.5406 12.649C33.9029 12.4075 34.2954 12.2264 34.718 12.1056C35.1406 11.9849 35.6237 11.8641 36.0463 11.8339C36.5293 11.7433 36.952 11.7132 37.3746 11.683C37.7972 11.6528 38.1897 11.5622 38.552 11.5018C38.9142 11.4113 39.1859 11.3207 39.3671 11.1094C39.5482 10.9584 39.6388 10.7169 39.6388 10.415C39.6388 10.1132 39.6086 9.84145 39.4878 9.66032C39.3671 9.47919 39.2463 9.32825 39.0652 9.23768C38.884 9.14712 38.6727 9.05655 38.4312 9.05655C38.1897 9.02636 37.9482 9.02636 37.6765 9.02636C37.1029 9.02636 36.6199 9.14712 36.2576 9.41882C35.8954 9.69051 35.7142 10.083 35.684 10.6867H32.635V10.5358ZM39.6689 12.7094C39.5482 12.8301 39.3972 12.8905 39.1859 12.9811C39.0048 13.0716 38.7935 13.1018 38.552 13.132C38.3105 13.1622 38.1293 13.2226 37.8576 13.2528C37.6161 13.283 37.3746 13.3433 37.1633 13.3735C36.9218 13.4037 36.7406 13.4943 36.4991 13.5245C36.2576 13.615 36.0765 13.6754 35.9255 13.7962C35.7746 13.9169 35.6237 14.0679 35.5331 14.249C35.4123 14.4301 35.3821 14.6716 35.3821 14.9433C35.3821 15.215 35.4123 15.4264 35.5331 15.6075C35.6538 15.7886 35.7746 15.9094 35.9255 16.0301C36.0765 16.1509 36.2878 16.2113 36.4991 16.2716C36.7406 16.3018 36.9821 16.3622 37.1935 16.3622C37.7671 16.3622 38.2501 16.2415 38.552 16.0603C38.8538 15.8792 39.0954 15.6377 39.2463 15.366C39.3972 15.0943 39.4878 14.8226 39.518 14.5509C39.5482 14.2792 39.5482 14.0679 39.5482 13.8867V12.7396H39.6689V12.7094ZM47.0048 7.21504V8.60372H47.035C47.3972 8.03013 47.8501 7.60749 48.4538 7.33579C48.9972 7.06409 49.6312 6.94334 50.3255 6.94334C51.201 6.94334 51.9255 7.09428 52.5595 7.39617C53.1935 7.69806 53.7067 8.1207 54.1293 8.6641C54.5218 9.2075 54.8237 9.81126 55.035 10.5056C55.2161 11.1999 55.3369 11.9245 55.3369 12.6792C55.3369 13.4037 55.2161 14.0981 55.035 14.732C54.8538 15.3962 54.5218 15.9999 54.1293 16.483C53.7369 16.966 53.2237 17.3886 52.5897 17.6905C52.0161 17.9924 51.2916 18.1433 50.4765 18.1433C49.8123 18.1433 49.1784 17.9924 48.6048 17.7207C48.0312 17.449 47.5482 17.0565 47.1859 16.5433H47.1557V21.615H44.1369V7.15467H47.0048V7.21504ZM50.9293 15.7282C51.2916 15.5471 51.5029 15.2754 51.7444 14.9735C51.9255 14.6716 52.1067 14.2792 52.1671 13.8565C52.2576 13.4339 52.2878 13.0113 52.2878 12.5886C52.2878 12.166 52.2576 11.7433 52.1369 11.3207C52.0463 10.8981 51.8954 10.5056 51.6539 10.2037C51.4727 9.87164 51.1708 9.63014 50.8388 9.38863C50.4765 9.14712 50.084 9.08674 49.6312 9.08674C49.118 9.08674 48.7255 9.20749 48.3935 9.38863C48.0312 9.56976 47.8199 9.84146 47.5784 10.1433C47.3972 10.4452 47.2161 10.8377 47.1557 11.2603C47.0652 11.683 47.035 12.1056 47.035 12.5584C47.035 12.9811 47.0652 13.4037 47.1859 13.8264C47.2765 14.249 47.4274 14.5811 47.6086 14.9433C47.7897 15.2452 48.0916 15.5169 48.4237 15.6981C48.7557 15.8792 49.1784 15.9999 49.6614 15.9999C50.1746 16.0301 50.6274 15.9094 50.9293 15.7282ZM59.1406 7.21504V8.60372H59.1708C59.5331 8.03013 59.9859 7.60749 60.5897 7.33579C61.1331 7.06409 61.7671 6.94334 62.4614 6.94334C63.3369 6.94334 64.0614 7.09428 64.6954 7.39617C65.3293 7.69806 65.8425 8.1207 66.2652 8.6641C66.6576 9.2075 66.9595 9.81126 67.1708 10.5056C67.352 11.1999 67.4727 11.9245 67.4727 12.6792C67.4727 13.4037 67.352 14.0981 67.1708 14.732C66.9897 15.3962 66.6576 15.9999 66.2652 16.483C65.8727 16.966 65.3595 17.3886 64.7255 17.6905C64.152 17.9924 63.4274 18.1433 62.6123 18.1433C61.9482 18.1433 61.3142 17.9924 60.7406 17.7207C60.1671 17.449 59.684 17.0565 59.3218 16.5433H59.2916V21.615H56.2727V7.15467H59.1406V7.21504ZM63.0652 15.7282C63.4274 15.5471 63.6388 15.2754 63.8803 14.9735C64.0614 14.6716 64.2425 14.2792 64.3029 13.8565C64.3935 13.4339 64.4237 13.0113 64.4237 12.5886C64.4237 12.166 64.3935 11.7433 64.2727 11.3207C64.1821 10.8981 64.0312 10.5056 63.7897 10.2037C63.6086 9.87164 63.3067 9.63014 62.9746 9.38863C62.6123 9.20749 62.2199 9.08674 61.7671 9.08674C61.2539 9.08674 60.8614 9.20749 60.5293 9.38863C60.1671 9.56976 59.9557 9.84146 59.7142 10.1433C59.5331 10.4452 59.352 10.8377 59.2916 11.2603C59.201 11.683 59.1708 12.1056 59.1708 12.5584C59.1708 12.9811 59.201 13.4037 59.3218 13.8264C59.4123 14.249 59.5633 14.5811 59.7444 14.9433C59.9255 15.2452 60.2274 15.5169 60.5595 15.6981C60.9218 15.8792 61.3142 15.9999 61.7972 15.9999C62.2803 15.9999 62.7633 15.9094 63.0652 15.7282ZM71.518 3.10938V17.932H68.4991V3.10938H71.518ZM73.1482 5.55466V3.10938H76.1671V5.55466H73.1482ZM76.1671 7.21504V17.932H73.1482V7.21504H76.1671ZM77.5859 10.5358C77.6161 9.84145 77.8274 9.26787 78.1293 8.81504C78.4312 8.36221 78.8237 7.96976 79.3067 7.69806C79.7897 7.42636 80.3331 7.24523 80.9369 7.12448C81.5105 7.00372 82.1444 6.94334 82.7482 6.94334C83.2916 6.94334 83.835 6.97353 84.4388 7.06409C85.0425 7.15466 85.5255 7.3056 86.0086 7.51692C86.4916 7.75843 86.884 8.06032 87.1557 8.42258C87.4576 8.81504 87.5784 9.32825 87.5784 9.9924V15.5773C87.5784 16.0603 87.6086 16.5433 87.6689 16.966C87.6991 17.4188 87.8199 17.7207 87.9708 17.9622H84.9218C84.8916 17.8113 84.801 17.6301 84.7708 17.4792C84.7406 17.2981 84.6803 17.1471 84.6803 16.9358C84.1972 17.4188 83.6237 17.7811 82.9897 17.9622C82.3255 18.1433 81.6614 18.2641 80.9972 18.2641C80.484 18.2641 79.9708 18.1735 79.5482 18.083C79.0652 17.9622 78.6727 17.7811 78.3708 17.5094C78.0086 17.2377 77.7972 16.9056 77.5859 16.5132C77.4048 16.1207 77.3142 15.6377 77.3142 15.0943C77.3142 14.4905 77.435 13.9773 77.6161 13.615C77.8576 13.2226 78.1293 12.8905 78.4916 12.649C78.8538 12.4075 79.2463 12.2264 79.6689 12.1056C80.0916 11.9849 80.5746 11.8641 80.9972 11.8339C81.4803 11.7433 81.9029 11.7132 82.3256 11.683C82.7482 11.6528 83.1406 11.5622 83.5029 11.5018C83.8652 11.4415 84.1369 11.3207 84.318 11.1094C84.4991 10.9584 84.5897 10.7169 84.5897 10.415C84.5897 10.1132 84.5595 9.84145 84.4388 9.66032C84.318 9.47919 84.1972 9.32825 84.0161 9.23768C83.835 9.14712 83.6237 9.05655 83.3822 9.05655C83.1406 9.02636 82.8991 9.02636 82.6274 9.02636C82.0539 9.02636 81.5708 9.14712 81.2086 9.41882C80.8463 9.69051 80.6652 10.083 80.635 10.6867H77.5859V10.5358ZM84.5595 12.7094C84.4388 12.8301 84.2878 12.8905 84.0765 12.9811C83.8954 13.0716 83.684 13.1018 83.4425 13.132C83.201 13.1622 83.0199 13.2226 82.7482 13.2528C82.5067 13.283 82.2652 13.3433 82.0538 13.3735C81.8123 13.4037 81.6312 13.4943 81.3897 13.5245C81.1482 13.615 80.9671 13.6754 80.8161 13.7962C80.6652 13.9169 80.5142 14.0679 80.4237 14.249C80.3029 14.4301 80.2727 14.6716 80.2727 14.9433C80.2727 15.215 80.3029 15.4264 80.4237 15.6075C80.5444 15.7886 80.6652 15.9094 80.8161 16.0301C80.9671 16.1509 81.1784 16.2113 81.3897 16.2716C81.6312 16.3018 81.8727 16.3622 82.084 16.3622C82.6576 16.3622 83.1406 16.2415 83.4425 16.0603C83.7444 15.8792 83.9859 15.6377 84.1369 15.366C84.2878 15.0943 84.3784 14.8226 84.4086 14.5509C84.4388 14.2792 84.4388 14.0679 84.4388 13.8867V12.7396H84.5595V12.7094ZM91.9255 7.21504V8.69428H92.0161C92.4086 8.09051 92.8916 7.63768 93.4954 7.30561C94.1293 7.03391 94.7331 6.88296 95.3671 6.88296C96.1821 6.88296 96.8463 7.00371 97.3595 7.18485C97.8727 7.42636 98.2954 7.66787 98.5671 8.06033C98.8689 8.45278 99.0803 8.9056 99.201 9.449C99.3218 9.99239 99.3822 10.5962 99.3822 11.2905V17.9018H96.3633V11.8339C96.3633 10.9584 96.2123 10.2943 95.9406 9.84146C95.6689 9.38863 95.1557 9.1773 94.401 9.1773C93.5859 9.1773 92.9822 9.41881 92.5897 9.90183C92.2274 10.3547 92.0463 11.1698 92.0463 12.2566V17.8716H89.0274V7.15467H91.8954V7.21504H91.9255ZM105.661 9.14711C105.178 9.14711 104.756 9.26787 104.454 9.449C104.152 9.69051 103.88 9.93202 103.669 10.2943C103.488 10.6264 103.307 11.0188 103.246 11.4113C103.156 11.8339 103.126 12.2264 103.126 12.6188C103.126 13.0113 103.156 13.3735 103.246 13.7962C103.337 14.2188 103.488 14.5509 103.669 14.9132C103.85 15.2452 104.092 15.4867 104.454 15.7282C104.756 15.9094 105.148 16.0301 105.631 16.0301C106.326 16.0301 106.929 15.849 107.322 15.4566C107.714 15.0641 107.956 14.5509 108.076 13.8565H110.975C110.793 15.2754 110.19 16.3622 109.284 17.1169C108.348 17.8716 107.141 18.2339 105.692 18.2339C104.876 18.2339 104.122 18.083 103.427 17.8113C102.733 17.5396 102.19 17.1471 101.676 16.6641C101.193 16.1811 100.801 15.6075 100.529 14.9433C100.258 14.249 100.137 13.5245 100.137 12.7396C100.137 11.8943 100.258 11.1396 100.499 10.415C100.741 9.69051 101.133 9.08674 101.586 8.57353C102.069 8.03013 102.643 7.66787 103.337 7.36598C104.031 7.06409 104.816 6.94334 105.722 6.94334C106.386 6.94334 107.02 7.03391 107.593 7.21504C108.167 7.36598 108.741 7.63768 109.193 7.96975C109.676 8.30183 110.069 8.72447 110.371 9.23768C110.673 9.75089 110.854 10.3547 110.884 11.0188H107.926C107.654 9.78108 106.899 9.14711 105.661 9.14711ZM115.412 15.366C115.895 15.7886 116.499 16.0301 117.375 16.0301C118.009 16.0301 118.522 15.8792 118.944 15.5773C119.367 15.2754 119.639 14.9735 119.76 14.6113H122.416C121.993 15.9094 121.329 16.815 120.454 17.3584C119.578 17.9018 118.492 18.2037 117.284 18.2037C116.409 18.2037 115.654 18.0528 114.929 17.7811C114.205 17.5094 113.631 17.1169 113.178 16.6339C112.726 16.1509 112.303 15.5169 112.031 14.8528C111.76 14.1584 111.639 13.4037 111.639 12.5584C111.639 11.7433 111.76 10.9886 112.031 10.2943C112.303 9.59995 112.695 8.99617 113.178 8.51316C113.692 8.03014 114.265 7.60749 114.929 7.33579C115.624 7.0339 116.378 6.91315 117.193 6.91315C118.129 6.91315 118.944 7.09429 119.609 7.45655C120.303 7.78863 120.846 8.30183 121.329 8.87541C121.752 9.47919 122.114 10.1433 122.295 10.8981C122.476 11.6528 122.567 12.4679 122.476 13.2528H114.567C114.688 14.2792 114.929 14.9735 115.412 15.366ZM118.793 9.7207C118.431 9.32825 117.888 9.14711 117.163 9.14711C116.68 9.14711 116.258 9.23768 115.956 9.38863C115.654 9.53957 115.382 9.7207 115.171 9.96221C114.99 10.2037 114.869 10.4452 114.778 10.7169C114.688 10.9886 114.658 11.1999 114.627 11.4113H119.518C119.427 10.6867 119.156 10.1132 118.793 9.7207ZM126.039 15.2754C126.16 15.5169 126.341 15.6981 126.552 15.849C126.733 15.9999 127.035 16.1207 127.307 16.1509C127.578 16.2415 127.85 16.2716 128.182 16.2716C128.363 16.2716 128.605 16.2415 128.846 16.1811C129.088 16.1509 129.269 16.0603 129.48 15.9396C129.661 15.8188 129.843 15.6981 129.963 15.5169C130.084 15.3358 130.144 15.1245 130.144 14.8528C130.144 14.3999 129.843 14.0981 129.239 13.8565C128.665 13.615 127.79 13.4037 126.733 13.1924C126.31 13.0716 125.858 12.9509 125.435 12.8603C125.012 12.7396 124.65 12.5584 124.288 12.3169C123.986 12.0754 123.714 11.8339 123.503 11.5018C123.322 11.1698 123.201 10.7773 123.201 10.3245C123.201 9.63014 123.352 9.05655 123.624 8.60372C123.895 8.15089 124.258 7.78863 124.71 7.57731C125.193 7.30561 125.676 7.15466 126.25 7.0339C126.793 6.91315 127.397 6.88296 128.001 6.88296C128.635 6.88296 129.178 6.91315 129.722 7.0339C130.265 7.15466 130.778 7.3358 131.201 7.6075C131.624 7.87919 132.016 8.21127 132.288 8.63391C132.56 9.05655 132.771 9.63013 132.801 10.2641H129.963C129.933 9.69051 129.692 9.29806 129.299 9.11693C128.907 8.9358 128.424 8.81504 127.88 8.81504C127.729 8.81504 127.518 8.81504 127.337 8.84522C127.156 8.87541 126.944 8.93579 126.793 8.99617C126.643 9.08673 126.492 9.14711 126.371 9.29805C126.25 9.41881 126.22 9.59995 126.22 9.84146C126.22 10.1132 126.341 10.2943 126.522 10.5056C126.703 10.6565 127.005 10.8075 127.307 10.9283C127.609 11.049 127.971 11.1094 128.393 11.1999C128.786 11.2905 129.209 11.3811 129.631 11.4716C130.054 11.5924 130.507 11.7132 130.929 11.8037C131.352 11.9547 131.714 12.1056 132.076 12.3471C132.378 12.5886 132.65 12.8301 132.861 13.1924C133.043 13.5245 133.163 13.9471 133.163 14.4603C133.163 15.1547 133.012 15.7584 132.741 16.2113C132.469 16.6641 132.076 17.0867 131.593 17.3584C131.11 17.6603 130.567 17.8415 129.993 17.9622C129.42 18.083 128.786 18.1433 128.152 18.1433C127.518 18.1433 126.884 18.0528 126.28 17.9622C125.646 17.8415 125.133 17.6301 124.65 17.3584C124.167 17.0565 123.775 16.6641 123.473 16.2113C123.171 15.7584 122.99 15.1547 122.96 14.4301H125.827C125.858 14.7622 125.918 15.0339 126.039 15.2754Z" fill="#696969"/>
<path d="M141.555 7.42653C142.189 7.72841 142.733 8.15106 143.185 8.63407C143.608 9.11709 143.97 9.75105 144.212 10.4152C144.453 11.1095 144.574 11.8341 144.574 12.5888C144.574 13.3435 144.453 14.068 144.212 14.7624C143.97 15.4567 143.668 16.0605 143.185 16.5435C142.763 17.0265 142.219 17.4492 141.555 17.7511C140.921 18.0529 140.197 18.2039 139.321 18.2039C138.506 18.2039 137.751 18.0529 137.087 17.7511C136.423 17.4492 135.91 17.0567 135.457 16.5435C135.034 16.0605 134.672 15.4265 134.431 14.7624C134.189 14.068 134.068 13.3435 134.068 12.5888C134.068 11.8341 134.189 11.1095 134.431 10.4152C134.672 9.72087 134.974 9.11709 135.457 8.63407C135.88 8.15106 136.423 7.72841 137.087 7.42653C137.751 7.12464 138.446 6.9737 139.321 6.9737C140.136 6.9737 140.891 7.12464 141.555 7.42653ZM137.631 8.48313C137.148 8.75483 136.725 9.0869 136.423 9.50954C136.121 9.93219 135.88 10.4152 135.729 10.9586C135.578 11.502 135.487 12.0756 135.487 12.6492C135.487 13.2228 135.578 13.7661 135.729 14.3397C135.88 14.8831 136.121 15.3661 136.423 15.7888C136.725 16.2114 137.117 16.5435 137.631 16.8152C138.114 17.0869 138.687 17.2077 139.321 17.2077C139.955 17.2077 140.529 17.0869 141.012 16.8152C141.495 16.5435 141.917 16.2114 142.219 15.7888C142.521 15.3661 142.763 14.8831 142.914 14.3397C143.065 13.7963 143.155 13.2228 143.155 12.6492C143.155 12.0756 143.065 11.5322 142.914 10.9586C142.763 10.4152 142.521 9.93219 142.219 9.50954C141.917 9.0869 141.525 8.75483 141.012 8.48313C140.529 8.21143 139.955 8.09067 139.321 8.09067C138.657 8.09067 138.114 8.21143 137.631 8.48313ZM146.748 7.27558V9.1171H146.778C147.049 8.45294 147.472 7.93973 148.136 7.54728C148.8 7.15483 149.495 6.9737 150.28 6.9737C151.065 6.9737 151.699 7.09445 152.212 7.27558C152.725 7.45672 153.148 7.72841 153.449 8.09067C153.751 8.42275 153.993 8.90577 154.114 9.38879C154.234 9.87181 154.295 10.4454 154.295 11.1095V17.9926H152.966V11.3209C152.966 10.868 152.936 10.4454 152.846 10.0529C152.755 9.66048 152.604 9.32841 152.423 9.02652C152.242 8.72464 151.91 8.48313 151.548 8.33219C151.185 8.18124 150.733 8.06049 150.219 8.06049C149.676 8.06049 149.193 8.15106 148.77 8.33219C148.348 8.51332 147.985 8.78502 147.714 9.08691C147.442 9.41898 147.2 9.81143 147.049 10.2341C146.899 10.6869 146.808 11.2001 146.778 11.6831V17.902H145.449V7.2152H146.717V7.27558H146.748ZM157.133 3.16992V17.9926H155.804V3.16992H157.133ZM160.031 3.16992V5.28313H158.702V3.16992H160.031ZM160.031 7.27558V17.9624H158.702V7.27558H160.031ZM162.838 7.27558V9.1171H162.868C163.14 8.45294 163.563 7.93973 164.227 7.54728C164.891 7.15483 165.585 6.9737 166.37 6.9737C167.155 6.9737 167.789 7.09445 168.302 7.27558C168.816 7.45672 169.238 7.72841 169.54 8.09067C169.842 8.42275 170.083 8.90577 170.204 9.38879C170.325 9.87181 170.385 10.4454 170.385 11.1095V17.9926H169.057V11.3209C169.057 10.868 169.027 10.4454 168.936 10.0529C168.846 9.66048 168.695 9.32841 168.514 9.02652C168.333 8.72464 168 8.48313 167.638 8.33219C167.276 8.18124 166.823 8.06049 166.31 8.06049C165.766 8.06049 165.283 8.15106 164.861 8.33219C164.438 8.51332 164.076 8.78502 163.804 9.08691C163.532 9.41898 163.291 9.81143 163.14 10.2341C162.989 10.6869 162.899 11.2001 162.868 11.6831V17.902H161.54V7.2152H162.778V7.27558H162.838ZM172.861 14.4605C172.982 14.9435 173.223 15.4265 173.525 15.8492C173.827 16.2718 174.189 16.5737 174.672 16.8454C175.155 17.1171 175.699 17.2378 176.302 17.2378C177.268 17.2378 178.053 16.9662 178.597 16.4831C179.14 16.0001 179.533 15.336 179.744 14.4907H181.072C180.8 15.6982 180.257 16.6341 179.502 17.3284C178.748 18.0228 177.661 18.3246 176.302 18.3246C175.427 18.3246 174.702 18.1737 174.068 17.8718C173.434 17.5699 172.921 17.1775 172.529 16.6643C172.136 16.1209 171.834 15.5473 171.623 14.8831C171.442 14.1888 171.351 13.4643 171.351 12.7095C171.351 12.0152 171.442 11.2907 171.623 10.6567C171.804 9.96237 172.106 9.3586 172.529 8.81521C172.921 8.27181 173.434 7.84917 174.068 7.51709C174.702 7.18501 175.427 7.03407 176.302 7.03407C177.178 7.03407 177.933 7.21521 178.566 7.57747C179.2 7.90955 179.714 8.39257 180.106 8.96615C180.499 9.53974 180.77 10.1737 180.921 10.9284C181.072 11.6831 181.163 12.3775 181.102 13.1322H172.649C172.68 13.4643 172.74 13.9171 172.861 14.4605ZM179.533 10.4454C179.382 9.99257 179.14 9.56992 178.838 9.23785C178.536 8.90577 178.174 8.57369 177.751 8.39256C177.329 8.15105 176.846 8.09067 176.302 8.09067C175.759 8.09067 175.246 8.21143 174.853 8.39256C174.431 8.63407 174.068 8.87558 173.766 9.23785C173.465 9.56992 173.223 9.99257 173.072 10.4454C172.891 10.8982 172.77 11.4114 172.71 11.8643H179.804C179.744 11.4114 179.683 10.8982 179.533 10.4454Z" fill="#696969"/>
<path d="M94.9744 21.1016V29.5544H94.1895V21.1016H94.9744ZM96.6347 27.5318C96.7253 27.8336 96.8159 28.0752 96.997 28.2865C97.1479 28.528 97.3895 28.7091 97.631 28.8601C97.9027 29.011 98.2045 29.1016 98.5668 29.1016C99.1102 29.1016 99.5328 28.9506 99.8649 28.6789C100.167 28.4072 100.408 28.0148 100.529 27.5318H101.314C101.163 28.2261 100.831 28.7393 100.408 29.1318C99.9857 29.5242 99.3517 29.7053 98.5668 29.7053C98.0536 29.7053 97.631 29.6148 97.2687 29.4336C96.9064 29.2827 96.6045 29.011 96.3932 28.7393C96.1517 28.4374 96.0008 28.0751 95.88 27.7129C95.7593 27.3204 95.7291 26.8978 95.7291 26.5053C95.7291 26.0827 95.7593 25.6902 95.88 25.328C96.0008 24.9355 96.1517 24.6035 96.3932 24.3016C96.6347 23.9997 96.9064 23.7582 97.2687 23.577C97.631 23.3959 98.0536 23.3053 98.5668 23.3053C99.08 23.3053 99.5027 23.4261 99.8649 23.6072C100.227 23.7884 100.499 24.0601 100.74 24.3619C100.982 24.6638 101.133 25.0563 101.223 25.4789C101.344 25.9016 101.374 26.3242 101.344 26.7468H96.5442C96.5442 26.9582 96.5744 27.2299 96.6347 27.5318ZM100.408 25.2374C100.318 24.9657 100.167 24.7544 100.016 24.5431C99.8649 24.3619 99.6234 24.1506 99.3819 24.0601C99.1404 23.9393 98.8687 23.8789 98.5668 23.8789C98.2649 23.8789 97.9932 23.9695 97.7517 24.0601C97.5102 24.1808 97.3291 24.3317 97.1178 24.5431C96.9668 24.7242 96.8159 24.9657 96.7253 25.2374C96.6045 25.5091 96.5744 25.7808 96.5442 26.0525H100.62C100.559 25.7808 100.529 25.5091 100.408 25.2374ZM107.654 30.2789C107.533 30.6714 107.382 30.9733 107.171 31.1846C106.929 31.4563 106.657 31.6374 106.295 31.7582C105.933 31.9091 105.51 31.9393 104.997 31.9393C104.695 31.9393 104.363 31.9091 104.061 31.8185C103.759 31.728 103.488 31.6374 103.246 31.4865C103.005 31.3355 102.823 31.1544 102.672 30.9129C102.522 30.6714 102.431 30.4299 102.401 30.0676H103.155C103.186 30.3091 103.276 30.4902 103.397 30.6412C103.518 30.7921 103.669 30.9129 103.82 31.0336C103.971 31.1242 104.182 31.1846 104.363 31.2148C104.544 31.245 104.755 31.3053 104.997 31.3053C105.691 31.3053 106.205 31.1242 106.537 30.7317C106.839 30.3393 107.02 29.7657 107.02 29.011V28.1657H106.989C106.808 28.5582 106.567 28.8601 106.205 29.0714C105.842 29.3129 105.45 29.4034 104.997 29.4034C104.484 29.4034 104.061 29.3129 103.699 29.1619C103.337 29.011 103.035 28.7695 102.823 28.4676C102.582 28.1959 102.431 27.8638 102.31 27.4714C102.189 27.0789 102.159 26.6563 102.159 26.2638C102.159 25.8412 102.25 25.4487 102.34 25.0865C102.461 24.694 102.642 24.3921 102.884 24.0902C103.125 23.8185 103.427 23.6072 103.789 23.4261C104.152 23.2752 104.544 23.1846 104.997 23.1846C105.239 23.1846 105.48 23.2148 105.661 23.2752C105.842 23.3657 106.054 23.4261 106.205 23.5468C106.355 23.6676 106.506 23.7884 106.688 23.9393C106.808 24.0902 106.929 24.2412 106.989 24.3921H107.02V23.3959H107.805V29.011C107.774 29.494 107.714 29.8865 107.654 30.2789ZM105.872 28.6185C106.114 28.4676 106.355 28.3167 106.506 28.0751C106.657 27.8336 106.808 27.5921 106.899 27.3204C106.989 27.0185 107.02 26.7167 107.02 26.4148C107.02 26.1129 106.989 25.811 106.899 25.5091C106.808 25.2072 106.718 24.9355 106.537 24.694C106.386 24.4525 106.174 24.2412 105.903 24.1204C105.631 23.9695 105.359 23.8789 104.967 23.8789C104.605 23.8789 104.303 23.9695 104.031 24.1204C103.759 24.2714 103.548 24.4525 103.397 24.694C103.246 24.9355 103.095 25.177 103.035 25.5091C102.944 25.811 102.914 26.1129 102.914 26.4148C102.914 26.7167 102.944 27.0185 103.035 27.3204C103.125 27.6223 103.216 27.8638 103.427 28.0751C103.578 28.3167 103.82 28.4978 104.061 28.6185C104.333 28.7695 104.605 28.7997 104.997 28.7997C105.329 28.8601 105.601 28.7695 105.872 28.6185ZM109.435 27.5318C109.525 27.8336 109.616 28.0752 109.797 28.2865C109.948 28.528 110.189 28.7091 110.431 28.8601C110.703 29.011 111.005 29.1016 111.367 29.1016C111.91 29.1016 112.333 28.9506 112.665 28.6789C112.967 28.4072 113.208 28.0148 113.329 27.5318H114.114C113.963 28.2261 113.631 28.7393 113.208 29.1318C112.786 29.5242 112.152 29.7053 111.367 29.7053C110.854 29.7053 110.431 29.6148 110.069 29.4336C109.706 29.2827 109.405 29.011 109.193 28.7393C108.952 28.4374 108.801 28.0751 108.68 27.7129C108.559 27.3204 108.529 26.8978 108.529 26.5053C108.529 26.0827 108.559 25.6902 108.68 25.328C108.801 24.9355 108.952 24.6035 109.193 24.3016C109.435 23.9997 109.706 23.7582 110.069 23.577C110.431 23.3959 110.854 23.3053 111.367 23.3053C111.88 23.3053 112.303 23.4261 112.665 23.6072C113.027 23.7884 113.299 24.0601 113.54 24.3619C113.782 24.6638 113.933 25.0563 114.023 25.4789C114.114 25.9016 114.174 26.3242 114.144 26.7468H109.344C109.344 26.9582 109.374 27.2299 109.435 27.5318ZM113.208 25.2374C113.118 24.9657 112.967 24.7544 112.816 24.5431C112.665 24.3619 112.423 24.1506 112.182 24.0601C111.94 23.9393 111.669 23.8789 111.367 23.8789C111.065 23.8789 110.793 23.9695 110.552 24.0601C110.31 24.1808 110.069 24.3317 109.918 24.5431C109.767 24.7242 109.616 24.9657 109.525 25.2374C109.405 25.5091 109.374 25.7808 109.344 26.0525H113.42C113.359 25.7808 113.329 25.5091 113.208 25.2374ZM115.563 23.4261V24.4827H115.593C115.744 24.0902 115.986 23.7884 116.378 23.6072C116.771 23.3657 117.163 23.2752 117.586 23.2752C118.008 23.2752 118.401 23.3053 118.672 23.4261C118.974 23.5468 119.216 23.6978 119.367 23.8789C119.548 24.0601 119.669 24.3318 119.759 24.6035C119.85 24.9053 119.88 25.2072 119.88 25.5997V29.5242H119.095V25.7204C119.095 25.4487 119.065 25.2374 119.005 24.9959C118.974 24.7544 118.884 24.5733 118.733 24.4223C118.612 24.2714 118.461 24.1204 118.22 24.0299C118.039 23.9393 117.737 23.8789 117.435 23.8789C117.133 23.8789 116.861 23.9091 116.62 24.0299C116.378 24.1506 116.197 24.3016 115.986 24.4525C115.835 24.6336 115.684 24.8752 115.593 25.1167C115.503 25.3884 115.442 25.6601 115.442 25.9619V29.5242H114.657V23.4261H115.533H115.563ZM125.767 29.5544V28.4072H125.737C125.646 28.5884 125.555 28.7997 125.374 28.9506C125.223 29.1016 125.012 29.2525 124.831 29.3733C124.65 29.494 124.408 29.5544 124.167 29.645C123.925 29.7355 123.684 29.7355 123.472 29.7355C122.989 29.7355 122.567 29.645 122.205 29.4638C121.842 29.3129 121.571 29.0412 121.329 28.7695C121.088 28.4676 120.937 28.1053 120.816 27.7431C120.695 27.3506 120.665 26.928 120.665 26.5355C120.665 26.1129 120.695 25.6902 120.816 25.328C120.937 24.9355 121.088 24.6035 121.329 24.3016C121.571 23.9997 121.842 23.7582 122.205 23.6072C122.567 23.4261 122.989 23.3355 123.472 23.3355C123.714 23.3355 123.955 23.3657 124.167 23.4261C124.408 23.4563 124.589 23.577 124.801 23.6978C124.982 23.8185 125.163 23.9695 125.314 24.1204C125.465 24.2714 125.586 24.4525 125.676 24.694H125.706V21.1921H126.491V29.645H125.767V29.5544ZM121.571 27.4412C121.661 27.7431 121.752 28.0148 121.933 28.2865C122.084 28.528 122.325 28.7393 122.567 28.8902C122.839 29.0412 123.14 29.1318 123.503 29.1318C123.895 29.1318 124.257 29.0412 124.529 28.8902C124.801 28.7393 125.042 28.5582 125.193 28.2865C125.344 28.045 125.495 27.7431 125.586 27.4412C125.676 27.1393 125.706 26.8374 125.706 26.4752C125.706 26.1733 125.676 25.8714 125.586 25.5091C125.495 25.2072 125.405 24.9355 125.193 24.6638C125.042 24.4223 124.801 24.211 124.529 24.0601C124.257 23.9091 123.895 23.8185 123.503 23.8185C123.14 23.8185 122.839 23.9091 122.567 24.0601C122.295 24.211 122.084 24.3921 121.933 24.6638C121.782 24.9053 121.661 25.2072 121.571 25.5091C121.48 25.811 121.45 26.1129 121.45 26.4752C121.48 26.8072 121.51 27.1091 121.571 27.4412ZM127.729 24.3921C127.85 24.1204 128.031 23.9393 128.242 23.728C128.484 23.577 128.725 23.4261 129.027 23.3355C129.329 23.245 129.661 23.2148 129.993 23.2148C130.265 23.2148 130.537 23.245 130.808 23.3053C131.08 23.3355 131.322 23.4563 131.563 23.6072C131.805 23.7582 131.955 23.9393 132.106 24.211C132.257 24.4827 132.288 24.7846 132.288 25.2072V28.4676C132.288 28.7695 132.439 28.9204 132.71 28.9204C132.801 28.9204 132.861 28.9204 132.952 28.8902V29.494C132.861 29.494 132.801 29.5242 132.71 29.5242C132.62 29.5242 132.559 29.5242 132.439 29.5242C132.257 29.5242 132.076 29.494 131.955 29.4336C131.835 29.4035 131.774 29.3129 131.684 29.1921C131.593 29.1016 131.563 29.011 131.563 28.8601C131.533 28.7393 131.533 28.5884 131.533 28.4374H131.503C131.352 28.6185 131.231 28.8299 131.08 28.9808C130.929 29.1318 130.778 29.2525 130.597 29.3733C130.446 29.494 130.235 29.5544 130.023 29.6148C129.782 29.645 129.54 29.7053 129.239 29.7053C128.967 29.7053 128.695 29.6751 128.423 29.5846C128.152 29.494 127.94 29.4035 127.759 29.2827C127.578 29.1318 127.397 28.9506 127.337 28.7091C127.216 28.4676 127.186 28.2261 127.186 27.894C127.186 27.4714 127.276 27.1393 127.457 26.8978C127.639 26.6563 127.94 26.4751 128.242 26.3544C128.544 26.2336 128.906 26.1129 129.329 26.0827C129.722 26.0525 130.144 25.9619 130.537 25.9318C130.688 25.9318 130.839 25.9016 130.959 25.8412C131.08 25.811 131.201 25.7506 131.261 25.7204C131.352 25.6299 131.412 25.5695 131.442 25.4789C131.472 25.3582 131.533 25.2374 131.533 25.0563C131.533 24.7846 131.503 24.6035 131.412 24.4525C131.322 24.3016 131.231 24.1506 131.05 24.0601C130.899 23.9695 130.748 23.9091 130.537 23.8789C130.355 23.8487 130.144 23.8487 129.903 23.8487C129.42 23.8487 128.997 23.9695 128.725 24.1808C128.423 24.4223 128.242 24.7544 128.242 25.2374H127.548C127.488 24.9657 127.578 24.6638 127.729 24.3921ZM131.533 26.1733C131.503 26.2638 131.382 26.3242 131.261 26.3544C131.11 26.3846 130.989 26.445 130.899 26.445C130.597 26.4752 130.235 26.5657 129.872 26.5959C129.51 26.6261 129.208 26.7167 128.937 26.777C128.665 26.8676 128.423 27.0185 128.242 27.1695C128.061 27.3204 127.971 27.5619 127.971 27.8638C127.971 28.045 128.001 28.1959 128.091 28.3468C128.182 28.4978 128.272 28.6185 128.393 28.7393C128.514 28.8601 128.665 28.9204 128.816 28.9808C128.967 29.011 129.178 29.0714 129.329 29.0714C129.601 29.0714 129.903 29.0412 130.144 28.9506C130.416 28.8601 130.657 28.7091 130.839 28.5582C131.02 28.4072 131.201 28.1657 131.322 27.9544C131.442 27.7129 131.472 27.4714 131.472 27.1393L131.533 26.1733ZM134.431 23.4261V24.8751H134.461C134.642 24.3921 134.974 23.9997 135.367 23.728C135.759 23.4563 136.272 23.3355 136.816 23.3355V24.0902C136.454 24.0902 136.152 24.1204 135.88 24.2412C135.608 24.3619 135.367 24.5129 135.125 24.694C134.944 24.8751 134.763 25.1167 134.642 25.3884C134.522 25.6601 134.491 25.9619 134.491 26.2638V29.5242H133.706V23.4261H134.431ZM138.023 23.4261L140.106 28.6185L142.039 23.4261H142.823L140.137 30.4601C140.016 30.7318 139.895 30.9129 139.835 31.1242C139.744 31.2752 139.654 31.4261 139.533 31.5468C139.412 31.6676 139.261 31.6978 139.11 31.7884C138.959 31.8185 138.748 31.8789 138.537 31.8789C138.386 31.8789 138.265 31.8789 138.174 31.8789C138.084 31.8789 138.023 31.8789 137.933 31.8487V31.245C138.023 31.245 138.084 31.2752 138.205 31.2752C138.325 31.2752 138.355 31.2752 138.476 31.2752C138.627 31.2752 138.778 31.245 138.899 31.1846C139.02 31.1544 139.08 31.0638 139.171 31.0035C139.261 30.9129 139.322 30.8223 139.352 30.7016C139.382 30.5808 139.472 30.4299 139.533 30.3091L139.805 29.6148L137.299 23.5468H138.054V23.4261H138.023ZM149.767 24.6336C149.676 24.4827 149.586 24.3318 149.405 24.211C149.254 24.0902 149.103 24.0299 148.891 23.9695C148.71 23.9393 148.499 23.8789 148.257 23.8789C148.106 23.8789 147.895 23.8789 147.744 23.9091C147.593 23.9393 147.382 23.9997 147.261 24.0902C147.11 24.1808 146.989 24.2714 146.899 24.4223C146.808 24.5733 146.778 24.7242 146.778 24.9053C146.778 25.0563 146.808 25.2072 146.899 25.328C146.989 25.4487 147.08 25.5695 147.201 25.6299C147.322 25.7204 147.472 25.7808 147.623 25.811C147.774 25.8412 147.925 25.9016 148.046 25.9318L149.072 26.1733C149.314 26.2035 149.495 26.2638 149.737 26.3242C149.918 26.4148 150.129 26.5053 150.31 26.6563C150.461 26.8072 150.612 26.9582 150.703 27.1393C150.823 27.3204 150.854 27.5619 150.854 27.8336C150.854 28.1657 150.763 28.4374 150.612 28.6789C150.461 28.9204 150.25 29.1016 150.039 29.2525C149.797 29.4034 149.525 29.5242 149.223 29.5544C148.922 29.645 148.65 29.645 148.318 29.645C147.563 29.645 146.989 29.494 146.506 29.1619C146.023 28.8299 145.812 28.2865 145.722 27.5318H146.506C146.537 28.0148 146.748 28.4072 147.05 28.6789C147.352 28.9506 147.835 29.0714 148.348 29.0714C148.529 29.0714 148.74 29.0412 148.922 28.9808C149.103 28.9204 149.314 28.8601 149.465 28.7997C149.616 28.7393 149.767 28.5582 149.888 28.4676C150.008 28.3167 150.039 28.1355 150.039 27.9242C150.039 27.7431 150.008 27.5921 149.918 27.4714C149.827 27.3506 149.737 27.2299 149.616 27.1695C149.495 27.0789 149.344 27.0185 149.193 26.9884C149.042 26.9582 148.831 26.8676 148.68 26.8374L147.714 26.5959C147.472 26.5053 147.231 26.445 147.02 26.3544C146.839 26.2638 146.627 26.1733 146.476 26.0525C146.325 25.9317 146.205 25.7808 146.114 25.5997C146.023 25.4185 145.993 25.2072 145.993 24.9355C145.993 24.6336 146.084 24.3619 146.174 24.1204C146.325 23.8789 146.476 23.728 146.718 23.577C146.959 23.4261 147.201 23.3355 147.472 23.2752C147.744 23.1846 148.016 23.1846 148.288 23.1846C148.589 23.1846 148.922 23.2148 149.163 23.3053C149.435 23.3959 149.676 23.4865 149.857 23.6978C150.039 23.8487 150.22 24.0902 150.371 24.3016C150.491 24.5431 150.552 24.845 150.552 25.177H149.888C149.918 24.9959 149.888 24.7846 149.767 24.6336ZM152.182 27.5318C152.272 27.8336 152.363 28.0752 152.544 28.2865C152.695 28.528 152.937 28.7091 153.178 28.8601C153.45 29.011 153.752 29.1016 154.114 29.1016C154.657 29.1016 155.08 28.9506 155.412 28.6789C155.714 28.4072 155.955 28.0148 156.076 27.5318H156.861C156.71 28.2261 156.378 28.7393 155.955 29.1318C155.533 29.5242 154.899 29.7053 154.114 29.7053C153.601 29.7053 153.178 29.6148 152.816 29.4336C152.454 29.2827 152.152 29.011 151.94 28.7393C151.699 28.4374 151.548 28.0751 151.427 27.7129C151.306 27.3204 151.276 26.8978 151.276 26.5053C151.276 26.0827 151.306 25.6902 151.427 25.328C151.548 24.9355 151.699 24.6035 151.94 24.3016C152.182 23.9997 152.454 23.7582 152.816 23.577C153.178 23.3959 153.601 23.3053 154.114 23.3053C154.627 23.3053 155.05 23.4261 155.412 23.6072C155.774 23.7884 156.046 24.0601 156.288 24.3619C156.529 24.6638 156.68 25.0563 156.771 25.4789C156.861 25.9016 156.922 26.3242 156.891 26.7468H152.091C152.122 26.9582 152.122 27.2299 152.182 27.5318ZM155.986 25.2374C155.895 24.9657 155.744 24.7544 155.593 24.5431C155.442 24.3619 155.201 24.1506 154.959 24.0601C154.718 23.9393 154.446 23.8789 154.144 23.8789C153.842 23.8789 153.571 23.9695 153.329 24.0601C153.088 24.1808 152.906 24.3317 152.695 24.5431C152.544 24.7242 152.393 24.9657 152.303 25.2374C152.182 25.5091 152.152 25.7808 152.122 26.0525H156.197C156.137 25.7808 156.106 25.5091 155.986 25.2374ZM158.552 23.4261V24.8751H158.582C158.763 24.3921 159.095 23.9997 159.488 23.728C159.88 23.4563 160.393 23.3355 160.937 23.3355V24.0902C160.574 24.0902 160.272 24.1204 160.001 24.2412C159.729 24.3619 159.488 24.5129 159.246 24.694C159.065 24.8751 158.884 25.1167 158.763 25.3884C158.642 25.6601 158.612 25.9619 158.612 26.2638V29.5242H157.827V23.4261H158.552ZM162.416 23.4261L164.378 28.7695H164.408L166.371 23.4261H167.155L164.801 29.5242H163.986L161.571 23.4261H162.416ZM168.514 21.1016V22.2789H167.729V21.1016H168.514ZM168.514 23.4261V29.5242H167.729V23.4261H168.514ZM173.465 24.2714C173.193 23.9997 172.801 23.8789 172.288 23.8789C171.925 23.8789 171.623 23.9695 171.352 24.1204C171.08 24.2714 170.839 24.4525 170.657 24.694C170.476 24.9355 170.355 25.2374 170.235 25.5393C170.114 25.8412 170.084 26.1431 170.084 26.5053C170.084 26.8374 170.114 27.1695 170.235 27.4714C170.355 27.7733 170.476 28.045 170.657 28.3167C170.839 28.5582 171.05 28.7695 171.352 28.9204C171.623 29.0714 171.925 29.1619 172.288 29.1619C172.529 29.1619 172.771 29.1318 172.952 29.0412C173.133 28.9506 173.344 28.8601 173.495 28.7091C173.646 28.5582 173.797 28.377 173.888 28.1657C174.008 27.9242 174.039 27.7129 174.069 27.4714H174.854C174.733 28.1959 174.461 28.7997 174.039 29.1921C173.555 29.6148 173.012 29.7959 172.288 29.7959C171.805 29.7959 171.382 29.7053 171.05 29.5242C170.688 29.3733 170.386 29.1318 170.114 28.8299C169.872 28.528 169.691 28.1657 169.54 27.8035C169.42 27.411 169.359 26.9884 169.359 26.5355C169.359 26.0827 169.45 25.6902 169.54 25.2676C169.661 24.8752 169.842 24.5431 170.114 24.2412C170.355 23.9393 170.657 23.6978 171.05 23.5468C171.412 23.3657 171.835 23.2752 172.288 23.2752C172.952 23.2752 173.525 23.4563 174.008 23.8185C174.491 24.1506 174.763 24.694 174.823 25.3884H174.039C173.918 24.8752 173.767 24.5431 173.465 24.2714ZM176.393 27.5318C176.484 27.8336 176.574 28.0752 176.755 28.2865C176.906 28.528 177.148 28.7091 177.389 28.8601C177.661 29.011 177.963 29.1016 178.325 29.1016C178.869 29.1016 179.291 28.9506 179.623 28.6789C179.925 28.4072 180.167 28.0148 180.288 27.5318H181.072C180.922 28.2261 180.589 28.7393 180.167 29.1318C179.744 29.5242 179.11 29.7053 178.325 29.7053C177.812 29.7053 177.389 29.6148 177.027 29.4336C176.665 29.2827 176.363 29.011 176.152 28.7393C175.91 28.4374 175.759 28.0751 175.639 27.7129C175.518 27.3204 175.488 26.8978 175.488 26.5053C175.488 26.0827 175.518 25.6902 175.639 25.328C175.759 24.9355 175.91 24.6035 176.152 24.3016C176.393 23.9997 176.665 23.7582 177.027 23.577C177.389 23.3959 177.812 23.3053 178.325 23.3053C178.839 23.3053 179.261 23.4261 179.623 23.6072C179.986 23.7884 180.257 24.0601 180.499 24.3619C180.74 24.6638 180.891 25.0563 180.982 25.4789C181.072 25.9016 181.133 26.3242 181.103 26.7468H176.303C176.272 26.9582 176.303 27.2299 176.393 27.5318ZM180.137 25.2374C180.046 24.9657 179.895 24.7544 179.744 24.5431C179.593 24.3619 179.352 24.1506 179.11 24.0601C178.869 23.9393 178.597 23.8789 178.295 23.8789C177.993 23.8789 177.722 23.9695 177.48 24.0601C177.239 24.1808 177.057 24.3317 176.846 24.5431C176.695 24.7242 176.544 24.9657 176.454 25.2374C176.333 25.5091 176.303 25.7808 176.272 26.0525H180.348C180.288 25.7808 180.257 25.5091 180.137 25.2374Z" fill="#696969"/>
<path d="M12.9509 -0.0908203C5.79623 -0.0908203 0 5.55446 0 12.5582C0 19.5318 5.79623 25.2073 12.9509 25.2073C20.1057 25.2073 25.9019 19.562 25.9019 12.5582C25.9019 5.55446 20.1057 -0.0908203 12.9509 -0.0908203ZM17.9019 10.0224C16.3623 8.27144 14.0981 7.12427 11.5623 7.12427C7.03396 7.12427 3.29057 10.7167 3.29057 15.1846C3.29057 15.9997 3.41132 16.7545 3.65283 17.5092C2.77736 16.0299 2.32453 14.3092 2.32453 12.4677C2.32453 6.79219 7.06415 2.20351 12.8604 2.20351C16.9358 2.20351 20.4679 4.46767 22.2189 7.72805C21.1019 8.3922 19.1698 9.35824 17.9019 10.0224Z" fill="#696969"/>
</g>
<defs>
<clipPath id="clip0_10169_250707">
<rect width="189" height="32" fill="white"/>
</clipPath>
</defs>
</svg>
