<svg width="162" height="20" viewBox="0 0 162 20" fill="none" xmlns="http://www.w3.org/2000/svg">
<g clip-path="url(#clip0_10169_250664)">
<path d="M5.86513 9.11535C5.80644 9.03847 5.72889 8.97805 5.63999 8.93994C5.55109 8.90184 5.45386 8.88734 5.35771 8.89786C5.26157 8.90838 5.16977 8.94355 5.09121 8.99997C5.01265 9.05639 4.94999 9.13214 4.90931 9.21989L0.0615361 18.9154C0.0172553 19.0037 -0.00373889 19.1018 0.000545932 19.2005C0.00483076 19.2991 0.0342524 19.395 0.0860189 19.4791C0.137785 19.5632 0.210179 19.6326 0.296331 19.6809C0.382482 19.7291 0.479533 19.7546 0.578274 19.7548H7.32872C7.43799 19.7569 7.54548 19.7268 7.63786 19.6684C7.73024 19.61 7.80346 19.5258 7.84844 19.4262C9.30307 16.4393 8.42193 11.8484 5.86513 9.11535Z" fill="#696969"/>
<path d="M9.42341 0.310083C8.21492 2.16921 7.51065 4.31064 7.37973 6.52416C7.24882 8.73767 7.69576 10.9472 8.67668 12.9358L11.9474 19.4264C11.9951 19.5228 12.0687 19.6041 12.1599 19.6611C12.2512 19.718 12.3565 19.7485 12.4641 19.749H19.2145C19.3092 19.7412 19.4006 19.7109 19.4812 19.6607C19.5618 19.6106 19.6292 19.5419 19.678 19.4604C19.7268 19.379 19.7554 19.287 19.7616 19.1923C19.7677 19.0976 19.7512 19.0027 19.7134 18.9156L10.4091 0.310083C10.3645 0.217183 10.2946 0.13877 10.2074 0.0838847C10.1202 0.0289995 10.0193 -0.00012207 9.91625 -0.00012207C9.81322 -0.00012207 9.71228 0.0289995 9.62508 0.0838847C9.53788 0.13877 9.46797 0.217183 9.42341 0.310083Z" fill="#696969"/>
<path d="M152.037 10.6448L156.938 19.7549H161.293V3.49414H157.828V13.9872L156.517 10.9435L152.58 3.49414H147.111V19.7549H150.576V7.35325L152.037 10.6448Z" fill="#696969"/>
<path d="M125.073 3.49414H121.285V19.7549H125.073V3.49414Z" fill="#696969"/>
<path d="M116.915 14.9461C116.915 12.0995 115.407 10.7644 111.147 9.84739C108.797 9.32767 108.229 8.80794 108.229 8.05524C108.229 7.11436 109.069 6.7171 110.619 6.7171C112.501 6.7171 114.358 7.2876 116.115 8.07913V4.36041C114.428 3.59248 112.591 3.2118 110.738 3.24629C106.53 3.24629 104.352 5.07728 104.352 8.07316C104.352 10.4627 105.466 12.3773 109.821 13.2196C112.42 13.7632 112.967 14.1844 112.967 15.0506C112.967 15.9168 112.42 16.4365 110.577 16.4365C108.365 16.3961 106.197 15.8103 104.266 14.731V18.6409C105.577 19.2831 107.309 19.9999 110.538 19.9999C115.09 19.9999 116.897 17.9718 116.897 14.952" fill="#696969"/>
<path d="M101.151 14.9461C101.151 12.0995 99.6572 10.7644 95.3859 9.84739C93.0352 9.32767 92.4647 8.80794 92.4647 8.05524C92.4647 7.11436 93.307 6.7171 94.8542 6.7171C96.736 6.7171 98.5909 7.2876 100.347 8.07913V4.36041C98.6606 3.59248 96.8236 3.2118 94.9707 3.24629C90.7651 3.24629 88.5847 5.07728 88.5847 8.07316C88.5847 10.4627 89.6988 12.3773 94.0567 13.2196C96.6553 13.7632 97.199 14.1844 97.199 15.0506C97.199 15.9168 96.6553 16.4365 94.8094 16.4365C92.5973 16.3961 90.4294 15.8103 88.498 14.731V18.6409C89.8123 19.2831 91.5447 19.9999 94.7706 19.9999C99.3256 19.9999 101.13 17.9718 101.13 14.952" fill="#696969"/>
<path d="M62.9988 16.2393V3.49414H59.1875V19.7549H66.9714L68.1961 16.2393H62.9988Z" fill="#696969"/>
<path d="M51.8285 19.7549V7.00676H56.3328V3.49414H43.8086V7.00676H48.0172V19.7549H51.8285Z" fill="#696969"/>
<path d="M38.2826 3.49414H33.2884L27.6133 19.7549H31.9593L32.7657 17.0159C34.745 17.5976 36.8499 17.5976 38.8292 17.0159L39.6327 19.7549H43.9637L38.2826 3.49414ZM35.7855 14.0858C35.0779 14.0868 34.3737 13.9862 33.6947 13.7871L35.7855 6.69015L37.8764 13.7871C37.1972 13.986 36.4931 14.0866 35.7855 14.0858Z" fill="#696969"/>
<path d="M80.388 3.49414H75.3939L69.7188 19.7549H74.0498L74.8563 17.0159C76.8356 17.5976 78.9404 17.5976 80.9197 17.0159L81.7232 19.7549H86.0542L80.388 3.49414ZM77.891 14.0858C77.1833 14.087 76.4791 13.9864 75.8001 13.7871L77.891 6.69015L79.9818 13.7871C79.3028 13.9865 78.5986 14.0871 77.891 14.0858Z" fill="#696969"/>
<path d="M138.718 3.49414H133.724L128.049 19.7549H132.38L133.183 17.0159C135.163 17.5976 137.268 17.5976 139.247 17.0159L140.05 19.7549H144.384L138.718 3.49414ZM136.221 14.0858C135.513 14.0866 134.809 13.986 134.13 13.7871L136.221 6.69015L138.312 13.7871C137.633 13.986 136.929 14.0866 136.221 14.0858Z" fill="#696969"/>
</g>
<defs>
<clipPath id="clip0_10169_250664">
<rect width="161.293" height="20" fill="white"/>
</clipPath>
</defs>
</svg>
