<svg width="22" height="22" viewBox="0 0 22 22" fill="none" xmlns="http://www.w3.org/2000/svg">
<path d="M9.43914 17.3657C9.71756 17.1486 9.97009 16.896 10.4751 16.391L16.9465 9.91965C16.0657 9.55307 15.0225 8.95093 14.0359 7.96435C13.0492 6.97761 12.447 5.93426 12.0805 5.05341L5.60897 11.5249L5.60892 11.525C5.10395 12.0299 4.85144 12.2824 4.63429 12.5609C4.37812 12.8893 4.15849 13.2446 3.9793 13.6206C3.82739 13.9394 3.71447 14.2782 3.48862 14.9557L2.29764 18.5286C2.1865 18.8621 2.27328 19.2297 2.5218 19.4782C2.77033 19.7267 3.13793 19.8135 3.47136 19.7024L7.04428 18.5114C7.72182 18.2855 8.06061 18.1726 8.37935 18.0207C8.75535 17.8415 9.11071 17.6219 9.43914 17.3657Z" fill="#293642"/>
<path d="M18.7422 8.12392C20.0859 6.78018 20.0859 4.60155 18.7422 3.25781C17.3985 1.91406 15.2198 1.91406 13.8761 3.25781L13.0999 4.03396C13.1105 4.06606 13.1216 4.0986 13.133 4.13156C13.4175 4.95156 13.9543 6.02651 14.964 7.03627C15.9738 8.04603 17.0487 8.5828 17.8687 8.86729C17.9015 8.87867 17.9339 8.88965 17.9659 8.90023L18.7422 8.12392Z" fill="#293642"/>
</svg>
