<svg width="16" height="17" viewBox="0 0 16 17" fill="none" xmlns="http://www.w3.org/2000/svg">
<g clip-path="url(#clip0_11174_190894)">
<path fill-rule="evenodd" clip-rule="evenodd" d="M5.852 1.09961H10.1511C10.9373 1.0996 11.567 1.0996 12.0759 1.14118C12.5985 1.18388 13.0508 1.27364 13.4671 1.48576C14.1338 1.82542 14.6757 2.36741 15.0154 3.03404C15.2275 3.45036 15.3173 3.90264 15.36 4.42523C15.4016 4.93417 15.4016 5.56383 15.4016 6.35005V10.6492C15.4016 11.4354 15.4016 12.0651 15.36 12.574C15.3173 13.0966 15.2275 13.5489 15.0154 13.9652C14.6757 14.6318 14.1338 15.1738 13.4671 15.5135C13.0508 15.7256 12.5985 15.8153 12.0759 15.858C11.567 15.8996 10.9373 15.8996 10.1511 15.8996H5.852C5.06578 15.8996 4.43612 15.8996 3.92718 15.858C3.40459 15.8153 2.95231 15.7256 2.536 15.5135C1.86936 15.1738 1.32738 14.6318 0.987711 13.9652C0.775589 13.5489 0.685831 13.0966 0.643134 12.574C0.601552 12.065 0.601557 11.4354 0.601563 10.6492V6.35005C0.601557 5.56383 0.601552 4.93417 0.643134 4.42523C0.685831 3.90264 0.775589 3.45036 0.987711 3.03404C1.32738 2.36741 1.86936 1.82542 2.536 1.48576C2.95231 1.27364 3.40459 1.18388 3.92718 1.14118C4.43612 1.0996 5.06578 1.0996 5.852 1.09961ZM4.03304 2.43686C3.59085 2.47299 3.32869 2.54089 3.12618 2.64407C2.70416 2.8591 2.36105 3.20221 2.14602 3.62423C2.04284 3.82673 1.97495 4.0889 1.93882 4.53109C1.90207 4.98087 1.90156 5.55738 1.90156 6.37818V10.621C1.90156 11.4418 1.90207 12.0183 1.93882 12.4681C1.97495 12.9103 2.04284 13.1725 2.14602 13.375C2.36105 13.797 2.70416 14.1401 3.12618 14.3552C3.32869 14.4583 3.59085 14.5262 4.03304 14.5624C4.48282 14.5991 5.05933 14.5996 5.88013 14.5996H10.123C10.9438 14.5996 11.5203 14.5991 11.9701 14.5624C12.4123 14.5262 12.6744 14.4583 12.8769 14.3552C13.299 14.1401 13.6421 13.797 13.8571 13.375C13.9603 13.1725 14.0282 12.9103 14.0643 12.4681C14.1011 12.0183 14.1016 11.4418 14.1016 10.621V6.37818C14.1016 5.55738 14.1011 4.98087 14.0643 4.53109C14.0282 4.0889 13.9603 3.82673 13.8571 3.62423C13.6421 3.20221 13.299 2.8591 12.8769 2.64407C12.6744 2.54089 12.4123 2.47299 11.9701 2.43686C11.5203 2.40012 10.9438 2.39961 10.123 2.39961H5.88013C5.05933 2.39961 4.48282 2.40012 4.03304 2.43686Z" fill="#5578A0"/>
<path fill-rule="evenodd" clip-rule="evenodd" d="M10.8944 4.64247C11.427 4.64247 11.8587 5.0742 11.8587 5.60676L11.8587 11.3925C11.8587 11.925 11.427 12.3568 10.8944 12.3568C10.3619 12.3568 9.93013 11.925 9.93013 11.3925V5.60676C9.93013 5.0742 10.3619 4.64247 10.8944 4.64247Z" fill="#5578A0"/>
</g>
<defs>
<clipPath id="clip0_11174_190894">
<rect width="16" height="16" fill="white" transform="translate(0 0.5)"/>
</clipPath>
</defs>
</svg>
