<svg width="158" height="32" viewBox="0 0 158 32" fill="none" xmlns="http://www.w3.org/2000/svg">
<mask id="mask0_11174_190869" style="mask-type:luminance" maskUnits="userSpaceOnUse" x="1" y="7" width="10" height="20">
<path d="M5.85943 25.1827L1.54688 7.45312H7.97431C8.76485 10.1397 9.95957 16.5323 11.001 22.5355L6.17634 26.5467C6.0696 26.0782 5.96597 25.6207 5.85943 25.1827Z" fill="white"/>
</mask>
<g mask="url(#mask0_11174_190869)">
<path d="M1.54688 26.546H11.0018V7.45312H1.54688V26.546Z" fill="url(#paint0_linear_11174_190869)"/>
</g>
<path opacity="0.3" d="M4.23438 7.45312C5.50048 10.784 5.96991 14.3368 6.56401 19.0828C6.7997 20.9693 7.05584 23.0457 7.3899 25.3705L7.41133 25.5205L8.20605 24.8592C7.80772 22.9697 7.44736 20.9576 7.08506 18.9299C6.70036 16.7795 6.31566 14.6115 5.88323 12.5516C5.42451 10.3671 4.89178 8.70949 4.34346 7.45312H4.23438Z" fill="#870000"/>
<path opacity="0.3" d="M5.88353 12.5516C6.31595 14.6115 6.70065 16.7795 7.08536 18.9299L7.19833 19.5668L7.26456 19.5035L9.99448 16.8983C9.25137 12.8876 8.51898 9.29774 7.97553 7.45312H4.34375C4.89207 8.70949 5.42481 10.3671 5.88353 12.5516Z" fill="#FFFF00"/>
<path opacity="0.3" d="M5.8629 25.1846L5 21.6405C5.76551 20.8954 6.55049 20.1893 7.26633 19.5056L9.99625 16.9004C10.3362 18.7333 10.677 20.6549 11.0043 22.5375L6.17943 26.5481L6.16676 26.4955L6.16482 26.4848L6.1541 26.4361L6.14047 26.3777L6.12683 26.3192V26.3183L6.11417 26.2618L6.10054 26.2033L6.08885 26.1517L6.08788 26.1449L6.05087 25.9871L6.04795 25.9725L6.03431 25.9151L6.02165 25.8576L6.01386 25.8245L6.00802 25.8001L5.99535 25.7437L5.98172 25.6872L5.97588 25.6618L5.96906 25.6307L5.95542 25.5742L5.94179 25.5177L5.93789 25.5011L5.93692 25.4953L5.9038 25.356L5.90283 25.3502L5.90088 25.3424L5.89796 25.3327L5.8629 25.1846Z" fill="#870000"/>
<path opacity="0.3" d="M7.30644 7.45312C7.90053 8.28778 8.33296 9.74672 8.60371 10.9651C8.77415 11.7335 9.20462 14.1236 9.7471 17.134L9.99448 16.8983C9.25137 12.8876 8.51898 9.29774 7.97553 7.45312H7.30644ZM5.88353 12.5516C6.31595 14.6115 6.70163 16.7795 7.08536 18.9299L7.19931 19.5668L7.26456 19.5035L7.31326 19.4568C6.98699 17.2469 6.57891 14.5638 6.33738 13.2314C5.96242 11.1735 4.97096 8.653 5.40046 7.45312H4.34375C4.89207 8.70949 5.42481 10.3671 5.88353 12.5516Z" fill="white"/>
<mask id="mask1_11174_190869" style="mask-type:luminance" maskUnits="userSpaceOnUse" x="5" y="3" width="25" height="25">
<path d="M7.77011 19.6903L21.0471 7.01524L18.3349 3.51562H29.448L27.4008 15.2137L24.8298 11.8963C24.6699 12.1119 24.4908 12.3282 24.2883 12.5448C21.5715 15.4508 12.0089 23.377 6.493 27.8897C6.26315 26.954 6.06749 26.0299 5.86053 25.1792L5.13281 22.1873C6.01782 21.2976 6.95182 20.4715 7.77011 19.6903Z" fill="white"/>
</mask>
<g mask="url(#mask1_11174_190869)">
<path d="M5.13281 27.8901H29.4479V3.51562H5.13281V27.8901Z" fill="url(#paint1_linear_11174_190869)"/>
</g>
<path opacity="0.3" d="M27.6267 5.19141L14.8448 16.9311L12.448 19.1332L12.0127 19.5325L10.6881 20.7489L10.5186 20.9048L7.89196 23.3172L7.19073 23.9609L5.85938 25.1842C5.87106 25.2335 5.88275 25.2829 5.89444 25.3322C5.89509 25.3355 5.89606 25.3387 5.89736 25.342C5.89801 25.3446 5.89866 25.3472 5.89931 25.3498C5.89931 25.3517 5.89963 25.3537 5.90028 25.3556C5.90937 25.3939 5.91846 25.4322 5.92755 25.4705L5.93339 25.4949L5.93437 25.5007L5.93826 25.5173L5.93924 25.5212C5.94378 25.5387 5.948 25.5562 5.9519 25.5738C5.95644 25.5926 5.96099 25.6114 5.96553 25.6303C5.96748 25.6406 5.96975 25.651 5.97235 25.6614L5.97819 25.6867L5.99183 25.7432L6.00449 25.7997L6.01033 25.8241L6.01813 25.8572L6.03079 25.9146L6.04442 25.9721L6.04734 25.9867L6.08435 26.1445L6.08533 26.1513L6.09701 26.2029L6.11065 26.2614L6.12331 26.3179V26.3188L6.13694 26.3773L6.15058 26.4357L6.16129 26.4844L6.16324 26.4951L6.17688 26.5535L7.38455 25.3507L8.14811 24.5901L10.8839 21.866L11.1975 21.5534L12.7022 20.0545L13.0869 19.6718L15.3824 17.386L27.6267 5.19141Z" fill="#293642"/>
<path opacity="0.3" d="M14.8468 16.9305L27.6286 5.19079L29.4479 3.51953H18.3354L21.0478 7.01983L10.0998 17.471L7.77021 19.6945C7.6173 19.8406 7.4605 19.9877 7.30078 20.1367C7.12352 20.3023 6.94237 20.4698 6.75927 20.6402C6.22361 21.1369 5.66945 21.6521 5.13281 22.1917L5.86131 25.1836L7.19267 23.9603L7.8939 23.3166L10.5206 20.9041L10.69 20.7483L12.0146 19.5319L12.4499 19.1326L14.8468 16.9305Z" fill="white"/>
<path opacity="0.3" d="M14.847 16.9305L27.6288 5.19079L29.4481 3.51953H18.3356L21.048 7.01983L10.1001 17.471L7.77046 19.6945C7.61755 19.8406 7.46075 19.9877 7.30103 20.1367C7.21208 20.2198 7.12215 20.3035 7.03125 20.388C7.04781 20.3733 17.3666 11.3782 19.3027 9.44198C21.2399 7.50484 22.7758 6.77342 23.6893 7.0656C24.6029 7.35875 15.3281 16.0228 12.0148 19.5319L12.4502 19.1326L14.847 16.9305Z" fill="white"/>
<path d="M38.4186 21.707V8.02514H48.4199V11.0506H42.1956V13.5172H48.0731V16.5233H42.1956V21.707H38.4186ZM56.8653 22.0154C52.5295 22.0154 49.928 19.279 49.928 14.8854C49.928 10.4917 52.5295 7.71682 56.8653 7.71682C61.2011 7.71682 63.8026 10.4917 63.8026 14.8854C63.8026 19.279 61.2011 22.0154 56.8653 22.0154ZM56.8653 18.9899C58.7923 18.9899 59.9292 17.5061 59.9292 14.8854C59.9292 12.2646 58.7923 10.7422 56.8653 10.7422C54.9382 10.7422 53.8013 12.2646 53.8013 14.8854C53.8013 17.5061 54.9382 18.9899 56.8653 18.9899ZM71.5307 22.0154C67.8886 22.0154 65.5762 19.9342 65.5762 16.6582V8.00587H69.3532V16.6582C69.3532 18.1613 70.124 18.9899 71.5307 18.9899C72.9567 18.9899 73.7275 18.1613 73.7275 16.6582V8.00587H77.5045V16.6582C77.5045 19.9342 75.192 22.0154 71.5307 22.0154ZM79.7955 21.707V8.02514H86.3282C89.4114 8.02514 91.4155 9.62457 91.4155 12.0719C91.4155 13.787 90.5291 15.001 88.9489 15.502C90.4134 15.6754 91.1264 16.4848 91.2228 17.853L91.5311 21.707H87.6771L87.4844 18.5082C87.4266 17.5061 87.0219 17.0436 85.7886 17.0436H83.5725V21.707H79.7955ZM85.6344 14.0182C86.887 14.0182 87.5614 13.4594 87.5614 12.5151C87.5614 11.5323 86.887 11.0506 85.6344 11.0506H83.5725V14.0182H85.6344ZM96.9848 21.707V11.0506H92.9958V8.02514H104.77V11.0506H100.781V21.707H96.9848ZM106.696 21.707V8.02514H110.473V13.3052H114.539V8.02514H118.316V21.707H114.539V16.3306H110.473V21.707H106.696Z" fill="#293642"/>
<path d="M128.979 21.707V8.02514H132.755V21.707H128.979ZM138.697 21.707V11.0506H134.708V8.02514H146.482V11.0506H142.493V21.707H138.697Z" fill="#4849E8"/>
<defs>
<linearGradient id="paint0_linear_11174_190869" x1="1.9865" y1="55.489" x2="-24.0794" y2="5.16994" gradientUnits="userSpaceOnUse">
<stop stop-color="#3D6FEA"/>
<stop offset="1" stop-color="#FFFF00"/>
</linearGradient>
<linearGradient id="paint1_linear_11174_190869" x1="-15.0294" y1="34.9332" x2="15.5148" y2="-12.8004" gradientUnits="userSpaceOnUse">
<stop stop-color="#3A6CE6"/>
<stop offset="1" stop-color="#4849E8"/>
</linearGradient>
</defs>
</svg>
