<svg width="22" height="22" viewBox="0 0 22 22" fill="none" xmlns="http://www.w3.org/2000/svg">
<path d="M3.125 6.08773C3.125 5.66383 3.42721 5.32019 3.8 5.32019L6.13121 5.31978C6.5944 5.30643 7.00301 4.97154 7.16062 4.4761C7.16477 4.46308 7.16953 4.44701 7.18662 4.38871L7.28707 4.04599C7.34854 3.83586 7.40209 3.65279 7.47703 3.48915C7.77308 2.84269 8.32082 2.39378 8.95378 2.27885C9.114 2.24976 9.28367 2.24988 9.47843 2.25002H12.5217C12.7165 2.24988 12.8861 2.24976 13.0464 2.27885C13.6793 2.39378 14.2271 2.84269 14.5231 3.48915C14.5981 3.65279 14.6516 3.83586 14.7131 4.04599L14.8135 4.38871C14.8306 4.44701 14.8354 4.46308 14.8395 4.4761C14.9971 4.97154 15.4868 5.30684 15.95 5.32019H18.2C18.5728 5.32019 18.875 5.66383 18.875 6.08773C18.875 6.51163 18.5728 6.85526 18.2 6.85526H3.8C3.42721 6.85526 3.125 6.51163 3.125 6.08773Z" fill="#E84865"/>
<path fill-rule="evenodd" clip-rule="evenodd" d="M10.6462 19.7501H11.3538C13.7887 19.7501 15.0062 19.7501 15.7977 18.9749C16.5893 18.1997 16.6703 16.9282 16.8322 14.3851L17.0656 10.7206C17.1535 9.34077 17.1974 8.65084 16.8003 8.21363C16.4032 7.77643 15.7326 7.77643 14.3915 7.77643H7.60854C6.26736 7.77643 5.59677 7.77643 5.19967 8.21363C4.80257 8.65084 4.84651 9.34077 4.93439 10.7206L5.16777 14.3851C5.32973 16.9282 5.41072 18.1997 6.20228 18.9749C6.99384 19.7501 8.21128 19.7501 10.6462 19.7501ZM9.46549 11.165C9.42943 10.7854 9.10784 10.5084 8.7472 10.5464C8.38656 10.5844 8.12344 10.9229 8.15951 11.3025L8.59701 15.9078C8.63307 16.2874 8.95466 16.5644 9.3153 16.5264C9.67594 16.4884 9.93906 16.1499 9.90299 15.7703L9.46549 11.165ZM13.2528 10.5464C13.6134 10.5844 13.8766 10.9229 13.8405 11.3025L13.403 15.9078C13.3669 16.2874 13.0453 16.5644 12.6847 16.5264C12.3241 16.4884 12.0609 16.1499 12.097 15.7703L12.5345 11.165C12.5706 10.7854 12.8922 10.5084 13.2528 10.5464Z" fill="#E84865"/>
</svg>
