<svg width="20" height="20" viewBox="0 0 20 20" fill="none" xmlns="http://www.w3.org/2000/svg">
<path d="M16.6667 9.37502C17.0119 9.37502 17.2917 9.65484 17.2917 10C17.2917 10.3452 17.0119 10.625 16.6667 10.625H8.95836L8.95836 15C8.95836 15.2528 8.80608 15.4807 8.57254 15.5774C8.33899 15.6742 8.07017 15.6207 7.89142 15.442L2.89142 10.442C2.77421 10.3247 2.70836 10.1658 2.70836 10C2.70836 9.83426 2.77421 9.67529 2.89142 9.55808L7.89142 4.55808C8.07017 4.37933 8.33899 4.32586 8.57254 4.42259C8.80608 4.51933 8.95836 4.74723 8.95836 5.00002L8.95836 9.37502H16.6667Z" fill="#4849E8"/>
</svg>
