<svg width="21" height="21" viewBox="0 0 21 21" fill="none" xmlns="http://www.w3.org/2000/svg">
<path d="M17.5 9.84375C17.8624 9.84375 18.1562 10.1376 18.1562 10.5C18.1563 10.8624 17.8624 11.1563 17.5 11.1563H9.40625L9.40625 15.75C9.40625 16.0154 9.24636 16.2547 9.00114 16.3563C8.75591 16.4579 8.47365 16.4017 8.28596 16.214L3.03596 10.964C2.91289 10.841 2.84375 10.6741 2.84375 10.5C2.84375 10.326 2.91289 10.159 3.03596 10.036L8.28596 4.78597C8.47365 4.59828 8.75591 4.54213 9.00114 4.64371C9.24636 4.74528 9.40625 4.98458 9.40625 5.25L9.40625 9.84375H17.5Z" fill="#E84865"/>
</svg>
