<svg width="18" height="18" viewBox="0 0 18 18" fill="none" xmlns="http://www.w3.org/2000/svg">
<path fill-rule="evenodd" clip-rule="evenodd" d="M1.20453 4.56059C1.58525 4.39742 2.02616 4.57379 2.18932 4.95451L1.49997 5.24995C2.18932 4.95451 2.18943 4.95475 2.18932 4.95451L2.18894 4.95361C2.18873 4.95312 2.18888 4.95348 2.18894 4.95361L2.19187 4.96026C2.19488 4.96702 2.20004 4.97851 2.20739 4.99441C2.22209 5.02622 2.24547 5.07563 2.27772 5.14012C2.34227 5.26922 2.44195 5.45804 2.57803 5.68665C2.85103 6.14529 3.26579 6.75613 3.83081 7.36461C3.96399 7.50803 4.10493 7.65077 4.25379 7.79099C4.26002 7.79664 4.26617 7.80242 4.27225 7.80832C5.38576 8.851 6.9392 9.74995 8.99997 9.74995C9.90669 9.74995 10.7088 9.57684 11.4157 9.29859C12.3352 8.93666 13.1059 8.39179 13.7367 7.79973C14.4489 7.13123 14.972 6.41248 15.3174 5.85819C15.4894 5.58213 15.6155 5.34983 15.6974 5.18926C15.7383 5.10906 15.768 5.04702 15.7869 5.00665C15.7963 4.98648 15.8029 4.97175 15.8069 4.9629L15.8106 4.95451C15.9739 4.57399 16.4148 4.39747 16.7954 4.56059C17.1761 4.72376 17.3525 5.16467 17.1893 5.54539L16.5 5.24995C17.1893 5.54539 17.1894 5.54522 17.1893 5.54539L17.1877 5.54915L17.185 5.55532L17.1764 5.5747C17.1693 5.5907 17.1593 5.61278 17.1464 5.64048C17.1205 5.69587 17.0831 5.77386 17.0336 5.87075C16.9349 6.06437 16.788 6.33451 16.5905 6.65145C16.2885 7.13607 15.864 7.7371 15.3072 8.34316L15.9053 8.94125C16.1982 9.23414 16.1982 9.70901 15.9053 10.0019C15.6124 10.2948 15.1375 10.2948 14.8446 10.0019L14.2145 9.37177C13.7913 9.71358 13.3177 10.036 12.7918 10.3141L13.3786 11.2159C13.6045 11.5631 13.5062 12.0277 13.159 12.2536C12.8118 12.4795 12.3472 12.3812 12.1213 12.034L11.3822 10.8981C10.873 11.0542 10.329 11.1648 9.74997 11.2167V12.3749C9.74997 12.7892 9.41418 13.1249 8.99997 13.1249C8.58575 13.1249 8.24997 12.7892 8.24997 12.3749V11.2168C7.66898 11.1649 7.12511 11.054 6.61751 10.8984L5.8786 12.034C5.6527 12.3812 5.18811 12.4795 4.84093 12.2536C4.49374 12.0277 4.39542 11.5631 4.62133 11.2159L5.20813 10.3141C4.68304 10.0362 4.20934 9.71378 3.7856 9.37161L3.1553 10.0019C2.8624 10.2948 2.38753 10.2948 2.09464 10.0019C1.80174 9.70901 1.80174 9.23414 2.09464 8.94125L2.69272 8.34317C2.05897 7.65335 1.59579 6.96913 1.28909 6.45387C1.1322 6.1903 1.01509 5.96896 0.936079 5.81094C0.896546 5.73188 0.866468 5.6685 0.845641 5.62341C0.835225 5.60086 0.827115 5.58287 0.821286 5.56976L0.814248 5.55379L0.812004 5.54863L0.8112 5.54677L0.810877 5.54602C0.810737 5.54569 0.810607 5.54539 1.49997 5.24995L0.810877 5.54602C0.64771 5.16529 0.823804 4.72376 1.20453 4.56059Z" fill="#5578A0"/>
</svg>
