<svg width="24" height="24" viewBox="0 0 24 24" fill="none" xmlns="http://www.w3.org/2000/svg">
<path fill-rule="evenodd" clip-rule="evenodd" d="M21.6 12.229C21.6 11.52 21.5364 10.8381 21.4182 10.1836H12V14.0518H17.3818C17.15 15.3018 16.4455 16.3609 15.3864 17.07V19.579H18.6182C20.5091 17.8381 21.6 15.2745 21.6 12.229Z" fill="#4285F4"/>
<path fill-rule="evenodd" clip-rule="evenodd" d="M11.9998 22.0023C14.6998 22.0023 16.9635 21.1069 18.618 19.5796L15.3862 17.0705C14.4907 17.6705 13.3453 18.0251 11.9998 18.0251C9.39529 18.0251 7.19075 16.266 6.40438 13.9023H3.06348V16.4933C4.70893 19.7614 8.09075 22.0023 11.9998 22.0023Z" fill="#34A853"/>
<path fill-rule="evenodd" clip-rule="evenodd" d="M6.40455 13.9026C6.20455 13.3026 6.09091 12.6617 6.09091 12.0026C6.09091 11.3435 6.20455 10.7026 6.40455 10.1026V7.51172H3.06364C2.38636 8.86172 2 10.389 2 12.0026C2 13.6163 2.38636 15.1435 3.06364 16.4935L6.40455 13.9026Z" fill="#FBBC05"/>
<path fill-rule="evenodd" clip-rule="evenodd" d="M11.9998 5.97727C13.468 5.97727 14.7862 6.48182 15.8226 7.47273L18.6907 4.60455C16.9589 2.99091 14.6953 2 11.9998 2C8.09075 2 4.70893 4.24091 3.06348 7.50909L6.40439 10.1C7.19075 7.73636 9.39529 5.97727 11.9998 5.97727Z" fill="#EA4335"/>
</svg>
