<svg width="700" height="1044" viewBox="0 0 700 1044" fill="none" xmlns="http://www.w3.org/2000/svg">
<rect width="700" height="1044" rx="40" fill="#FEC35C"/>
<path opacity="0.16" d="M146 361.808C146 380.14 131.14 395 112.809 395L67.9999 395L67.9999 350.191C67.9999 331.86 82.8602 317 101.191 317L146 317L146 361.808Z" fill="white"/>
<path opacity="0.12" d="M215.809 727C234.14 727 249 741.86 249 760.191V798H211.191C192.86 798 178 783.14 178 764.808V727H215.809Z" fill="white"/>
<path opacity="0.32" fill-rule="evenodd" clip-rule="evenodd" d="M558.294 908.116H430.404C432.585 910.721 434.921 913.191 437.4 915.511H551.298C553.776 913.191 556.113 910.721 558.294 908.116ZM542.197 922.907H446.501C450.526 925.734 454.812 928.213 459.316 930.302H529.382C533.886 928.213 538.172 925.734 542.197 922.907ZM501.49 937.699H487.208C489.562 937.899 491.943 938 494.349 938C496.754 938 499.136 937.899 501.49 937.699ZM563.819 900.721C565.402 898.339 566.865 895.872 568.201 893.326H420.497C421.832 895.872 423.296 898.339 424.879 900.721H563.819ZM417.068 885.93H571.63C572.607 883.519 573.474 881.052 574.225 878.535H414.472C415.224 881.052 416.091 883.519 417.068 885.93ZM412.631 871.141H576.067C576.554 868.712 576.936 866.245 577.207 863.745H411.49C411.762 866.245 412.143 868.712 412.631 871.141ZM411.017 856.349H577.681C577.692 855.785 577.698 855.219 577.698 854.652C577.698 852.737 577.633 850.837 577.506 848.954H411.192C411.065 850.837 411 852.737 411 854.652C411 855.219 411.006 855.785 411.017 856.349ZM412.023 841.557H576.675C576.28 839.053 575.773 836.587 575.16 834.162H413.537C412.924 836.587 412.418 839.053 412.023 841.557ZM415.778 826.768H572.919C572.024 824.245 571.01 821.778 569.885 819.373H418.812C417.687 821.778 416.674 824.245 415.778 826.768ZM422.739 811.976H565.959C564.432 809.419 562.771 806.951 560.988 804.581H427.71C425.926 806.951 424.266 809.419 422.739 811.976ZM433.976 797.187H554.722C552.213 794.552 549.533 792.081 546.701 789.792H441.997C439.164 792.081 436.485 794.552 433.976 797.187ZM452.775 782.395H535.923C530.614 779.334 524.936 776.841 518.973 775H469.725C463.761 776.841 458.084 779.334 452.775 782.395Z" fill="white"/>
<path opacity="0.24" fill-rule="evenodd" clip-rule="evenodd" d="M130.685 302.177C126.766 303.409 122.954 304.899 119.27 306.627H158.003V302.177H130.685ZM153.918 298.09H158.003V298C156.634 298 155.272 298.03 153.918 298.09ZM94.3756 323.702C95.9944 322.159 97.6654 320.675 99.3857 319.251H158.003V323.702H94.3756ZM158.003 315.165H104.697C106.91 313.584 109.191 312.098 111.535 310.714H158.003V315.165ZM83.2514 336.326C82.1802 337.778 81.1475 339.262 80.1548 340.776H158.003V336.326H83.2514ZM86.4378 332.239H158.003V327.789H90.3354C88.9931 329.23 87.6932 330.714 86.4378 332.239ZM71.2201 357.85C71.8278 356.347 72.4708 354.864 73.148 353.4H158.003V357.85H71.2201ZM158.003 349.313H75.1548C75.9388 347.805 76.7599 346.322 77.6169 344.863H158.003V349.313ZM67.0752 370.474C66.6993 371.944 66.3556 373.428 66.045 374.924H158.003V370.474H67.0752ZM68.2136 366.387H158.003V361.937H69.6714C69.1521 363.404 68.6659 364.888 68.2136 366.387ZM64 391.998C64.0515 390.506 64.1352 389.022 64.2506 387.548H158.003V391.998H64ZM158.003 383.461H64.6538C64.8318 381.967 65.0424 380.483 65.2849 379.011H158.003V383.461Z" fill="white"/>
<rect x="249" y="435" width="294" height="72" fill="white"/>
<path d="M74.764 451.704V474.168C74.764 476.629 75.4053 478.519 76.688 479.836C77.9707 481.119 79.7733 481.76 82.096 481.76C84.4533 481.76 86.2733 481.119 87.556 479.836C88.8387 478.519 89.48 476.629 89.48 474.168V451.704H96.812V474.116C96.812 477.201 96.136 479.819 94.784 481.968C93.4667 484.083 91.6813 485.677 89.428 486.752C87.2093 487.827 84.7307 488.364 81.992 488.364C79.288 488.364 76.8267 487.827 74.608 486.752C72.424 485.677 70.6907 484.083 69.408 481.968C68.1253 479.819 67.484 477.201 67.484 474.116V451.704H74.764ZM119.81 458.776C123.242 458.776 126.015 459.868 128.13 462.052C130.244 464.201 131.302 467.217 131.302 471.1V488H124.022V472.088C124.022 469.8 123.45 468.049 122.306 466.836C121.162 465.588 119.602 464.964 117.626 464.964C115.615 464.964 114.02 465.588 112.842 466.836C111.698 468.049 111.126 469.8 111.126 472.088V488H103.846V459.192H111.126V462.78C112.096 461.532 113.327 460.561 114.818 459.868C116.343 459.14 118.007 458.776 119.81 458.776ZM145.505 449.52V488H138.225V449.52H145.505ZM165.489 488.468C162.716 488.468 160.22 487.861 158.001 486.648C155.783 485.4 154.032 483.649 152.749 481.396C151.501 479.143 150.877 476.543 150.877 473.596C150.877 470.649 151.519 468.049 152.801 465.796C154.119 463.543 155.904 461.809 158.157 460.596C160.411 459.348 162.924 458.724 165.697 458.724C168.471 458.724 170.984 459.348 173.237 460.596C175.491 461.809 177.259 463.543 178.541 465.796C179.859 468.049 180.517 470.649 180.517 473.596C180.517 476.543 179.841 479.143 178.489 481.396C177.172 483.649 175.369 485.4 173.081 486.648C170.828 487.861 168.297 488.468 165.489 488.468ZM165.489 482.124C166.807 482.124 168.037 481.812 169.181 481.188C170.36 480.529 171.296 479.559 171.989 478.276C172.683 476.993 173.029 475.433 173.029 473.596C173.029 470.857 172.301 468.76 170.845 467.304C169.424 465.813 167.673 465.068 165.593 465.068C163.513 465.068 161.763 465.813 160.341 467.304C158.955 468.76 158.261 470.857 158.261 473.596C158.261 476.335 158.937 478.449 160.289 479.94C161.676 481.396 163.409 482.124 165.489 482.124ZM183.986 473.596C183.986 470.615 184.592 468.015 185.806 465.796C187.019 463.543 188.7 461.809 190.85 460.596C192.999 459.348 195.46 458.724 198.234 458.724C201.804 458.724 204.751 459.625 207.074 461.428C209.431 463.196 211.008 465.692 211.806 468.916H203.954C203.538 467.668 202.827 466.697 201.822 466.004C200.851 465.276 199.638 464.912 198.182 464.912C196.102 464.912 194.455 465.675 193.242 467.2C192.028 468.691 191.422 470.823 191.422 473.596C191.422 476.335 192.028 478.467 193.242 479.992C194.455 481.483 196.102 482.228 198.182 482.228C201.128 482.228 203.052 480.911 203.954 478.276H211.806C211.008 481.396 209.431 483.875 207.074 485.712C204.716 487.549 201.77 488.468 198.234 488.468C195.46 488.468 192.999 487.861 190.85 486.648C188.7 485.4 187.019 483.667 185.806 481.448C184.592 479.195 183.986 476.577 183.986 473.596ZM234.195 488L224.419 475.728V488H217.139V449.52H224.419V471.412L234.091 459.192H243.555L230.867 473.648L243.659 488H234.195ZM280.489 469.384C282.534 469.765 284.215 470.788 285.533 472.452C286.85 474.116 287.509 476.023 287.509 478.172C287.509 480.113 287.023 481.829 286.053 483.32C285.117 484.776 283.747 485.92 281.945 486.752C280.142 487.584 278.01 488 275.549 488H259.897V451.704H274.873C277.334 451.704 279.449 452.103 281.217 452.9C283.019 453.697 284.371 454.807 285.273 456.228C286.209 457.649 286.677 459.261 286.677 461.064C286.677 463.179 286.105 464.947 284.961 466.368C283.851 467.789 282.361 468.795 280.489 469.384ZM267.177 466.68H273.833C275.566 466.68 276.901 466.299 277.837 465.536C278.773 464.739 279.241 463.612 279.241 462.156C279.241 460.7 278.773 459.573 277.837 458.776C276.901 457.979 275.566 457.58 273.833 457.58H267.177V466.68ZM274.509 482.072C276.277 482.072 277.646 481.656 278.617 480.824C279.622 479.992 280.125 478.813 280.125 477.288C280.125 475.728 279.605 474.515 278.565 473.648C277.525 472.747 276.121 472.296 274.353 472.296H267.177V482.072H274.509ZM306.103 488.468C303.329 488.468 300.833 487.861 298.615 486.648C296.396 485.4 294.645 483.649 293.363 481.396C292.115 479.143 291.491 476.543 291.491 473.596C291.491 470.649 292.132 468.049 293.415 465.796C294.732 463.543 296.517 461.809 298.771 460.596C301.024 459.348 303.537 458.724 306.311 458.724C309.084 458.724 311.597 459.348 313.851 460.596C316.104 461.809 317.872 463.543 319.155 465.796C320.472 468.049 321.131 470.649 321.131 473.596C321.131 476.543 320.455 479.143 319.103 481.396C317.785 483.649 315.983 485.4 313.695 486.648C311.441 487.861 308.911 488.468 306.103 488.468ZM306.103 482.124C307.42 482.124 308.651 481.812 309.795 481.188C310.973 480.529 311.909 479.559 312.603 478.276C313.296 476.993 313.643 475.433 313.643 473.596C313.643 470.857 312.915 468.76 311.459 467.304C310.037 465.813 308.287 465.068 306.207 465.068C304.127 465.068 302.376 465.813 300.955 467.304C299.568 468.76 298.875 470.857 298.875 473.596C298.875 476.335 299.551 478.449 300.903 479.94C302.289 481.396 304.023 482.124 306.103 482.124ZM353.667 459.192V488H346.335V484.36C345.399 485.608 344.168 486.596 342.643 487.324C341.152 488.017 339.523 488.364 337.755 488.364C335.501 488.364 333.508 487.896 331.775 486.96C330.041 485.989 328.672 484.585 327.667 482.748C326.696 480.876 326.211 478.657 326.211 476.092V459.192H333.491V475.052C333.491 477.34 334.063 479.108 335.207 480.356C336.351 481.569 337.911 482.176 339.887 482.176C341.897 482.176 343.475 481.569 344.619 480.356C345.763 479.108 346.335 477.34 346.335 475.052V459.192H353.667ZM376.814 458.776C380.246 458.776 383.019 459.868 385.134 462.052C387.248 464.201 388.306 467.217 388.306 471.1V488H381.026V472.088C381.026 469.8 380.454 468.049 379.31 466.836C378.166 465.588 376.606 464.964 374.63 464.964C372.619 464.964 371.024 465.588 369.846 466.836C368.702 468.049 368.13 469.8 368.13 472.088V488H360.85V459.192H368.13V462.78C369.1 461.532 370.331 460.561 371.822 459.868C373.347 459.14 375.011 458.776 376.814 458.776ZM393.357 473.492C393.357 470.58 393.929 467.997 395.073 465.744C396.251 463.491 397.846 461.757 399.857 460.544C401.867 459.331 404.103 458.724 406.565 458.724C408.437 458.724 410.222 459.14 411.921 459.972C413.619 460.769 414.971 461.844 415.977 463.196V449.52H423.361V488H415.977V483.736C415.075 485.157 413.81 486.301 412.181 487.168C410.551 488.035 408.662 488.468 406.513 488.468C404.086 488.468 401.867 487.844 399.857 486.596C397.846 485.348 396.251 483.597 395.073 481.344C393.929 479.056 393.357 476.439 393.357 473.492ZM416.029 473.596C416.029 471.828 415.682 470.32 414.989 469.072C414.295 467.789 413.359 466.819 412.181 466.16C411.002 465.467 409.737 465.12 408.385 465.12C407.033 465.12 405.785 465.449 404.641 466.108C403.497 466.767 402.561 467.737 401.833 469.02C401.139 470.268 400.793 471.759 400.793 473.492C400.793 475.225 401.139 476.751 401.833 478.068C402.561 479.351 403.497 480.339 404.641 481.032C405.819 481.725 407.067 482.072 408.385 482.072C409.737 482.072 411.002 481.743 412.181 481.084C413.359 480.391 414.295 479.42 414.989 478.172C415.682 476.889 416.029 475.364 416.029 473.596ZM437.751 449.52V488H430.471V449.52H437.751ZM471.723 472.972C471.723 474.012 471.654 474.948 471.515 475.78H450.455C450.629 477.86 451.357 479.489 452.639 480.668C453.922 481.847 455.499 482.436 457.371 482.436C460.075 482.436 461.999 481.275 463.143 478.952H470.995C470.163 481.725 468.569 484.013 466.211 485.816C463.854 487.584 460.959 488.468 457.527 488.468C454.754 488.468 452.258 487.861 450.039 486.648C447.855 485.4 446.139 483.649 444.891 481.396C443.678 479.143 443.071 476.543 443.071 473.596C443.071 470.615 443.678 467.997 444.891 465.744C446.105 463.491 447.803 461.757 449.987 460.544C452.171 459.331 454.685 458.724 457.527 458.724C460.266 458.724 462.71 459.313 464.859 460.492C467.043 461.671 468.725 463.352 469.903 465.536C471.117 467.685 471.723 470.164 471.723 472.972ZM464.183 470.892C464.149 469.02 463.473 467.529 462.155 466.42C460.838 465.276 459.226 464.704 457.319 464.704C455.517 464.704 453.991 465.259 452.743 466.368C451.53 467.443 450.785 468.951 450.507 470.892H464.183ZM488.061 488.468C485.704 488.468 483.589 488.052 481.717 487.22C479.845 486.353 478.355 485.192 477.245 483.736C476.171 482.28 475.581 480.668 475.477 478.9H482.809C482.948 480.009 483.485 480.928 484.421 481.656C485.392 482.384 486.588 482.748 488.009 482.748C489.396 482.748 490.471 482.471 491.233 481.916C492.031 481.361 492.429 480.651 492.429 479.784C492.429 478.848 491.944 478.155 490.973 477.704C490.037 477.219 488.529 476.699 486.449 476.144C484.3 475.624 482.532 475.087 481.145 474.532C479.793 473.977 478.615 473.128 477.609 471.984C476.639 470.84 476.153 469.297 476.153 467.356C476.153 465.761 476.604 464.305 477.505 462.988C478.441 461.671 479.759 460.631 481.457 459.868C483.191 459.105 485.219 458.724 487.541 458.724C490.973 458.724 493.712 459.591 495.757 461.324C497.803 463.023 498.929 465.328 499.137 468.24H492.169C492.065 467.096 491.58 466.195 490.713 465.536C489.881 464.843 488.755 464.496 487.333 464.496C486.016 464.496 484.993 464.739 484.265 465.224C483.572 465.709 483.225 466.385 483.225 467.252C483.225 468.223 483.711 468.968 484.681 469.488C485.652 469.973 487.16 470.476 489.205 470.996C491.285 471.516 493.001 472.053 494.353 472.608C495.705 473.163 496.867 474.029 497.837 475.208C498.843 476.352 499.363 477.877 499.397 479.784C499.397 481.448 498.929 482.939 497.993 484.256C497.092 485.573 495.775 486.613 494.041 487.376C492.343 488.104 490.349 488.468 488.061 488.468ZM516.397 488.468C514.04 488.468 511.925 488.052 510.053 487.22C508.181 486.353 506.69 485.192 505.581 483.736C504.506 482.28 503.917 480.668 503.813 478.9H511.145C511.284 480.009 511.821 480.928 512.757 481.656C513.728 482.384 514.924 482.748 516.345 482.748C517.732 482.748 518.806 482.471 519.569 481.916C520.366 481.361 520.765 480.651 520.765 479.784C520.765 478.848 520.28 478.155 519.309 477.704C518.373 477.219 516.865 476.699 514.785 476.144C512.636 475.624 510.868 475.087 509.481 474.532C508.129 473.977 506.95 473.128 505.945 471.984C504.974 470.84 504.489 469.297 504.489 467.356C504.489 465.761 504.94 464.305 505.841 462.988C506.777 461.671 508.094 460.631 509.793 459.868C511.526 459.105 513.554 458.724 515.877 458.724C519.309 458.724 522.048 459.591 524.093 461.324C526.138 463.023 527.265 465.328 527.473 468.24H520.505C520.401 467.096 519.916 466.195 519.049 465.536C518.217 464.843 517.09 464.496 515.669 464.496C514.352 464.496 513.329 464.739 512.601 465.224C511.908 465.709 511.561 466.385 511.561 467.252C511.561 468.223 512.046 468.968 513.017 469.488C513.988 469.973 515.496 470.476 517.541 470.996C519.621 471.516 521.337 472.053 522.689 472.608C524.041 473.163 525.202 474.029 526.173 475.208C527.178 476.352 527.698 477.877 527.733 479.784C527.733 481.448 527.265 482.939 526.329 484.256C525.428 485.573 524.11 486.613 522.377 487.376C520.678 488.104 518.685 488.468 516.397 488.468ZM84.436 556.364C81.0387 556.364 77.9187 555.567 75.076 553.972C72.2333 552.377 69.98 550.176 68.316 547.368C66.652 544.525 65.82 541.319 65.82 537.748C65.82 534.212 66.652 531.04 68.316 528.232C69.98 525.389 72.2333 523.171 75.076 521.576C77.9187 519.981 81.0387 519.184 84.436 519.184C87.868 519.184 90.988 519.981 93.796 521.576C96.6387 523.171 98.8747 525.389 100.504 528.232C102.168 531.04 103 534.212 103 537.748C103 541.319 102.168 544.525 100.504 547.368C98.8747 550.176 96.6387 552.377 93.796 553.972C90.9533 555.567 87.8333 556.364 84.436 556.364ZM84.436 549.864C86.62 549.864 88.544 549.379 90.208 548.408C91.872 547.403 93.172 545.981 94.108 544.144C95.044 542.307 95.512 540.175 95.512 537.748C95.512 535.321 95.044 533.207 94.108 531.404C93.172 529.567 91.872 528.163 90.208 527.192C88.544 526.221 86.62 525.736 84.436 525.736C82.252 525.736 80.3107 526.221 78.612 527.192C76.948 528.163 75.648 529.567 74.712 531.404C73.776 533.207 73.308 535.321 73.308 537.748C73.308 540.175 73.776 542.307 74.712 544.144C75.648 545.981 76.948 547.403 78.612 548.408C80.3107 549.379 82.252 549.864 84.436 549.864ZM115.696 531.352C116.632 530.035 117.915 528.943 119.544 528.076C121.208 527.175 123.097 526.724 125.212 526.724C127.673 526.724 129.892 527.331 131.868 528.544C133.879 529.757 135.456 531.491 136.6 533.744C137.779 535.963 138.368 538.545 138.368 541.492C138.368 544.439 137.779 547.056 136.6 549.344C135.456 551.597 133.879 553.348 131.868 554.596C129.892 555.844 127.673 556.468 125.212 556.468C123.097 556.468 121.225 556.035 119.596 555.168C118.001 554.301 116.701 553.209 115.696 551.892V569.728H108.416V527.192H115.696V531.352ZM130.932 541.492C130.932 539.759 130.568 538.268 129.84 537.02C129.147 535.737 128.211 534.767 127.032 534.108C125.888 533.449 124.64 533.12 123.288 533.12C121.971 533.12 120.723 533.467 119.544 534.16C118.4 534.819 117.464 535.789 116.736 537.072C116.043 538.355 115.696 539.863 115.696 541.596C115.696 543.329 116.043 544.837 116.736 546.12C117.464 547.403 118.4 548.391 119.544 549.084C120.723 549.743 121.971 550.072 123.288 550.072C124.64 550.072 125.888 549.725 127.032 549.032C128.211 548.339 129.147 547.351 129.84 546.068C130.568 544.785 130.932 543.26 130.932 541.492ZM150.938 531.352C151.874 530.035 153.157 528.943 154.786 528.076C156.45 527.175 158.34 526.724 160.454 526.724C162.916 526.724 165.134 527.331 167.11 528.544C169.121 529.757 170.698 531.491 171.842 533.744C173.021 535.963 173.61 538.545 173.61 541.492C173.61 544.439 173.021 547.056 171.842 549.344C170.698 551.597 169.121 553.348 167.11 554.596C165.134 555.844 162.916 556.468 160.454 556.468C158.34 556.468 156.468 556.035 154.838 555.168C153.244 554.301 151.944 553.209 150.938 551.892V569.728H143.658V527.192H150.938V531.352ZM166.174 541.492C166.174 539.759 165.81 538.268 165.082 537.02C164.389 535.737 163.453 534.767 162.274 534.108C161.13 533.449 159.882 533.12 158.53 533.12C157.213 533.12 155.965 533.467 154.786 534.16C153.642 534.819 152.706 535.789 151.978 537.072C151.285 538.355 150.938 539.863 150.938 541.596C150.938 543.329 151.285 544.837 151.978 546.12C152.706 547.403 153.642 548.391 154.786 549.084C155.965 549.743 157.213 550.072 158.53 550.072C159.882 550.072 161.13 549.725 162.274 549.032C163.453 548.339 164.389 547.351 165.082 546.068C165.81 544.785 166.174 543.26 166.174 541.492ZM191.693 556.468C188.919 556.468 186.423 555.861 184.205 554.648C181.986 553.4 180.235 551.649 178.953 549.396C177.705 547.143 177.081 544.543 177.081 541.596C177.081 538.649 177.722 536.049 179.005 533.796C180.322 531.543 182.107 529.809 184.361 528.596C186.614 527.348 189.127 526.724 191.901 526.724C194.674 526.724 197.187 527.348 199.441 528.596C201.694 529.809 203.462 531.543 204.745 533.796C206.062 536.049 206.721 538.649 206.721 541.596C206.721 544.543 206.045 547.143 204.692 549.396C203.375 551.649 201.573 553.4 199.285 554.648C197.031 555.861 194.501 556.468 191.693 556.468ZM191.693 550.124C193.01 550.124 194.241 549.812 195.385 549.188C196.563 548.529 197.499 547.559 198.193 546.276C198.886 544.993 199.233 543.433 199.233 541.596C199.233 538.857 198.505 536.76 197.049 535.304C195.627 533.813 193.877 533.068 191.797 533.068C189.717 533.068 187.966 533.813 186.545 535.304C185.158 536.76 184.465 538.857 184.465 541.596C184.465 544.335 185.141 546.449 186.493 547.94C187.879 549.396 189.613 550.124 191.693 550.124ZM219.341 531.664C220.277 530.139 221.49 528.943 222.981 528.076C224.506 527.209 226.239 526.776 228.181 526.776V534.42H226.257C223.969 534.42 222.235 534.957 221.057 536.032C219.913 537.107 219.341 538.979 219.341 541.648V556H212.061V527.192H219.341V531.664ZM241.56 533.172V547.108C241.56 548.079 241.785 548.789 242.236 549.24C242.721 549.656 243.519 549.864 244.628 549.864H248.008V556H243.432C237.296 556 234.228 553.019 234.228 547.056V533.172H230.796V527.192H234.228V520.068H241.56V527.192H248.008V533.172H241.56ZM280.44 527.192V556H273.108V552.36C272.172 553.608 270.942 554.596 269.416 555.324C267.926 556.017 266.296 556.364 264.528 556.364C262.275 556.364 260.282 555.896 258.548 554.96C256.815 553.989 255.446 552.585 254.44 550.748C253.47 548.876 252.984 546.657 252.984 544.092V527.192H260.264V543.052C260.264 545.34 260.836 547.108 261.98 548.356C263.124 549.569 264.684 550.176 266.66 550.176C268.671 550.176 270.248 549.569 271.392 548.356C272.536 547.108 273.108 545.34 273.108 543.052V527.192H280.44ZM303.587 526.776C307.019 526.776 309.792 527.868 311.907 530.052C314.022 532.201 315.079 535.217 315.079 539.1V556H307.799V540.088C307.799 537.8 307.227 536.049 306.083 534.836C304.939 533.588 303.379 532.964 301.403 532.964C299.392 532.964 297.798 533.588 296.619 534.836C295.475 536.049 294.903 537.8 294.903 540.088V556H287.623V527.192H294.903V530.78C295.874 529.532 297.104 528.561 298.595 527.868C300.12 527.14 301.784 526.776 303.587 526.776ZM325.694 523.76C324.411 523.76 323.337 523.361 322.47 522.564C321.638 521.732 321.222 520.709 321.222 519.496C321.222 518.283 321.638 517.277 322.47 516.48C323.337 515.648 324.411 515.232 325.694 515.232C326.977 515.232 328.034 515.648 328.866 516.48C329.733 517.277 330.166 518.283 330.166 519.496C330.166 520.709 329.733 521.732 328.866 522.564C328.034 523.361 326.977 523.76 325.694 523.76ZM329.282 527.192V556H322.002V527.192H329.282ZM344.951 533.172V547.108C344.951 548.079 345.176 548.789 345.627 549.24C346.112 549.656 346.909 549.864 348.019 549.864H351.399V556H346.823C340.687 556 337.619 553.019 337.619 547.056V533.172H334.187V527.192H337.619V520.068H344.951V527.192H351.399V533.172H344.951ZM360.327 523.76C359.044 523.76 357.97 523.361 357.103 522.564C356.271 521.732 355.855 520.709 355.855 519.496C355.855 518.283 356.271 517.277 357.103 516.48C357.97 515.648 359.044 515.232 360.327 515.232C361.61 515.232 362.667 515.648 363.499 516.48C364.366 517.277 364.799 518.283 364.799 519.496C364.799 520.709 364.366 521.732 363.499 522.564C362.667 523.361 361.61 523.76 360.327 523.76ZM363.915 527.192V556H356.635V527.192H363.915ZM397.888 540.972C397.888 542.012 397.818 542.948 397.68 543.78H376.62C376.793 545.86 377.521 547.489 378.804 548.668C380.086 549.847 381.664 550.436 383.536 550.436C386.24 550.436 388.164 549.275 389.308 546.952H397.16C396.328 549.725 394.733 552.013 392.376 553.816C390.018 555.584 387.124 556.468 383.692 556.468C380.918 556.468 378.422 555.861 376.204 554.648C374.02 553.4 372.304 551.649 371.056 549.396C369.842 547.143 369.236 544.543 369.236 541.596C369.236 538.615 369.842 535.997 371.056 533.744C372.269 531.491 373.968 529.757 376.152 528.544C378.336 527.331 380.849 526.724 383.692 526.724C386.43 526.724 388.874 527.313 391.024 528.492C393.208 529.671 394.889 531.352 396.068 533.536C397.281 535.685 397.888 538.164 397.888 540.972ZM390.348 538.892C390.313 537.02 389.637 535.529 388.32 534.42C387.002 533.276 385.39 532.704 383.484 532.704C381.681 532.704 380.156 533.259 378.908 534.368C377.694 535.443 376.949 536.951 376.672 538.892H390.348ZM414.225 556.468C411.868 556.468 409.753 556.052 407.881 555.22C406.009 554.353 404.519 553.192 403.409 551.736C402.335 550.28 401.745 548.668 401.641 546.9H408.973C409.112 548.009 409.649 548.928 410.585 549.656C411.556 550.384 412.752 550.748 414.173 550.748C415.56 550.748 416.635 550.471 417.397 549.916C418.195 549.361 418.593 548.651 418.593 547.784C418.593 546.848 418.108 546.155 417.137 545.704C416.201 545.219 414.693 544.699 412.613 544.144C410.464 543.624 408.696 543.087 407.309 542.532C405.957 541.977 404.779 541.128 403.773 539.984C402.803 538.84 402.317 537.297 402.317 535.356C402.317 533.761 402.768 532.305 403.669 530.988C404.605 529.671 405.923 528.631 407.621 527.868C409.355 527.105 411.383 526.724 413.705 526.724C417.137 526.724 419.876 527.591 421.921 529.324C423.967 531.023 425.093 533.328 425.301 536.24H418.333C418.229 535.096 417.744 534.195 416.877 533.536C416.045 532.843 414.919 532.496 413.497 532.496C412.18 532.496 411.157 532.739 410.429 533.224C409.736 533.709 409.389 534.385 409.389 535.252C409.389 536.223 409.875 536.968 410.845 537.488C411.816 537.973 413.324 538.476 415.369 538.996C417.449 539.516 419.165 540.053 420.517 540.608C421.869 541.163 423.031 542.029 424.001 543.208C425.007 544.352 425.527 545.877 425.561 547.784C425.561 549.448 425.093 550.939 424.157 552.256C423.256 553.573 421.939 554.613 420.205 555.376C418.507 556.104 416.513 556.468 414.225 556.468ZM447.62 523.76C446.337 523.76 445.263 523.361 444.396 522.564C443.564 521.732 443.148 520.709 443.148 519.496C443.148 518.283 443.564 517.277 444.396 516.48C445.263 515.648 446.337 515.232 447.62 515.232C448.903 515.232 449.96 515.648 450.792 516.48C451.659 517.277 452.092 518.283 452.092 519.496C452.092 520.709 451.659 521.732 450.792 522.564C449.96 523.361 448.903 523.76 447.62 523.76ZM451.208 527.192V556H443.928V527.192H451.208ZM474.365 526.776C477.797 526.776 480.57 527.868 482.685 530.052C484.799 532.201 485.857 535.217 485.857 539.1V556H478.577V540.088C478.577 537.8 478.005 536.049 476.861 534.836C475.717 533.588 474.157 532.964 472.181 532.964C470.17 532.964 468.575 533.588 467.397 534.836C466.253 536.049 465.681 537.8 465.681 540.088V556H458.401V527.192H465.681V530.78C466.651 529.532 467.882 528.561 469.373 527.868C470.898 527.14 472.562 526.776 474.365 526.776ZM529.87 519.704V525.58H520.198V556H512.918V525.58H503.246V519.704H529.87ZM561.962 540.972C561.962 542.012 561.892 542.948 561.754 543.78H540.694C540.867 545.86 541.595 547.489 542.878 548.668C544.16 549.847 545.738 550.436 547.61 550.436C550.314 550.436 552.238 549.275 553.382 546.952H561.234C560.402 549.725 558.807 552.013 556.45 553.816C554.092 555.584 551.198 556.468 547.766 556.468C544.992 556.468 542.496 555.861 540.278 554.648C538.094 553.4 536.378 551.649 535.13 549.396C533.916 547.143 533.31 544.543 533.31 541.596C533.31 538.615 533.916 535.997 535.13 533.744C536.343 531.491 538.042 529.757 540.226 528.544C542.41 527.331 544.923 526.724 547.766 526.724C550.504 526.724 552.948 527.313 555.098 528.492C557.282 529.671 558.963 531.352 560.142 533.536C561.355 535.685 561.962 538.164 561.962 540.972ZM554.422 538.892C554.387 537.02 553.711 535.529 552.394 534.42C551.076 533.276 549.464 532.704 547.558 532.704C545.755 532.704 544.23 533.259 542.982 534.368C541.768 535.443 541.023 536.951 540.746 538.892H554.422ZM565.403 541.596C565.403 538.615 566.01 536.015 567.224 533.796C568.437 531.543 570.118 529.809 572.268 528.596C574.417 527.348 576.878 526.724 579.652 526.724C583.222 526.724 586.169 527.625 588.492 529.428C590.849 531.196 592.426 533.692 593.224 536.916H585.372C584.956 535.668 584.245 534.697 583.24 534.004C582.269 533.276 581.056 532.912 579.6 532.912C577.52 532.912 575.873 533.675 574.66 535.2C573.446 536.691 572.84 538.823 572.84 541.596C572.84 544.335 573.446 546.467 574.66 547.992C575.873 549.483 577.52 550.228 579.6 550.228C582.546 550.228 584.47 548.911 585.372 546.276H593.224C592.426 549.396 590.849 551.875 588.492 553.712C586.134 555.549 583.188 556.468 579.652 556.468C576.878 556.468 574.417 555.861 572.268 554.648C570.118 553.4 568.437 551.667 567.224 549.448C566.01 547.195 565.403 544.577 565.403 541.596ZM614.781 526.776C616.965 526.776 618.906 527.261 620.605 528.232C622.303 529.168 623.621 530.572 624.557 532.444C625.527 534.281 626.013 536.5 626.013 539.1V556H618.733V540.088C618.733 537.8 618.161 536.049 617.017 534.836C615.873 533.588 614.313 532.964 612.337 532.964C610.326 532.964 608.731 533.588 607.553 534.836C606.409 536.049 605.837 537.8 605.837 540.088V556H598.557V517.52H605.837V530.78C606.773 529.532 608.021 528.561 609.581 527.868C611.141 527.14 612.874 526.776 614.781 526.776Z" fill="black"/>
<circle opacity="0.12" cx="517" cy="170" r="47" fill="white"/>
</svg>
