<svg width="199" height="371" viewBox="0 0 199 371" fill="none" xmlns="http://www.w3.org/2000/svg">
<path fill-rule="evenodd" clip-rule="evenodd" d="M-0.000550283 89.018C-0.0005808 88.989 -0.000596058 88.96 -0.000596058 88.931C-0.000595525 44.234 36.2334 8 80.9304 8C125.627 8 161.861 44.234 161.861 88.931C161.861 133.628 125.627 169.862 80.9304 169.862L80.9304 169.863L-0.000551247 169.863L-0.000550283 89.018Z" fill="#FEC35C"/>
<mask id="mask0_10169_249813" style="mask-type:luminance" maskUnits="userSpaceOnUse" x="0" y="8" width="162" height="162">
<path fill-rule="evenodd" clip-rule="evenodd" d="M-0.000550283 89.018C-0.0005808 88.989 -0.000596058 88.96 -0.000596058 88.931C-0.000595525 44.234 36.2334 8 80.9304 8C125.627 8 161.861 44.234 161.861 88.931C161.861 133.628 125.627 169.862 80.9304 169.862L80.9304 169.863L-0.000551247 169.863L-0.000550283 89.018Z" fill="white"/>
</mask>
<g mask="url(#mask0_10169_249813)">
</g>
<path fill-rule="evenodd" clip-rule="evenodd" d="M58.924 253.022C58.9241 253.022 58.9242 253.022 58.9243 253.022C91.3233 253.022 117.588 279.287 117.588 311.686C117.588 344.085 91.3233 370.35 58.9243 370.35C26.5253 370.35 0.260666 344.085 0.260667 311.686C0.260667 311.686 0.260667 311.686 0.260667 311.686L0.260407 311.686L0.260408 253.022L58.924 253.022L58.924 253.022Z" fill="#FAA6A7"/>
<mask id="mask1_10169_249813" style="mask-type:luminance" maskUnits="userSpaceOnUse" x="0" y="253" width="118" height="118">
<path fill-rule="evenodd" clip-rule="evenodd" d="M58.924 253.022C58.9241 253.022 58.9242 253.022 58.9243 253.022C91.3233 253.022 117.588 279.287 117.588 311.686C117.588 344.085 91.3233 370.35 58.9243 370.35C26.5253 370.35 0.260666 344.085 0.260667 311.686C0.260667 311.686 0.260667 311.686 0.260667 311.686L0.260407 311.686L0.260408 253.022L58.924 253.022L58.924 253.022Z" fill="white"/>
</mask>
<g mask="url(#mask1_10169_249813)">
</g>
<path fill-rule="evenodd" clip-rule="evenodd" d="M41.1809 253.365C41.1808 253.365 41.1808 253.365 41.1807 253.365C18.7533 253.365 0.572265 235.184 0.572265 212.757C0.572265 190.329 18.7533 172.148 41.1807 172.148C41.2762 172.148 41.3716 172.149 41.4669 172.149C41.5622 172.149 41.6576 172.148 41.7531 172.148C41.8516 172.148 41.9502 172.149 42.0486 172.149L82.3617 172.149L82.3617 212.758L82.3615 212.758C82.3615 215.086 82.1655 217.368 81.7894 219.588L81.7894 253.366L41.1809 253.366L41.1809 253.365Z" fill="#FFB8A6"/>
<path fill-rule="evenodd" clip-rule="evenodd" d="M82.9335 212.832C82.9335 212.807 82.9335 212.782 82.9335 212.757C82.9335 190.329 101.114 172.148 123.542 172.148C145.969 172.148 164.15 190.329 164.15 212.757C164.15 235.184 145.969 253.365 123.542 253.365L123.542 253.366L82.9335 253.366L82.9335 212.832Z" fill="#F04152"/>
<g clip-path="url(#clip0_10169_249813)">
<g opacity="0.2">
<mask id="mask2_10169_249813" style="mask-type:alpha" maskUnits="userSpaceOnUse" x="77" y="227" width="156" height="127">
<path d="M77.8516 246.324L138.763 230.003C172.404 220.989 206.982 240.953 215.996 274.593L232.317 335.505L172.674 351.486C138.333 360.688 103.034 340.308 93.8327 305.967L77.8516 246.324Z" fill="#FF9464"/>
</mask>
<g mask="url(#mask2_10169_249813)">
<rect x="89.25" y="282.191" width="131.479" height="1.59368" transform="rotate(-15 89.25 282.191)" fill="#CC8913"/>
<rect x="90.8984" y="288.349" width="131.479" height="1.59368" transform="rotate(-15 90.8984 288.349)" fill="#CC8913"/>
<rect x="82.6504" y="257.56" width="131.479" height="1.59368" transform="rotate(-15 82.6504 257.56)" fill="#CC8913"/>
<rect x="87.5996" y="276.033" width="131.479" height="1.59368" transform="rotate(-15 87.5996 276.033)" fill="#CC8913"/>
<rect x="91.7246" y="291.428" width="131.479" height="1.59368" transform="rotate(-15 91.7246 291.428)" fill="#CC8913"/>
<rect x="86.7754" y="272.955" width="131.479" height="1.59368" transform="rotate(-15 86.7754 272.955)" fill="#CC8913"/>
<rect x="88.4238" y="279.113" width="131.479" height="1.59368" transform="rotate(-15 88.4238 279.113)" fill="#CC8913"/>
<rect x="83.4746" y="260.64" width="131.479" height="1.59368" transform="rotate(-15 83.4746 260.64)" fill="#CC8913"/>
<rect x="90.0742" y="285.269" width="131.479" height="1.59368" transform="rotate(-15 90.0742 285.269)" fill="#CC8913"/>
<rect x="85.125" y="266.797" width="131.479" height="1.59368" transform="rotate(-15 85.125 266.797)" fill="#CC8913"/>
<rect x="84.2988" y="263.719" width="131.479" height="1.59368" transform="rotate(-15 84.2988 263.719)" fill="#CC8913"/>
<rect x="81.8242" y="254.482" width="131.479" height="1.59368" transform="rotate(-15 81.8242 254.482)" fill="#CC8913"/>
<rect x="85.9492" y="269.877" width="131.479" height="1.59368" transform="rotate(-15 85.9492 269.877)" fill="#CC8913"/>
<rect x="109.047" y="356.082" width="131.479" height="1.59368" transform="rotate(-15 109.047 356.082)" fill="#CC8913"/>
<rect x="106.572" y="346.846" width="131.479" height="1.59368" transform="rotate(-15 106.572 346.846)" fill="#CC8913"/>
<rect x="103.273" y="334.529" width="131.479" height="1.59368" transform="rotate(-15 103.273 334.529)" fill="#CC8913"/>
<rect x="107.398" y="349.924" width="131.479" height="1.59368" transform="rotate(-15 107.398 349.924)" fill="#CC8913"/>
<rect x="99.9727" y="322.215" width="131.479" height="1.59368" transform="rotate(-15 99.9727 322.215)" fill="#CC8913"/>
<rect x="98.3242" y="316.058" width="131.479" height="1.59368" transform="rotate(-15 98.3242 316.058)" fill="#CC8913"/>
<rect x="93.373" y="297.584" width="131.479" height="1.59368" transform="rotate(-15 93.373 297.584)" fill="#CC8913"/>
<rect x="104.924" y="340.687" width="131.479" height="1.59368" transform="rotate(-15 104.924 340.687)" fill="#CC8913"/>
<rect x="97.498" y="312.978" width="131.479" height="1.59368" transform="rotate(-15 97.498 312.978)" fill="#CC8913"/>
<rect x="96.6738" y="309.9" width="131.479" height="1.59368" transform="rotate(-15 96.6738 309.9)" fill="#CC8913"/>
<rect x="95.0234" y="303.742" width="131.479" height="1.59368" transform="rotate(-15 95.0234 303.742)" fill="#CC8913"/>
<rect x="95.8496" y="306.82" width="131.479" height="1.59368" transform="rotate(-15 95.8496 306.82)" fill="#CC8913"/>
<rect x="105.748" y="343.765" width="131.479" height="1.59368" transform="rotate(-15 105.748 343.765)" fill="#CC8913"/>
<rect x="92.5488" y="294.506" width="131.479" height="1.59368" transform="rotate(-15 92.5488 294.506)" fill="#CC8913"/>
<rect x="99.1484" y="319.137" width="131.479" height="1.59368" transform="rotate(-15 99.1484 319.137)" fill="#CC8913"/>
<rect x="101.623" y="328.373" width="131.479" height="1.59368" transform="rotate(-15 101.623 328.373)" fill="#CC8913"/>
<rect x="108.223" y="353.002" width="131.479" height="1.59368" transform="rotate(-15 108.223 353.002)" fill="#CC8913"/>
<rect x="94.1992" y="300.664" width="131.479" height="1.59368" transform="rotate(-15 94.1992 300.664)" fill="#CC8913"/>
<rect x="110.697" y="362.24" width="131.479" height="1.59368" transform="rotate(-15 110.697 362.24)" fill="#CC8913"/>
<rect x="104.098" y="337.609" width="131.479" height="1.59368" transform="rotate(-15 104.098 337.609)" fill="#CC8913"/>
<rect x="100.799" y="325.295" width="131.479" height="1.59368" transform="rotate(-15 100.799 325.295)" fill="#CC8913"/>
<rect x="102.447" y="331.451" width="131.479" height="1.59368" transform="rotate(-15 102.447 331.451)" fill="#CC8913"/>
<rect x="109.873" y="359.16" width="131.479" height="1.59368" transform="rotate(-15 109.873 359.16)" fill="#CC8913"/>
</g>
</g>
</g>
<path d="M157.487 335.475C134.851 335.475 116.5 317.124 116.5 294.487L116.5 253.5L157.487 253.5C180.124 253.5 198.475 271.85 198.475 294.487C198.475 317.124 180.124 335.475 157.487 335.475Z" stroke="#FEC35C"/>
<defs>
<clipPath id="clip0_10169_249813">
<path d="M154.626 330.252C133.294 330.252 116 312.958 116 291.626L116 252.999L154.626 252.999C175.959 252.999 193.253 270.293 193.253 291.626C193.253 312.958 175.959 330.252 154.626 330.252Z" fill="white"/>
</clipPath>
</defs>
</svg>
