<svg width="236" height="104" viewBox="0 0 236 104" fill="none" xmlns="http://www.w3.org/2000/svg">
<mask id="mask0_10169_251922" style="mask-type:luminance" maskUnits="userSpaceOnUse" x="33" y="41" width="14" height="26">
<path d="M39.5607 64.498L33.9961 41.6211H42.2896C43.3096 45.0876 44.8512 53.3361 46.1949 61.0822L39.9696 66.2579C39.8319 65.6535 39.6982 65.0631 39.5607 64.498Z" fill="white"/>
</mask>
<g mask="url(#mask0_10169_251922)">
<path d="M33.9961 66.2571H46.196V41.6211H33.9961V66.2571Z" fill="url(#paint0_linear_10169_251922)"/>
</g>
<path opacity="0.3" d="M37.4639 41.6208C39.0976 45.9187 39.7033 50.5031 40.4698 56.6269C40.774 59.0611 41.1045 61.7403 41.5355 64.74L41.5632 64.9335L42.5886 64.0803C42.0746 61.6423 41.6097 59.046 41.1422 56.4296C40.6458 53.6548 40.1494 50.8575 39.5914 48.1996C38.9995 45.3808 38.3121 43.242 37.6046 41.6208H37.4639Z" fill="#870000"/>
<path opacity="0.3" d="M39.5913 48.1996C40.1493 50.8575 40.6457 53.6548 41.142 56.4296L41.2878 57.2514L41.3733 57.1698L44.8958 53.8081C43.9369 48.6331 42.9919 44.001 42.2907 41.6208H37.6045C38.312 43.242 38.9994 45.3808 39.5913 48.1996Z" fill="#FFFF00"/>
<path opacity="0.3" d="M39.5656 64.5006L38.4521 59.9275C39.4399 58.9662 40.4528 58.0551 41.3764 57.1729L44.8989 53.8113C45.3375 56.1764 45.7773 58.6558 46.1996 61.0849L39.974 66.26L39.9577 66.1921L39.9551 66.1783L39.9413 66.1154L39.9237 66.04L39.9061 65.9646V65.9634L39.8898 65.8905L39.8722 65.8151L39.8571 65.7485L39.8559 65.7397L39.8081 65.5361L39.8043 65.5173L39.7867 65.4431L39.7704 65.369L39.7604 65.3262L39.7528 65.2948L39.7365 65.2219L39.7189 65.1491L39.7113 65.1164L39.7025 65.0762L39.685 65.0033L39.6674 64.9304L39.6623 64.909L39.6611 64.9015L39.6183 64.7218L39.6171 64.7142L39.6146 64.7042L39.6108 64.6916L39.5656 64.5006Z" fill="#870000"/>
<path opacity="0.3" d="M41.4273 41.6208C42.1939 42.6978 42.7519 44.5803 43.1012 46.1524C43.3211 47.144 43.8766 50.2279 44.5766 54.1123L44.8958 53.8081C43.9369 48.6331 42.9919 44.001 42.2907 41.6208H41.4273ZM39.5913 48.1996C40.1493 50.8575 40.6469 53.6548 41.142 56.4296L41.2891 57.2514L41.3733 57.1698L41.4361 57.1094C41.0151 54.258 40.4886 50.7959 40.1769 49.0767C39.6931 46.4214 38.4138 43.1691 38.968 41.6208H37.6045C38.312 43.242 38.9994 45.3808 39.5913 48.1996Z" fill="white"/>
<mask id="mask1_10169_251922" style="mask-type:luminance" maskUnits="userSpaceOnUse" x="38" y="36" width="32" height="32">
<path d="M42.026 57.415L59.1576 41.0601L55.658 36.5444H69.9975L67.3559 51.6387L64.0385 47.3582C63.8322 47.6364 63.6011 47.9155 63.3398 48.195C59.8343 51.9447 47.4955 62.1721 40.3781 67.9949C40.0816 66.7875 39.8291 65.5951 39.562 64.4974L38.623 60.6369C39.765 59.4889 40.9702 58.423 42.026 57.415Z" fill="white"/>
</mask>
<g mask="url(#mask1_10169_251922)">
<path d="M38.623 67.9954H69.9974V36.5444H38.623V67.9954Z" fill="url(#paint1_linear_10169_251922)"/>
</g>
<path opacity="0.3" d="M67.6474 38.7009L51.1547 53.849L48.062 56.6903L47.5003 57.2056L45.7912 58.7751L45.5725 58.9762L42.1832 62.089L41.2784 62.9197L39.5605 64.4981C39.5756 64.5617 39.5907 64.6254 39.6058 64.6891C39.6066 64.6933 39.6079 64.6975 39.6096 64.7017C39.6104 64.705 39.6112 64.7084 39.6121 64.7117C39.6121 64.7142 39.6125 64.7167 39.6133 64.7192C39.6251 64.7687 39.6368 64.8181 39.6485 64.8675L39.6561 64.899L39.6573 64.9065L39.6623 64.9279L39.6636 64.9329C39.6695 64.9555 39.6749 64.9781 39.6799 65.0007C39.6858 65.025 39.6917 65.0493 39.6975 65.0736C39.7 65.087 39.703 65.1004 39.7063 65.1138L39.7139 65.1465L39.7315 65.2194L39.7478 65.2923L39.7553 65.3237L39.7654 65.3664L39.7817 65.4406L39.7993 65.5147L39.8031 65.5336L39.8508 65.7372L39.8521 65.746L39.8672 65.8126L39.8848 65.888L39.9011 65.9608V65.9621L39.9187 66.0375L39.9363 66.1129L39.9501 66.1757L39.9526 66.1896L39.9702 66.265L41.5285 64.713L42.5137 63.7315L46.0438 60.2166L46.4484 59.8132L48.39 57.8791L48.8864 57.3853L51.8484 54.4358L67.6474 38.7009Z" fill="#293642"/>
<path opacity="0.3" d="M51.1572 53.8499L67.6499 38.7019L69.9974 36.5454H55.6586L59.1585 41.0619L45.0321 54.5474L42.0261 57.4164C41.8288 57.6049 41.6265 57.7946 41.4204 57.9869C41.1917 58.2005 40.958 58.4167 40.7217 58.6366C40.0305 59.2775 39.3155 59.9423 38.623 60.6385L39.563 64.499L41.2809 62.9206L42.1857 62.09L45.575 58.9772L45.7937 58.7761L47.5028 57.2065L48.0645 56.6913L51.1572 53.8499Z" fill="white"/>
<path opacity="0.3" d="M51.1571 53.8501L67.6498 38.7021L69.9973 36.5457H55.6586L59.1584 41.0622L45.0321 54.5476L42.0261 57.4166C41.8288 57.6051 41.6265 57.7949 41.4204 57.9871C41.3056 58.0944 41.1896 58.2024 41.0723 58.3114C41.0936 58.2925 54.4082 46.6858 56.9064 44.1875C59.406 41.688 61.3878 40.7442 62.5665 41.1212C63.7453 41.4995 51.7779 52.6789 47.5027 57.2067L48.0644 56.6915L51.1571 53.8501Z" fill="white"/>
<path d="M81.5259 60.7686V43.1145H94.4308V47.0183H86.3994V50.201H93.9832V54.0799H86.3994V60.7686H81.5259ZM105.328 61.1664C99.7334 61.1664 96.3767 57.6356 96.3767 51.9664C96.3767 46.2972 99.7334 42.7167 105.328 42.7167C110.923 42.7167 114.279 46.2972 114.279 51.9664C114.279 57.6356 110.923 61.1664 105.328 61.1664ZM105.328 57.2626C107.814 57.2626 109.282 55.348 109.282 51.9664C109.282 48.5848 107.814 46.6204 105.328 46.6204C102.842 46.6204 101.374 48.5848 101.374 51.9664C101.374 55.348 102.842 57.2626 105.328 57.2626ZM124.251 61.1664C119.552 61.1664 116.568 58.481 116.568 54.254V43.0896H121.441V54.254C121.441 56.1934 122.436 57.2626 124.251 57.2626C126.091 57.2626 127.086 56.1934 127.086 54.254V43.0896H131.959V54.254C131.959 58.481 128.975 61.1664 124.251 61.1664ZM134.915 60.7686V43.1145H143.345C147.323 43.1145 149.909 45.1783 149.909 48.3361C149.909 50.5491 148.765 52.1156 146.726 52.7621C148.616 52.9859 149.536 54.0302 149.66 55.7956L150.058 60.7686H145.085L144.837 56.641C144.762 55.348 144.24 54.7513 142.648 54.7513H139.789V60.7686H134.915ZM142.45 50.8475C144.066 50.8475 144.936 50.1264 144.936 48.908C144.936 47.6399 144.066 47.0183 142.45 47.0183H139.789V50.8475H142.45ZM157.095 60.7686V47.0183H151.948V43.1145H167.141V47.0183H161.993V60.7686H157.095ZM169.626 60.7686V43.1145H174.5V49.9275H179.746V43.1145H184.62V60.7686H179.746V53.8313H174.5V60.7686H169.626Z" fill="#293642"/>
<path d="M197.927 60.7686V43.1145H202.801V60.7686H197.927ZM210.467 60.7686V47.0183H205.32V43.1145H220.512V47.0183H215.365V60.7686H210.467Z" fill="#4849E8"/>
<defs>
<linearGradient id="paint0_linear_10169_251922" x1="34.5633" y1="103.603" x2="0.929935" y2="38.6751" gradientUnits="userSpaceOnUse">
<stop stop-color="#3D6FEA"/>
<stop offset="1" stop-color="#FFFF00"/>
</linearGradient>
<linearGradient id="paint1_linear_10169_251922" x1="12.6073" y1="77.0833" x2="52.0192" y2="15.4915" gradientUnits="userSpaceOnUse">
<stop stop-color="#3A6CE6"/>
<stop offset="1" stop-color="#4849E8"/>
</linearGradient>
</defs>
</svg>
