<svg width="341" height="193" viewBox="0 0 341 193" fill="none" xmlns="http://www.w3.org/2000/svg">
<path d="M149 13H341V97C341 150.019 298.019 193 245 193H149L149 13Z" fill="#FFB8A6"/>
<path d="M150.876 11.3059L149 6.23692L147.124 11.3059L145.577 15.4888C142.133 24.7952 134.795 32.1328 125.489 35.5765L121.306 37.1243L116.237 39L121.306 40.8757L125.489 42.4235C134.795 45.8672 142.133 53.2048 145.576 62.5112L147.124 66.6941L149 71.7631L150.876 66.6941L152.424 62.5112C155.867 53.2048 163.205 45.8672 172.511 42.4235L176.694 40.8757L181.763 39L176.694 37.1243L172.511 35.5765C163.205 32.1328 155.867 24.7952 152.423 15.4888L150.876 11.3059Z" fill="#FEC35C" stroke="white" stroke-width="4"/>
<path d="M0 44H74.5C115.645 44 149 77.3548 149 118.5V193H98C43.8761 193 0 149.124 0 95V44Z" fill="#F04152"/>
<g clip-path="url(#clip0_10169_249126)">
<path d="M282.871 92.8136C262.902 92.8136 251.401 118.888 227.908 129.958C222.667 132.427 235.739 145.947 241.368 148.899C246.996 151.85 262.853 142.805 262.853 142.805L282.871 92.8136Z" fill="#E94E1B"/>
<path d="M244.274 149.794C243.102 149.794 242.061 149.607 241.227 149.169C236.5 146.691 226.29 136.55 226.389 131.854C226.411 130.85 226.891 130.098 227.779 129.68C237.999 124.864 245.795 117.336 253.333 110.056C263.084 100.639 271.506 92.507 282.871 92.507C282.972 92.507 283.066 92.5575 283.123 92.6418C283.18 92.7259 283.191 92.8331 283.153 92.9273L263.135 142.919C263.11 142.983 263.063 143.037 263.003 143.071C262.445 143.389 251.124 149.794 244.274 149.794ZM282.418 93.1236C271.523 93.3386 263.28 101.299 253.755 110.498C246.181 117.812 238.349 125.375 228.037 130.234C227.354 130.556 227.015 131.09 226.998 131.867C226.905 136.279 237.008 146.266 241.508 148.627C242.257 149.02 243.203 149.189 244.275 149.189C250.641 149.19 261.495 143.214 262.61 142.59L282.418 93.1236Z" fill="#1D1D1B"/>
<path d="M246.156 185.55C264.513 185.55 315.584 185.55 315.584 185.55C315.584 177.372 314.696 168.639 313.032 159.271C300.845 153.819 261.925 147.432 248.636 152.871C247.028 162.982 246.156 173.803 246.156 185.55Z" fill="#1D1D1B"/>
<path d="M323.116 121.438C317.939 100.619 301.7 92.8125 282.872 92.8125C268.884 92.8125 254.321 116.83 248.637 152.871C261.324 152.871 276.167 155.336 289.888 157.207C291.586 160.102 293.272 162.411 294.404 163.548C297.754 162.46 301.281 160.902 304.688 158.897C307.613 159.131 310.412 159.27 313.033 159.27C312.707 157.412 312.353 155.548 311.975 153.683C320.62 146.184 326.555 135.264 323.116 121.438Z" fill="#E94E1B"/>
<path d="M261.847 111.035C261.797 111.035 261.747 111.023 261.7 110.997C261.553 110.915 261.5 110.728 261.581 110.581C261.83 110.129 262.081 109.685 262.334 109.248C262.418 109.102 262.605 109.052 262.75 109.137C262.895 109.222 262.945 109.41 262.86 109.556C262.609 109.989 262.361 110.429 262.114 110.877C262.058 110.978 261.954 111.035 261.847 111.035Z" fill="#1D1D1B"/>
<path d="M294.404 163.855C294.324 163.855 294.246 163.823 294.188 163.765C292.975 162.545 291.303 160.206 289.701 157.491C287.442 157.182 285.153 156.858 282.848 156.532C271.207 154.882 259.17 153.177 248.637 153.177C248.548 153.177 248.463 153.138 248.405 153.07C248.347 153.002 248.322 152.912 248.336 152.823C250.7 137.833 254.698 124.342 259.897 113.81C259.972 113.659 260.155 113.597 260.305 113.672C260.456 113.747 260.517 113.931 260.443 114.082C255.311 124.477 251.355 137.777 248.993 152.566C259.483 152.604 271.402 154.292 282.933 155.925C285.287 156.259 287.624 156.59 289.929 156.904C290.021 156.917 290.103 156.971 290.151 157.052C291.669 159.642 293.315 161.971 294.489 163.199C297.886 162.081 301.355 160.504 304.534 158.633C304.588 158.602 304.65 158.588 304.712 158.592C307.696 158.831 310.304 158.952 312.669 158.964C312.369 157.269 312.035 155.515 311.677 153.745C311.655 153.636 311.693 153.524 311.776 153.452C318.901 147.271 326.601 136.713 322.821 121.513C316.984 98.0451 297.874 93.1191 282.871 93.1191C282.703 93.1191 282.567 92.9821 282.567 92.813C282.567 92.644 282.703 92.507 282.871 92.507C292.987 92.507 301.534 94.712 308.277 99.0611C315.854 103.949 320.946 111.452 323.411 121.364C325.035 127.893 324.682 134.179 322.36 140.047C320.368 145.083 316.987 149.708 312.309 153.798C312.681 155.639 313.025 157.462 313.332 159.218C313.348 159.307 313.324 159.398 313.266 159.468C313.208 159.537 313.123 159.577 313.033 159.577C310.58 159.577 307.873 159.457 304.759 159.21C301.509 161.114 297.963 162.714 294.497 163.84C294.466 163.85 294.435 163.855 294.404 163.855Z" fill="#1D1D1B"/>
<path d="M262.854 142.805H198.024C196.052 142.805 194.453 141.197 194.453 139.215C194.453 137.232 196.052 135.625 198.024 135.625H262.854C264.826 135.625 266.425 137.232 266.425 139.215C266.425 141.197 264.826 142.805 262.854 142.805Z" fill="#F04152"/>
<path d="M262.853 143.111H198.024C195.887 143.111 194.148 141.363 194.148 139.215C194.148 137.067 195.887 135.319 198.024 135.319H262.853C264.991 135.319 266.729 137.067 266.729 139.215C266.729 141.363 264.991 143.111 262.853 143.111ZM198.024 135.931C196.223 135.931 194.757 137.404 194.757 139.215C194.757 141.025 196.223 142.499 198.024 142.499H262.854C264.655 142.499 266.12 141.025 266.12 139.215C266.12 137.404 264.655 135.931 262.854 135.931H198.024Z" fill="#1D1D1B"/>
<path d="M239.506 135.624H198.026L185.995 109.986C185.203 108.298 186.428 106.354 188.286 106.354H223.074C224.72 106.354 226.218 107.309 226.921 108.806L239.506 135.624Z" fill="#F04152"/>
<path d="M239.504 135.931H198.024C197.906 135.931 197.799 135.862 197.749 135.755L185.718 110.117C185.301 109.229 185.365 108.203 185.888 107.374C186.411 106.544 187.307 106.049 188.284 106.049H223.073C224.828 106.049 226.446 107.08 227.195 108.676L239.779 135.494C239.824 135.589 239.817 135.7 239.761 135.789C239.705 135.877 239.608 135.931 239.504 135.931ZM198.217 135.319H239.024L226.644 108.937C225.995 107.554 224.593 106.661 223.073 106.661H188.284C187.517 106.661 186.813 107.05 186.403 107.701C185.992 108.353 185.942 109.159 186.269 109.856L198.217 135.319Z" fill="#1D1D1B"/>
<path d="M247.972 140.469H243.092C242.402 140.469 241.844 139.908 241.844 139.215C241.844 138.522 242.402 137.961 243.092 137.961H247.972C248.661 137.961 249.219 138.522 249.219 139.215C249.219 139.908 248.661 140.469 247.972 140.469Z" fill="#1D1D1B"/>
<path d="M257.581 140.469H252.701C252.012 140.469 251.453 139.908 251.453 139.215C251.453 138.522 252.012 137.961 252.701 137.961H257.581C258.27 137.961 258.829 138.522 258.829 139.215C258.829 139.908 258.27 140.469 257.581 140.469Z" fill="#1D1D1B"/>
<path d="M205.711 121.509C206.854 123.986 209.779 125.993 212.242 125.993C214.706 125.993 215.804 123.986 214.696 121.509C213.587 119.033 210.663 117.025 208.164 117.025C205.665 117.025 204.567 119.033 205.711 121.509Z" fill="#F7B09E"/>
<path d="M285.856 91.6883C285.856 96.4318 280.716 99.7646 276.822 100.464C274.632 97.6328 274.633 88.9961 274.633 88.9961L285.856 91.6883Z" fill="#F7B09E"/>
<path d="M276.822 100.769C276.729 100.769 276.64 100.726 276.582 100.651C274.353 97.7706 274.328 89.3527 274.328 88.9958C274.328 88.9021 274.371 88.8136 274.444 88.7555C274.517 88.6973 274.613 88.6758 274.703 88.6981L285.927 91.3904C286.064 91.4233 286.16 91.5464 286.16 91.688C286.16 96.7431 280.62 100.093 276.876 100.765C276.858 100.768 276.84 100.769 276.822 100.769ZM274.942 89.3847C274.974 91.0529 275.211 97.6242 276.954 100.127C280.428 99.43 285.375 96.4198 285.547 91.9286L274.942 89.3847Z" fill="#1D1D1B"/>
<path d="M295.024 73.4829C296.3 66.3035 292.25 61.0793 289.955 61.4638C274.363 48.0986 261.354 56.5601 260.079 63.1626C258.825 69.654 262.757 75.6623 262.757 75.6623C260.964 88.2041 263.022 89.0242 273.835 94.9711C284.75 91.7887 292.501 87.6859 295.024 73.4829Z" fill="#1D1D1B"/>
<path d="M294.609 81.951C294.912 79.8333 293.656 77.8538 291.716 77.1801C290.81 70.3173 285.476 64.6107 278.323 63.5775C269.698 62.3317 261.702 68.3497 260.463 77.019C259.224 85.6881 265.211 93.7257 273.835 94.9714C280.988 96.0046 287.705 92.0386 290.497 85.7098C292.547 85.6125 294.306 84.0685 294.609 81.951Z" fill="#F7B09E"/>
<path d="M276.06 95.4369C275.308 95.4369 274.55 95.3834 273.791 95.2737C269.539 94.6597 265.78 92.4181 263.205 88.9618C260.631 85.5056 259.55 81.2487 260.161 76.975C260.772 72.7011 263.002 68.9223 266.44 66.3346C269.878 63.7466 274.113 62.66 278.365 63.274C285.399 64.29 290.977 69.9031 291.991 76.9559C293.998 77.7448 295.218 79.8328 294.909 81.994C294.6 84.1552 292.844 85.8131 290.698 86.0022C288.068 91.7829 282.273 95.4365 276.06 95.4369ZM276.045 63.7188C272.726 63.7188 269.51 64.789 266.805 66.8247C263.497 69.3144 261.351 72.9501 260.764 77.0621C260.176 81.174 261.216 85.2697 263.693 88.5951C266.17 91.9204 269.787 94.077 273.877 94.668C280.703 95.6533 287.423 91.919 290.217 85.5853C290.264 85.4793 290.366 85.4091 290.481 85.4035C292.421 85.3115 294.03 83.8409 294.306 81.9071C294.583 79.9729 293.451 78.1064 291.616 77.4691C291.506 77.4313 291.428 77.3349 291.413 77.2199C290.506 70.3516 285.105 64.8661 278.278 63.88C277.532 63.7722 276.786 63.7188 276.045 63.7188Z" fill="#1D1D1B"/>
<path d="M261.054 74.7311C261.014 74.7311 260.973 74.7229 260.934 74.7058C260.779 74.6385 260.708 74.4585 260.775 74.3033C261.224 73.2615 262.704 72.207 264.663 72.207C264.831 72.207 264.968 72.344 264.968 72.5131C264.968 72.6821 264.831 72.8192 264.663 72.8192C262.984 72.8192 261.695 73.7093 261.334 74.5466C261.284 74.6621 261.172 74.7311 261.054 74.7311Z" fill="#1D1D1B"/>
<path d="M278.46 74.669C278.358 74.669 278.259 74.6176 278.201 74.5241C277.474 73.3431 274.552 72.4074 272.41 72.668C272.243 72.6876 272.091 72.5689 272.071 72.4011C272.05 72.2332 272.169 72.0807 272.336 72.0604C274.756 71.7643 277.859 72.8053 278.719 74.2018C278.808 74.3456 278.763 74.5342 278.62 74.6231C278.57 74.6543 278.515 74.669 278.46 74.669Z" fill="#1D1D1B"/>
<path d="M275.799 89.9006C275.081 89.9006 274.349 89.8482 273.609 89.7414C273.442 89.7173 273.327 89.5622 273.351 89.395C273.375 89.2276 273.528 89.1123 273.695 89.1356C278.153 89.7794 282.313 88.3639 284.552 85.4416C284.654 85.3078 284.846 85.2826 284.979 85.386C285.112 85.4891 285.137 85.6812 285.034 85.8152C283.037 88.422 279.619 89.9006 275.799 89.9006Z" fill="#1D1D1B"/>
<path d="M291.715 77.1794C288.073 77.1364 283.29 67.6493 282.907 63.3546C281.887 61.7521 284.161 59.1465 287.244 60.5341C291.516 62.4572 291.715 77.1794 291.715 77.1794Z" fill="#1D1D1B"/>
<path d="M291.715 77.4854C287.82 77.4393 283.05 67.89 282.612 63.4536C282.172 62.697 282.309 61.7235 282.971 60.9513C283.735 60.0604 285.345 59.3434 287.369 60.2546C291.768 62.2348 292.012 76.5661 292.02 77.1751C292.021 77.2576 291.989 77.3371 291.931 77.3955C291.874 77.4531 291.796 77.4854 291.715 77.4854ZM285.528 60.4462C284.58 60.4462 283.849 60.8651 283.432 61.351C282.931 61.9358 282.826 62.6575 283.165 63.1895C283.191 63.2309 283.207 63.2781 283.212 63.3272C283.595 67.6351 288.13 76.2663 291.403 76.843C291.339 74.6409 290.817 62.4775 287.12 60.8134C286.543 60.5534 286.008 60.4462 285.528 60.4462Z" fill="#1D1D1B"/>
<path d="M273.798 57.8169C273.788 57.8169 273.778 57.8164 273.768 57.8154C273.626 57.8015 273.485 57.7901 273.344 57.7813C273.176 57.7707 273.049 57.6253 273.059 57.4565C273.07 57.288 273.214 57.1614 273.382 57.1704C273.53 57.1798 273.678 57.1914 273.828 57.2063C273.995 57.2227 274.117 57.3724 274.101 57.5405C274.086 57.6987 273.953 57.8169 273.798 57.8169Z" fill="#F7B09E"/>
<path d="M262.497 66.9789C262.358 66.9789 262.233 66.8826 262.201 66.7404C261.859 65.225 262.25 63.4463 263.273 61.8604C264.727 59.6066 267.261 57.9718 270.225 57.3752C270.39 57.3419 270.55 57.4493 270.583 57.6152C270.616 57.781 270.509 57.9422 270.344 57.9754C267.54 58.5398 265.149 60.0772 263.784 62.1934C262.85 63.6417 262.489 65.2498 262.794 66.6052C262.832 66.7701 262.729 66.934 262.565 66.9712C262.542 66.9765 262.52 66.9789 262.497 66.9789Z" fill="#F7B09E"/>
<path d="M253.208 192.616H204.387C202.208 192.616 200.441 190.84 200.441 188.65V146.771C200.441 144.58 202.208 142.804 204.387 142.804H253.207C255.387 142.804 257.153 144.58 257.153 146.771V188.65C257.153 190.84 255.387 192.616 253.208 192.616Z" fill="#F7B09E"/>
<path d="M253.207 192.922H204.387C202.043 192.922 200.137 191.006 200.137 188.65V146.771C200.137 144.415 202.043 142.498 204.387 142.498H253.207C255.551 142.498 257.458 144.415 257.458 146.771V188.65C257.458 191.006 255.551 192.922 253.207 192.922ZM204.387 143.11C202.379 143.11 200.746 144.752 200.746 146.771V188.65C200.746 190.668 202.379 192.31 204.387 192.31H253.207C255.215 192.31 256.849 190.668 256.849 188.65V146.771C256.849 144.752 255.215 143.11 253.207 143.11H204.387Z" fill="#1D1D1B"/>
<path d="M253.208 142.804H204.387C202.208 142.804 200.441 144.58 200.441 146.77V152.833H257.153V146.77C257.153 144.58 255.387 142.804 253.208 142.804Z" fill="#F7B09E"/>
<path d="M257.153 153.139H200.441C200.273 153.139 200.137 153.002 200.137 152.833V146.771C200.137 144.415 202.043 142.498 204.387 142.498H253.207C255.551 142.498 257.458 144.415 257.458 146.771V152.833C257.458 153.002 257.322 153.139 257.153 153.139ZM200.746 152.527H256.849V146.771C256.849 144.752 255.215 143.11 253.207 143.11H204.387C202.379 143.11 200.746 144.752 200.746 146.771V152.527Z" fill="#1D1D1B"/>
<path d="M246.405 147.819C246.405 148.769 245.638 149.54 244.692 149.54C243.745 149.54 242.979 148.769 242.979 147.819C242.979 146.868 243.745 146.097 244.692 146.097C245.638 146.097 246.405 146.868 246.405 147.819Z" fill="#F7B09E"/>
<path d="M244.691 149.846C243.579 149.846 242.674 148.936 242.674 147.818C242.674 146.7 243.579 145.79 244.691 145.79C245.804 145.79 246.709 146.7 246.709 147.818C246.709 148.936 245.804 149.846 244.691 149.846ZM244.691 146.402C243.915 146.402 243.283 147.037 243.283 147.818C243.283 148.599 243.915 149.234 244.691 149.234C245.468 149.234 246.1 148.599 246.1 147.818C246.1 147.037 245.468 146.402 244.691 146.402Z" fill="#1D1D1B"/>
<path d="M253.195 147.819C253.195 148.769 252.429 149.54 251.483 149.54C250.536 149.54 249.77 148.769 249.77 147.819C249.77 146.868 250.536 146.097 251.483 146.097C252.429 146.097 253.195 146.868 253.195 147.819Z" fill="#E94E1B"/>
<path d="M251.482 149.846C250.37 149.846 249.465 148.936 249.465 147.818C249.465 146.7 250.37 145.79 251.482 145.79C252.595 145.79 253.5 146.7 253.5 147.818C253.5 148.936 252.595 149.846 251.482 149.846ZM251.482 146.402C250.706 146.402 250.074 147.037 250.074 147.818C250.074 148.599 250.706 149.234 251.482 149.234C252.259 149.234 252.891 148.599 252.891 147.818C252.891 147.037 252.259 146.402 251.482 146.402Z" fill="#1D1D1B"/>
<path d="M239.613 147.819C239.613 148.769 238.847 149.54 237.9 149.54C236.954 149.54 236.188 148.769 236.188 147.819C236.188 146.868 236.954 146.097 237.9 146.097C238.847 146.097 239.613 146.868 239.613 147.819Z" fill="#F7B09E"/>
<path d="M237.9 149.846C236.788 149.846 235.883 148.936 235.883 147.818C235.883 146.7 236.788 145.79 237.9 145.79C239.013 145.79 239.918 146.7 239.918 147.818C239.918 148.936 239.013 149.846 237.9 149.846ZM237.9 146.402C237.124 146.402 236.492 147.037 236.492 147.818C236.492 148.599 237.124 149.234 237.9 149.234C238.677 149.234 239.309 148.599 239.309 147.818C239.309 147.037 238.677 146.402 237.9 146.402Z" fill="#1D1D1B"/>
<path d="M250.808 186.717H234.919C234.257 186.717 233.719 186.175 233.719 185.51V171.691C233.719 171.026 234.257 170.484 234.919 170.484H250.808C251.47 170.484 252.008 171.026 252.008 171.691V185.51C252.008 186.175 251.47 186.717 250.808 186.717ZM234.919 171.097C234.593 171.097 234.328 171.363 234.328 171.691V185.51C234.328 185.838 234.593 186.104 234.919 186.104H250.808C251.134 186.104 251.399 185.838 251.399 185.51V171.691C251.399 171.363 251.134 171.097 250.808 171.097H234.919Z" fill="#1D1D1B"/>
<path d="M251.702 157.754H205.893V163.381H251.702V157.754Z" fill="#F04152"/>
<path d="M251.702 163.686H205.892C205.724 163.686 205.588 163.549 205.588 163.38V157.753C205.588 157.584 205.724 157.447 205.892 157.447H251.702C251.87 157.447 252.007 157.584 252.007 157.753V163.38C252.007 163.549 251.87 163.686 251.702 163.686ZM206.197 163.074H251.398V158.059H206.197V163.074Z" fill="#1D1D1B"/>
<path d="M251.701 157.754H235.648V163.381H251.701V157.754Z" fill="#F7B09E"/>
<path d="M251.7 163.686H235.648C235.48 163.686 235.344 163.549 235.344 163.38V157.753C235.344 157.584 235.48 157.447 235.648 157.447H251.7C251.869 157.447 252.005 157.584 252.005 157.753V163.38C252.005 163.549 251.869 163.686 251.7 163.686ZM235.953 163.074H251.396V158.059H235.953V163.074Z" fill="#1D1D1B"/>
<path d="M218.243 183.615C218.243 184.48 217.546 185.18 216.686 185.18C215.826 185.18 215.129 184.48 215.129 183.615C215.129 182.751 215.826 182.05 216.686 182.05C217.546 182.05 218.243 182.751 218.243 183.615Z" fill="#F7B09E"/>
<path d="M216.686 185.487C215.659 185.487 214.824 184.647 214.824 183.616C214.824 182.584 215.659 181.744 216.686 181.744C217.712 181.744 218.547 182.584 218.547 183.616C218.547 184.647 217.712 185.487 216.686 185.487ZM216.686 182.356C215.995 182.356 215.433 182.921 215.433 183.616C215.433 184.31 215.995 184.875 216.686 184.875C217.376 184.875 217.938 184.31 217.938 183.616C217.938 182.921 217.377 182.356 216.686 182.356Z" fill="#1D1D1B"/>
<path d="M217.839 170.474C217.839 171.114 217.323 171.634 216.685 171.634C216.048 171.634 215.531 171.114 215.531 170.474C215.531 169.833 216.048 169.314 216.685 169.314C217.323 169.314 217.839 169.833 217.839 170.474Z" fill="#F7B09E"/>
<path d="M216.685 171.94C215.881 171.94 215.227 171.282 215.227 170.474C215.227 169.666 215.881 169.008 216.685 169.008C217.489 169.008 218.144 169.666 218.144 170.474C218.144 171.282 217.489 171.94 216.685 171.94ZM216.685 169.62C216.217 169.62 215.836 170.003 215.836 170.474C215.836 170.945 216.217 171.328 216.685 171.328C217.154 171.328 217.535 170.945 217.535 170.474C217.535 170.003 217.154 169.62 216.685 169.62Z" fill="#1D1D1B"/>
<path d="M220.789 175.76C220.789 173.482 218.952 171.635 216.686 171.635C214.42 171.635 212.583 173.482 212.583 175.76V178.093C212.583 180.178 211.736 182.173 210.238 183.616H216.686H223.134C221.636 182.173 220.789 180.178 220.789 178.093V175.76Z" fill="#F7B09E"/>
<path d="M223.134 183.922H210.238C210.114 183.922 210.002 183.846 209.956 183.73C209.909 183.614 209.938 183.481 210.027 183.395C211.458 182.017 212.278 180.084 212.278 178.093V175.759C212.278 173.316 214.256 171.329 216.686 171.329C219.116 171.329 221.094 173.316 221.094 175.759V178.093C221.094 180.084 221.914 182.017 223.345 183.395C223.434 183.481 223.463 183.614 223.416 183.73C223.37 183.846 223.258 183.922 223.134 183.922ZM210.947 183.31H222.425C221.184 181.871 220.485 180.007 220.485 178.093V175.759C220.485 173.654 218.781 171.941 216.686 171.941C214.591 171.941 212.887 173.654 212.887 175.759V178.093C212.887 180.007 212.187 181.871 210.947 183.31Z" fill="#1D1D1B"/>
<path d="M210.121 176.065C209.953 176.065 209.816 175.928 209.816 175.759C209.816 173.348 211.039 171.15 213.086 169.879C213.229 169.79 213.417 169.835 213.505 169.978C213.593 170.122 213.549 170.311 213.406 170.399C211.54 171.558 210.425 173.562 210.425 175.759C210.425 175.928 210.289 176.065 210.121 176.065Z" fill="#1D1D1B"/>
<path d="M223.254 176.065C223.085 176.065 222.949 175.928 222.949 175.759C222.949 173.535 221.759 171.452 219.842 170.323C219.697 170.238 219.648 170.05 219.733 169.904C219.818 169.758 220.005 169.71 220.15 169.795C222.252 171.033 223.558 173.318 223.558 175.759C223.558 175.928 223.422 176.065 223.254 176.065Z" fill="#1D1D1B"/>
<path d="M207.851 176.065C207.683 176.065 207.547 175.928 207.547 175.759C207.547 172.553 209.173 169.629 211.895 167.938C212.038 167.849 212.226 167.894 212.314 168.038C212.403 168.181 212.359 168.37 212.215 168.459C209.674 170.038 208.156 172.767 208.156 175.759C208.156 175.928 208.019 176.065 207.851 176.065Z" fill="#1D1D1B"/>
<path d="M225.519 176.065C225.351 176.065 225.214 175.928 225.214 175.759C225.214 172.729 223.593 169.892 220.983 168.355C220.838 168.27 220.789 168.082 220.874 167.937C220.959 167.791 221.146 167.742 221.29 167.827C224.086 169.473 225.823 172.513 225.823 175.759C225.823 175.928 225.687 176.065 225.519 176.065Z" fill="#1D1D1B"/>
<path d="M211.279 75.5031C211.279 77.2391 211.279 77.2437 211.279 78.9796L213.652 79.828C214.068 80.838 214.279 81.3482 214.695 82.3582L213.614 84.6445C214.835 85.8721 214.838 85.8754 216.059 87.1029L218.334 86.016C219.339 86.4345 219.846 86.6458 220.851 87.0642L221.695 89.4494C223.422 89.4494 223.426 89.4494 225.153 89.4494L225.997 87.0642C227.002 86.6458 227.51 86.4345 228.514 86.016L230.789 87.1029C232.01 85.8753 232.013 85.8721 233.235 84.6445L232.153 82.3582C232.57 81.3482 232.78 80.8379 233.196 79.828L235.569 78.9796C235.569 77.2437 235.569 77.2392 235.569 75.5031L233.196 74.6549C232.78 73.6449 232.57 73.1346 232.153 72.1246L233.235 69.8381C232.013 68.6106 232.01 68.6074 230.789 67.38L228.514 68.4667C227.51 68.0484 227.002 67.837 225.997 67.4187L225.153 65.0334C223.426 65.0334 223.422 65.0334 221.695 65.0334L220.851 67.4187C219.846 67.837 219.339 68.0484 218.334 68.4667L216.059 67.38C214.838 68.6074 214.835 68.6106 213.614 69.8381L214.695 72.1246C214.279 73.1346 214.068 73.6449 213.652 74.6549L211.279 75.5031ZM223.424 70.9072C226.904 70.9072 229.725 73.7433 229.725 77.2415C229.725 80.7398 226.904 83.5756 223.424 83.5756C219.944 83.5756 217.123 80.7398 217.123 77.2415C217.123 73.7433 219.944 70.9072 223.424 70.9072Z" fill="#F7B09E"/>
<path d="M225.153 89.7555H221.695C221.566 89.7555 221.451 89.6741 221.408 89.5519L220.609 87.2949L218.342 86.3508L216.19 87.3795C216.073 87.4349 215.935 87.4108 215.844 87.3194L213.398 84.861C213.307 84.7694 213.283 84.6301 213.338 84.5132L214.362 82.3498L213.422 80.0709L211.177 79.268C211.056 79.2245 210.975 79.109 210.975 78.9796V75.5031C210.975 75.3736 211.056 75.2582 211.177 75.2147L213.422 74.412L214.362 72.1332L213.338 69.9695C213.283 69.8526 213.307 69.7132 213.398 69.6218L215.844 67.1637C215.935 67.0721 216.073 67.048 216.19 67.1036L218.342 68.1321L220.609 67.1881L221.408 64.9311C221.451 64.809 221.566 64.7275 221.695 64.7275H225.153C225.282 64.7275 225.397 64.809 225.44 64.9311L226.239 67.1881L228.506 68.1321L230.658 67.1036C230.775 67.0478 230.913 67.072 231.004 67.1637L233.45 69.6218C233.541 69.7133 233.565 69.8527 233.509 69.9695L232.486 72.1332L233.425 74.412L235.671 75.2147C235.792 75.2582 235.873 75.3736 235.873 75.5031V78.9796C235.873 79.109 235.792 79.2245 235.671 79.268L233.425 80.0709L232.486 82.3498L233.509 84.5132C233.565 84.6302 233.541 84.7695 233.45 84.861L231.004 87.3194C230.913 87.4109 230.775 87.4349 230.658 87.3795L228.506 86.3508L226.239 87.2949L225.44 89.5519C225.397 89.6741 225.282 89.7555 225.153 89.7555ZM221.91 89.1434H224.938L225.71 86.9615C225.739 86.8799 225.801 86.8145 225.88 86.7813L228.398 85.7333C228.477 85.7001 228.567 85.7025 228.645 85.7396L230.725 86.7339L232.867 84.5809L231.878 82.4896C231.841 82.4115 231.839 82.3212 231.872 82.2411L232.915 79.7108C232.948 79.6309 233.013 79.5687 233.094 79.5395L235.264 78.7637V75.7191L233.094 74.9433C233.013 74.9141 232.948 74.852 232.915 74.772L231.872 72.2419C231.839 72.1618 231.841 72.0715 231.878 71.9934L232.867 69.9019L230.725 67.7492L228.645 68.7433C228.567 68.7804 228.477 68.7826 228.398 68.7496L225.88 67.7016C225.801 67.6684 225.739 67.6029 225.71 67.5214L224.938 65.3398H221.91L221.138 67.5214C221.109 67.603 221.047 67.6684 220.967 67.7016L218.45 68.7496C218.37 68.7828 218.281 68.7806 218.203 68.7433L216.122 67.7492L213.981 69.9019L214.97 71.9934C215.007 72.0715 215.009 72.1618 214.976 72.2419L213.933 74.772C213.9 74.852 213.835 74.9141 213.754 74.9433L211.584 75.7191V78.7637L213.754 79.5395C213.835 79.5687 213.9 79.6309 213.933 79.7108L214.976 82.2411C215.009 82.3212 215.007 82.4115 214.97 82.4896L213.981 84.5809L216.122 86.7339L218.203 85.7396C218.28 85.7022 218.37 85.7002 218.45 85.7333L220.967 86.7813C221.047 86.8145 221.109 86.8799 221.138 86.9615L221.91 89.1434ZM223.424 83.8816C219.781 83.8816 216.818 80.9028 216.818 77.2415C216.818 73.58 219.781 70.6012 223.424 70.6012C227.066 70.6012 230.03 73.5801 230.03 77.2415C230.03 80.9028 227.066 83.8816 223.424 83.8816ZM223.424 71.2133C220.117 71.2133 217.427 73.9176 217.427 77.2415C217.427 80.5654 220.117 83.2695 223.424 83.2695C226.731 83.2695 229.421 80.5653 229.421 77.2415C229.421 73.9177 226.731 71.2133 223.424 71.2133Z" fill="#1D1D1B"/>
<path d="M233.121 94.7675C233.121 96.0576 233.121 96.061 233.121 97.3509L234.884 97.9813C235.194 98.7319 235.35 99.1111 235.659 99.8615L234.856 101.56C235.763 102.473 235.766 102.475 236.673 103.387L238.363 102.58C239.11 102.891 239.487 103.048 240.234 103.358L240.861 105.131C242.144 105.131 242.148 105.131 243.431 105.131L244.058 103.358C244.805 103.048 245.182 102.891 245.928 102.58L247.619 103.387C248.526 102.475 248.529 102.473 249.436 101.56L248.633 99.8615C248.942 99.1111 249.098 98.7319 249.407 97.9813L251.171 97.3509C251.171 96.061 251.171 96.0576 251.171 94.7675L249.407 94.1372C249.098 93.3867 248.942 93.0075 248.633 92.257L249.436 90.5579C248.529 89.6458 248.526 89.6435 247.619 88.7313L245.928 89.5388C245.182 89.228 244.805 89.0709 244.058 88.7601L243.431 86.9875C242.148 86.9875 242.144 86.9875 240.861 86.9875L240.234 88.7601C239.487 89.0709 239.11 89.228 238.363 89.5388L236.673 88.7313C235.766 89.6435 235.763 89.6458 234.856 90.5579L235.659 92.257C235.35 93.0075 235.194 93.3867 234.884 94.1372L233.121 94.7675ZM242.146 91.3524C244.732 91.3524 246.828 93.4598 246.828 96.0593C246.828 98.6588 244.732 100.766 242.146 100.766C239.56 100.766 237.463 98.6588 237.463 96.0593C237.463 93.4598 239.56 91.3524 242.146 91.3524Z" fill="#F7B09E"/>
<path d="M243.431 105.437H240.861C240.732 105.437 240.617 105.356 240.574 105.233L239.992 103.589L238.371 102.914L236.804 103.664C236.687 103.719 236.548 103.695 236.458 103.604L234.64 101.777C234.549 101.685 234.525 101.546 234.581 101.429L235.326 99.8531L234.655 98.2242L233.019 97.6394C232.898 97.596 232.816 97.4804 232.816 97.351V94.7676C232.816 94.6382 232.898 94.5227 233.019 94.4792L234.655 93.8944L235.326 92.2656L234.581 90.6893C234.525 90.5724 234.549 90.4332 234.64 90.3416L236.458 88.515C236.549 88.4234 236.687 88.3995 236.804 88.455L238.371 89.2042L239.992 88.5294L240.574 86.8852C240.617 86.7631 240.732 86.6816 240.861 86.6816H243.431C243.559 86.6816 243.674 86.7631 243.718 86.8852L244.299 88.5294L245.92 89.2042L247.488 88.455C247.604 88.3993 247.743 88.4234 247.834 88.515L249.651 90.3416C249.742 90.4331 249.766 90.5724 249.711 90.6893L248.965 92.2656L249.636 93.8944L251.272 94.4792C251.394 94.5227 251.475 94.638 251.475 94.7676V97.351C251.475 97.4805 251.394 97.5959 251.272 97.6394L249.636 98.2242L248.965 99.8531L249.711 101.429C249.766 101.546 249.742 101.685 249.651 101.777L247.834 103.604C247.743 103.695 247.604 103.719 247.488 103.664L245.92 102.914L244.299 103.589L243.718 105.233C243.674 105.356 243.559 105.437 243.431 105.437ZM241.075 104.825H243.216L243.771 103.256C243.8 103.174 243.862 103.109 243.941 103.076L245.812 102.297C245.891 102.264 245.981 102.266 246.059 102.303L247.555 103.018L249.068 101.497L248.357 99.9929C248.32 99.9147 248.318 99.8245 248.351 99.7444L249.126 97.8642C249.159 97.7842 249.224 97.7221 249.305 97.6929L250.866 97.135V94.9835L249.305 94.4256C249.224 94.3965 249.159 94.3343 249.126 94.2544L248.351 92.3741C248.318 92.2941 248.32 92.2038 248.357 92.1256L249.068 90.6216L247.555 89.1005L246.059 89.8153C245.981 89.8524 245.891 89.8546 245.812 89.8216L243.941 89.0428C243.862 89.0096 243.8 88.9442 243.771 88.8625L243.216 87.2936H241.075L240.521 88.8625C240.492 88.9442 240.43 89.0096 240.35 89.0428L238.48 89.8216C238.4 89.8547 238.31 89.8524 238.232 89.8153L236.736 89.1005L235.223 90.6216L235.934 92.1256C235.971 92.2038 235.973 92.2942 235.94 92.3741L235.166 94.2544C235.133 94.3343 235.067 94.3964 234.986 94.4256L233.425 94.9835V97.135L234.986 97.6929C235.067 97.7221 235.133 97.7842 235.166 97.8642L235.94 99.7444C235.973 99.8243 235.971 99.9147 235.934 99.9929L235.223 101.497L236.736 103.018L238.232 102.303C238.31 102.266 238.4 102.263 238.48 102.297L240.35 103.076C240.43 103.109 240.492 103.174 240.521 103.256L241.075 104.825ZM242.146 101.072C239.396 101.072 237.159 98.8234 237.159 96.0594C237.159 93.2953 239.396 91.0463 242.146 91.0463C244.896 91.0463 247.133 93.2952 247.133 96.0594C247.133 98.8234 244.895 101.072 242.146 101.072ZM242.146 91.6585C239.732 91.6585 237.768 93.6326 237.768 96.0594C237.768 98.486 239.732 100.46 242.146 100.46C244.56 100.46 246.524 98.486 246.524 96.0594C246.524 93.6326 244.56 91.6585 242.146 91.6585Z" fill="#1D1D1B"/>
<path d="M307.274 105.919C334.323 105.919 340.696 114.201 340.696 114.201C340.696 141.39 333.234 167.33 307.274 180.143C281.313 167.33 273.852 141.39 273.852 114.201C273.852 114.201 280.225 105.919 307.274 105.919Z" fill="#F04152"/>
<path d="M307.274 180.45C307.227 180.45 307.182 180.439 307.139 180.418C295.022 174.437 286.075 165.108 280.549 152.688C275.903 142.246 273.547 129.297 273.547 114.201C273.547 114.133 273.569 114.068 273.611 114.014C273.875 113.671 280.385 105.613 307.274 105.613C334.163 105.613 340.673 113.671 340.937 114.014C340.978 114.068 341 114.133 341 114.201C341 129.297 338.644 142.246 333.998 152.688C328.472 165.108 319.526 174.437 307.408 180.418C307.365 180.439 307.32 180.45 307.274 180.45ZM274.156 114.314C274.181 147.326 285.016 168.752 307.273 179.802C329.531 168.752 340.366 147.326 340.391 114.314C339.659 113.495 332.431 106.225 307.273 106.225C282.121 106.225 274.891 113.493 274.156 114.314Z" fill="#1D1D1B"/>
<path d="M307.274 172.875C307.222 172.875 307.17 172.862 307.123 172.835C289.679 162.852 280.888 144.732 280.248 117.441C280.245 117.329 280.305 117.224 280.402 117.168C283.566 115.354 291.265 112.311 307.274 112.311C323.284 112.311 330.982 115.354 334.146 117.168C334.244 117.224 334.303 117.329 334.3 117.441C333.66 144.732 324.869 162.852 307.425 172.835C307.378 172.862 307.326 172.875 307.274 172.875ZM280.861 117.61C281.529 144.487 290.171 162.353 307.274 172.217C324.378 162.353 333.019 144.487 333.687 117.61C330.48 115.817 322.881 112.923 307.274 112.923C291.668 112.923 284.069 115.818 280.861 117.61Z" fill="#F7B09E"/>
<path d="M310.439 132.967L304.105 139.334L297.771 132.967L291.438 139.334L297.771 145.701L304.105 152.068L310.439 145.701L316.773 139.334L323.107 132.967L316.773 126.601L310.439 132.967Z" fill="#F7B09E"/>
<path d="M304.105 152.373C304.027 152.373 303.949 152.344 303.89 152.284L291.222 139.55C291.165 139.493 291.133 139.415 291.133 139.334C291.133 139.252 291.165 139.175 291.222 139.117L297.556 132.75C297.675 132.631 297.868 132.631 297.987 132.75L304.105 138.901L316.558 126.384C316.677 126.264 316.869 126.264 316.988 126.384L323.322 132.75C323.441 132.87 323.441 133.064 323.322 133.183L304.321 152.284C304.261 152.344 304.183 152.373 304.105 152.373ZM291.868 139.334L304.105 151.635L322.676 132.967L316.773 127.033L304.321 139.55C304.202 139.67 304.009 139.67 303.89 139.55L297.771 133.4L291.868 139.334Z" fill="#1D1D1B"/>
<path d="M263.136 79.0434C263.611 79.0434 263.995 78.6568 263.995 78.1799C263.995 77.703 263.611 77.3164 263.136 77.3164C262.662 77.3164 262.277 77.703 262.277 78.1799C262.277 78.6568 262.662 79.0434 263.136 79.0434Z" fill="#1D1D1B"/>
<path d="M273.777 79.0434C274.251 79.0434 274.636 78.6568 274.636 78.1799C274.636 77.703 274.251 77.3164 273.777 77.3164C273.303 77.3164 272.918 77.703 272.918 78.1799C272.918 78.6568 273.303 79.0434 273.777 79.0434Z" fill="#1D1D1B"/>
<path d="M319.849 102.958C319.758 102.958 319.667 102.917 319.608 102.839C314.097 95.6702 304.792 91.1239 298.498 89.4091C298.336 89.3649 298.24 89.1968 298.284 89.0336C298.328 88.8704 298.495 88.7743 298.658 88.8183C305.042 90.558 314.486 95.1759 320.09 102.465C320.192 102.599 320.168 102.791 320.035 102.895C319.979 102.937 319.914 102.958 319.849 102.958Z" fill="#1D1D1B"/>
<path d="M295.262 88.6971C295.247 88.6971 295.231 88.6959 295.215 88.6933C294.904 88.6442 294.599 88.6015 294.3 88.5658C294.133 88.5458 294.013 88.3937 294.033 88.2258C294.053 88.0579 294.204 87.94 294.372 87.9578C294.678 87.9944 294.991 88.0382 295.309 88.0886C295.476 88.1149 295.589 88.2715 295.563 88.4386C295.539 88.5894 295.41 88.6971 295.262 88.6971Z" fill="#1D1D1B"/>
<path d="M262.605 53.3912C262.481 53.3912 262.365 53.3146 262.32 53.1911C262.261 53.0323 262.342 52.8565 262.5 52.7978C262.736 52.7101 262.978 52.627 263.226 52.5485C263.387 52.4974 263.558 52.5872 263.608 52.7485C263.658 52.9098 263.569 53.0816 263.409 53.1323C263.17 53.2077 262.938 53.2878 262.711 53.372C262.676 53.385 262.64 53.3912 262.605 53.3912Z" fill="#1D1D1B"/>
<path d="M255.978 73.6248C255.856 73.6248 255.741 73.5507 255.694 73.4294C253.233 67.0678 253.41 58.7334 259.354 54.4548C259.49 54.3562 259.68 54.388 259.778 54.5255C259.876 54.6628 259.845 54.854 259.708 54.9524C254.061 59.018 253.963 67.2653 256.262 73.2077C256.323 73.3652 256.245 73.5426 256.089 73.6039C256.052 73.6181 256.015 73.6248 255.978 73.6248Z" fill="#1D1D1B"/>
<path d="M236.891 118.456C236.788 118.456 236.688 118.404 236.631 118.31C236.543 118.166 236.588 117.977 236.732 117.889C239.967 115.902 245.612 110.242 245.668 110.185C245.787 110.066 245.98 110.066 246.099 110.185C246.218 110.305 246.218 110.499 246.099 110.618C245.866 110.853 240.346 116.386 237.049 118.412C237 118.442 236.945 118.456 236.891 118.456Z" fill="#1D1D1B"/>
<path d="M257.812 100.191C257.74 100.191 257.667 100.165 257.609 100.113C257.484 100 257.473 99.8067 257.585 99.6809C257.714 99.5363 260.768 96.1219 263.529 94.4567C263.673 94.3699 263.86 94.4165 263.946 94.5616C264.033 94.7066 263.986 94.8946 263.842 94.9816C261.161 96.5986 258.07 100.054 258.039 100.089C257.979 100.157 257.896 100.191 257.812 100.191Z" fill="#1D1D1B"/>
<path d="M330.773 167.1C330.711 167.1 330.649 167.081 330.595 167.042C330.459 166.943 330.428 166.752 330.526 166.615C330.699 166.374 330.847 166.153 330.967 165.957C331.054 165.813 331.242 165.768 331.386 165.857C331.529 165.946 331.573 166.134 331.485 166.278C331.358 166.486 331.202 166.72 331.02 166.973C330.961 167.056 330.867 167.1 330.773 167.1Z" fill="#1D1D1B"/>
<path d="M320.399 177.493C320.308 177.493 320.22 177.453 320.16 177.377C320.055 177.244 320.077 177.052 320.209 176.947C322.839 174.854 325.833 172.034 328.218 169.404C328.331 169.279 328.524 169.271 328.648 169.384C328.772 169.498 328.781 169.692 328.668 169.817C326.262 172.47 323.241 175.315 320.587 177.427C320.531 177.471 320.465 177.493 320.399 177.493Z" fill="#1D1D1B"/>
<path d="M340.219 185.856H257.152C256.984 185.856 256.848 185.719 256.848 185.55C256.848 185.381 256.984 185.244 257.152 185.244H340.219C340.388 185.244 340.524 185.381 340.524 185.55C340.524 185.719 340.388 185.856 340.219 185.856Z" fill="#1D1D1B"/>
</g>
<defs>
<clipPath id="clip0_10169_249126">
<path d="M166 25H341V95C341 149.124 297.124 193 243 193H166V25Z" fill="white"/>
</clipPath>
</defs>
</svg>
