<svg width="342" height="194" viewBox="0 0 342 194" fill="none" xmlns="http://www.w3.org/2000/svg">
<path d="M149.5 13H341.5V97C341.5 150.019 298.519 193 245.5 193H149.5L149.5 13Z" fill="#FFB8A6"/>
<path d="M229.226 83.9057C234.927 78.2049 244.17 78.2049 249.87 83.9057C255.571 89.6065 255.571 98.8492 249.87 104.55C244.933 109.487 237.339 110.147 231.69 106.533L225.359 108.417L227.244 102.086C223.629 96.4368 224.289 88.843 229.226 83.9057Z" fill="#F04152"/>
<path d="M178.151 101.774C172.45 96.0736 172.45 86.8308 178.151 81.1301C183.851 75.4293 193.094 75.4293 198.795 81.1301C203.732 86.0674 204.392 93.6611 200.777 99.31L202.662 105.641L196.331 103.757C190.682 107.372 183.088 106.712 178.151 101.774Z" fill="#F04152"/>
<path d="M214.164 54.9327C222.226 54.9327 228.762 61.4684 228.762 69.5304C228.762 76.5129 223.859 82.3493 217.309 83.7876L214.164 89.5965L211.02 83.7876C204.469 82.3493 199.566 76.5129 199.566 69.5304C199.567 61.4684 206.102 54.9327 214.164 54.9327Z" fill="#1B2E35"/>
<path d="M261.375 193.067H243.543L261.312 140.34C262.992 135.357 267.664 132.001 272.922 132.001H281.955L261.375 193.067Z" fill="#F04152"/>
<path d="M261.449 193.067H306.31L310.533 174.633L312.108 145.945C313.019 138.536 307.239 132.001 299.774 132.001H279.955C273.678 132.001 268.387 136.681 267.621 142.91L261.449 193.067Z" fill="#F04152"/>
<path d="M316.513 193.067H319.334C326.708 193.067 331.906 185.83 329.551 178.842L316.576 140.34C314.896 135.357 310.224 132.001 304.966 132.001H295.934L316.513 193.067Z" fill="#F04152"/>
<path d="M272.613 179.379C274.099 177.892 276.27 177.321 278.295 177.883L289.766 181.067L292.233 191.806H284.13L279.756 187.432C279.121 186.797 278.092 186.797 277.457 187.432C276.822 188.067 275.793 188.067 275.158 187.432L273.953 186.226C273.318 185.591 273.318 184.562 273.953 183.927L275.088 182.792C275.289 182.59 275.289 182.264 275.088 182.063C274.887 181.861 274.56 181.861 274.359 182.063L271.625 184.796C270.402 186.02 268.419 186.02 267.195 184.796L272.613 179.379Z" fill="#FE9580"/>
<path d="M289.374 193.067H317.718L314.298 175.348H285.953L289.374 193.067Z" fill="#F04152"/>
<path d="M211.246 193.067H244.758V188.694H211.246V193.067Z" fill="#3B5860"/>
<path d="M283.369 127.235H285.734C291.151 127.235 295.542 122.843 295.542 117.427V91.3466H273.561V117.426C273.561 122.843 277.952 127.235 283.369 127.235Z" fill="#FE9580"/>
<path d="M288.17 143.048H290.016C294.245 143.048 297.673 139.62 297.673 135.392V98.6367H280.514V135.392C280.514 139.62 283.942 143.048 288.17 143.048Z" fill="#FE9580"/>
<path d="M261.957 183.094L266.389 147.07C266.437 146.679 266.793 146.401 267.185 146.449C267.576 146.497 267.854 146.853 267.806 147.244L263.373 183.269C263.329 183.63 263.021 183.895 262.666 183.895C262.637 183.895 262.607 183.893 262.578 183.89C262.187 183.842 261.908 183.485 261.957 183.094Z" fill="#1B2E35"/>
<path d="M278.566 186.116H273.926V193.068H278.566V186.116Z" fill="#1B2E35"/>
<path d="M297.162 186.116H292.521V193.068H297.162V186.116Z" fill="#1B2E35"/>
<path d="M290.965 186.116H286.324V193.068H290.965V186.116Z" fill="#1B2E35"/>
<path d="M266.17 186.116H261.529V193.068H266.17V186.116Z" fill="#1B2E35"/>
<path d="M272.369 186.116H267.729V193.068H272.369V186.116Z" fill="#1B2E35"/>
<path d="M284.766 186.116H280.125V193.068H284.766V186.116Z" fill="#1B2E35"/>
<path d="M319.947 186.116H317.314V193.068H319.947V186.116Z" fill="#1B2E35"/>
<path d="M259.972 186.116H255.969V193.068H259.972V186.116Z" fill="#1B2E35"/>
<path d="M303.359 186.116H298.719V193.068H303.359V186.116Z" fill="#1B2E35"/>
<path d="M315.758 186.116H311.117V193.068H315.758V186.116Z" fill="#1B2E35"/>
<path d="M309.558 186.116H304.918V193.068H309.558V186.116Z" fill="#1B2E35"/>
<path d="M303.001 174.634H309.55L304.83 160.628C304.704 160.254 304.904 159.849 305.278 159.723C305.652 159.597 306.056 159.798 306.182 160.172L311.056 174.634H319.711C320.106 174.634 320.425 174.953 320.425 175.347C320.425 175.742 320.106 176.061 319.711 176.061H303.001C302.607 176.061 302.287 175.742 302.287 175.347C302.287 174.953 302.607 174.634 303.001 174.634Z" fill="#1B2E35"/>
<path d="M285.954 174.634H292.235C292.629 174.634 292.948 174.953 292.948 175.347C292.948 175.742 292.629 176.061 292.235 176.061H286.819L288.337 183.927C288.412 184.314 288.159 184.688 287.772 184.763C287.726 184.772 287.68 184.776 287.636 184.776C287.3 184.776 287.001 184.538 286.935 184.197L285.253 175.483C285.213 175.274 285.268 175.057 285.404 174.893C285.539 174.729 285.741 174.634 285.954 174.634Z" fill="#1B2E35"/>
<path d="M269.264 108.674C269.264 111.699 271.724 114.159 274.749 114.159C277.773 114.159 280.233 111.699 280.233 108.674C280.233 108.236 280.59 107.879 281.029 107.879C281.468 107.879 281.825 108.236 281.825 108.674C281.825 111.699 284.285 114.159 287.309 114.159C290.334 114.159 292.794 111.699 292.794 108.674C292.794 105.65 290.334 103.189 287.309 103.189C284.797 103.189 282.675 104.888 282.028 107.197C281.743 107.004 281.399 106.89 281.029 106.89C280.659 106.89 280.315 107.004 280.03 107.197C279.383 104.888 277.261 103.189 274.749 103.189C271.724 103.189 269.264 105.65 269.264 108.674ZM282.813 108.674C282.813 106.195 284.83 104.178 287.309 104.178C289.789 104.178 291.806 106.195 291.806 108.674C291.806 111.154 289.789 113.171 287.309 113.171C284.83 113.171 282.813 111.154 282.813 108.674ZM270.252 108.674C270.252 106.195 272.269 104.178 274.749 104.178C277.228 104.178 279.245 106.195 279.245 108.674C279.245 111.154 277.228 113.171 274.749 113.171C272.269 113.171 270.252 111.154 270.252 108.674Z" fill="#2C444E"/>
<path d="M286.219 109.768C286.614 109.768 286.934 109.448 286.934 109.053C286.934 108.658 286.614 108.338 286.219 108.338C285.824 108.338 285.504 108.658 285.504 109.053C285.504 109.448 285.824 109.768 286.219 109.768Z" fill="#1B2E35"/>
<path d="M276.893 109.768C277.288 109.768 277.608 109.448 277.608 109.053C277.608 108.658 277.288 108.338 276.893 108.338C276.498 108.338 276.178 108.658 276.178 109.053C276.178 109.448 276.498 109.768 276.893 109.768Z" fill="#1B2E35"/>
<path d="M232.363 88.7264V96.5953C232.363 100.563 235.58 103.78 239.548 103.78C243.516 103.78 246.733 100.563 246.733 96.5953V88.7264L239.548 86.918L232.363 88.7264ZM237.936 97.9974L238.617 94.6959C238.292 94.4274 238.084 94.021 238.084 93.5661C238.084 92.7576 238.739 92.1022 239.548 92.1022C240.356 92.1022 241.012 92.7576 241.012 93.5661C241.012 94.021 240.804 94.4274 240.479 94.6959L241.16 97.9974H239.548H237.936Z" fill="#1B2E35"/>
<path d="M205.453 72.8294L213.097 61.4547C213.607 60.6961 214.723 60.6961 215.233 61.4547L222.876 72.8294C223.451 73.684 222.838 74.8335 221.809 74.8335H206.521C205.491 74.8335 204.879 73.684 205.453 72.8294Z" fill="#F04152"/>
<path d="M214.832 64.0977V66.8747L214.606 70.6319H213.726L213.5 66.8747V64.0977H214.832ZM214.832 71.5617V72.8937H213.5V71.5617H214.832Z" fill="#1B2E35"/>
<path d="M180.229 90.7617H196.715V86.2275H180.229V90.7617Z" fill="#1B2E35"/>
<path d="M194.55 89.4249L194.166 88.8158L193.781 89.4249L193.422 89.1603L193.881 88.6162L193.188 88.4366L193.327 88.0122L194.001 88.2868L193.941 87.5627H194.391L194.331 88.2868L195.005 88.0122L195.145 88.4366L194.451 88.6162L194.91 89.1603L194.55 89.4249Z" fill="#F04152"/>
<path d="M192.273 89.4249L191.889 88.8158L191.504 89.4249L191.145 89.1603L191.604 88.6162L190.91 88.4366L191.05 88.0122L191.724 88.2868L191.664 87.5627H192.113L192.053 88.2868L192.727 88.0122L192.867 88.4366L192.173 88.6162L192.633 89.1603L192.273 89.4249Z" fill="#F04152"/>
<path d="M189.996 89.4249L189.612 88.8158L189.227 89.4249L188.868 89.1603L189.327 88.6162L188.633 88.4366L188.773 88.0122L189.447 88.2868L189.387 87.5627H189.836L189.776 88.2868L190.45 88.0122L190.59 88.4366L189.896 88.6162L190.355 89.1603L189.996 89.4249Z" fill="#F04152"/>
<path d="M187.716 89.4249L187.332 88.8158L186.947 89.4249L186.588 89.1603L187.047 88.6162L186.354 88.4366L186.493 88.0122L187.167 88.2868L187.107 87.5627H187.557L187.497 88.2868L188.171 88.0122L188.311 88.4366L187.617 88.6162L188.076 89.1603L187.716 89.4249Z" fill="#F04152"/>
<path d="M185.439 89.4249L185.055 88.8158L184.67 89.4249L184.311 89.1603L184.77 88.6162L184.076 88.4366L184.216 88.0122L184.89 88.2868L184.83 87.5627H185.279L185.219 88.2868L185.893 88.0122L186.033 88.4366L185.339 88.6162L185.799 89.1603L185.439 89.4249Z" fill="#F04152"/>
<path d="M183.162 89.4249L182.777 88.8158L182.393 89.4249L182.033 89.1603L182.493 88.6162L181.799 88.4366L181.938 88.0122L182.613 88.2868L182.553 87.5627H183.002L182.942 88.2868L183.616 88.0122L183.756 88.4366L183.062 88.6162L183.521 89.1603L183.162 89.4249Z" fill="#F04152"/>
<path d="M180.229 96.6777H196.715V92.1435H180.229V96.6777Z" fill="#1B2E35"/>
<path d="M194.55 95.3419L194.166 94.7327L193.781 95.3419L193.422 95.0772L193.881 94.5331L193.188 94.3534L193.327 93.9289L194.001 94.2035L193.941 93.4795H194.391L194.331 94.2035L195.005 93.9289L195.145 94.3534L194.451 94.5331L194.91 95.0772L194.55 95.3419Z" fill="#F04152"/>
<path d="M192.273 95.3419L191.889 94.7327L191.504 95.3419L191.145 95.0772L191.604 94.5331L190.91 94.3534L191.05 93.9289L191.724 94.2035L191.664 93.4795H192.113L192.053 94.2035L192.727 93.9289L192.867 94.3534L192.173 94.5331L192.633 95.0772L192.273 95.3419Z" fill="#F04152"/>
<path d="M189.996 95.3419L189.612 94.7327L189.227 95.3419L188.868 95.0772L189.327 94.5331L188.633 94.3534L188.773 93.9289L189.447 94.2035L189.387 93.4795H189.836L189.776 94.2035L190.45 93.9289L190.59 94.3534L189.896 94.5331L190.355 95.0772L189.996 95.3419Z" fill="#F04152"/>
<path d="M187.716 95.3419L187.332 94.7327L186.947 95.3419L186.588 95.0772L187.047 94.5331L186.354 94.3534L186.493 93.9289L187.167 94.2035L187.107 93.4795H187.557L187.497 94.2035L188.171 93.9289L188.311 94.3534L187.617 94.5331L188.076 95.0772L187.716 95.3419Z" fill="#F04152"/>
<path d="M185.439 95.3419L185.055 94.7327L184.67 95.3419L184.311 95.0772L184.77 94.5331L184.076 94.3534L184.216 93.9289L184.89 94.2035L184.83 93.4795H185.279L185.219 94.2035L185.893 93.9289L186.033 94.3534L185.339 94.5331L185.799 95.0772L185.439 95.3419Z" fill="#F04152"/>
<path d="M183.162 95.3419L182.777 94.7327L182.393 95.3419L182.033 95.0772L182.493 94.5331L181.799 94.3534L181.938 93.9289L182.613 94.2035L182.553 93.4795H183.002L182.942 94.2035L183.616 93.9289L183.756 94.3534L183.062 94.5331L183.521 95.0772L183.162 95.3419Z" fill="#F04152"/>
<path d="M205.368 165.668H271.427L250.635 113.904H184.576L205.368 165.668Z" fill="#3B5860"/>
<path d="M202.366 165.668H268.425L247.633 113.904H181.574L202.366 165.668Z" fill="#2C444E"/>
<path d="M209.821 160.554H249.061L244.197 148.444H204.957L209.821 160.554Z" fill="#1B2E35"/>
<path d="M222.092 193.067L237.826 153.896H218.997L203.264 193.067H222.092Z" fill="#3B5860"/>
<path d="M219.59 193.068L235.668 152.996H216.839L200.762 193.068H219.59Z" fill="#1B2E35"/>
<path d="M253.723 193.067H322.191V188.694H253.723V193.067Z" fill="#3B5860"/>
<path d="M276.496 102.477C283.861 102.477 289.831 96.5061 289.831 89.1411C289.831 81.7761 283.861 75.8057 276.496 75.8057C269.131 75.8057 263.16 81.7761 263.16 89.1411C263.16 96.5061 269.131 102.477 276.496 102.477Z" fill="#1B2E35"/>
<path d="M304.041 102.941C308.127 98.8551 308.127 92.2308 304.041 88.1451C299.956 84.0594 293.331 84.0593 289.246 88.1451C285.16 92.2308 285.16 98.8551 289.246 102.941C293.331 107.027 299.956 107.027 304.041 102.941Z" fill="#1B2E35"/>
<path d="M299.059 111.932C301.128 111.596 302.532 109.647 302.197 107.579C301.861 105.51 299.912 104.105 297.843 104.441C295.775 104.777 294.37 106.726 294.706 108.794C295.041 110.863 296.99 112.268 299.059 111.932Z" fill="#FE9580"/>
<path d="M290.825 91.7436C293.764 91.7436 296.146 89.3613 296.146 86.4226C296.146 83.4839 293.764 81.1016 290.825 81.1016C287.886 81.1016 285.504 83.4839 285.504 86.4226C285.504 89.3613 287.886 91.7436 290.825 91.7436Z" fill="#1B2E35"/>
<path d="M280.513 119.334C279.751 119.334 278.99 119.044 278.41 118.464C278.199 118.253 278.199 117.912 278.41 117.702C278.62 117.491 278.962 117.491 279.172 117.702C279.911 118.441 281.115 118.441 281.854 117.702C282.064 117.491 282.406 117.491 282.616 117.702C282.827 117.912 282.827 118.253 282.616 118.464C282.036 119.044 281.275 119.334 280.513 119.334Z" fill="#1B2E35"/>
<path d="M151.376 11.3059L149.5 6.23692L147.624 11.3059L146.077 15.4888C142.633 24.7952 135.295 32.1328 125.989 35.5765L121.806 37.1243L116.737 39L121.806 40.8757L125.989 42.4235C135.295 45.8672 142.633 53.2048 146.076 62.5112L147.624 66.6941L149.5 71.7631L151.376 66.6941L152.924 62.5112C156.367 53.2048 163.705 45.8672 173.011 42.4235L177.194 40.8757L182.263 39L177.194 37.1243L173.011 35.5765C163.705 32.1328 156.367 24.7952 152.923 15.4888L151.376 11.3059Z" fill="#FEC35C" stroke="white" stroke-width="4"/>
<path d="M0.5 44H75C116.145 44 149.5 77.3548 149.5 118.5V193H98.5C44.3761 193 0.5 149.124 0.5 95V44Z" fill="#F04152"/>
</svg>
